<svg width="28" height="28" viewBox="0 0 36 36" fill="none" xmlns="http://www.w3.org/2000/svg">
					<path
						d="M35.324 18.1061C35.3233 14.7391 34.358 11.4429 32.5422 8.60756C30.7264 5.77221 28.1362 3.51652 25.0783 2.1075C22.0204 0.698488 18.6228 0.195161 15.2877 0.657108C11.9526 1.11905 8.81966 2.52693 6.25984 4.71406C3.70002 6.90119 1.82047 9.776 0.843705 12.9981C-0.133058 16.2203 -0.166133 19.6548 0.748395 22.8952C1.66292 26.1355 3.48676 29.046 6.00398 31.282C8.52121 33.518 11.6264 34.986 14.952 35.5121V23.1991H10.477V18.1061H14.953V14.2251C14.953 9.81008 17.582 7.37108 21.608 7.37108C22.9293 7.38949 24.2475 7.50446 25.552 7.71508V12.0491H23.324C22.9455 11.9988 22.5605 12.0343 22.1976 12.153C21.8347 12.2717 21.5031 12.4704 21.2274 12.7346C20.9517 12.9988 20.7389 13.3216 20.6049 13.6791C20.4708 14.0367 20.4189 14.4198 20.453 14.8001V18.1071H25.344L24.563 23.2001H20.463V35.5121C24.6063 34.8542 28.3791 32.7399 31.1031 29.5494C33.8271 26.3589 35.3238 22.3013 35.324 18.1061V18.1061Z"
						fill="#009C98"
					/>
				</svg>