<svg width="28" height="28" viewBox="0 0 32 33" fill="none" xmlns="http://www.w3.org/2000/svg">
					<path
						d="M7.21 32.0551H0.612001V10.8061H7.212L7.21 32.0551ZM3.907 7.90808C3.14753 7.91163 2.40407 7.68989 1.77062 7.27091C1.13717 6.85193 0.642186 6.25452 0.348265 5.55422C0.0543441 4.85392 -0.0253154 4.0822 0.11936 3.33663C0.264035 2.59106 0.626548 1.90513 1.16106 1.36559C1.69556 0.826046 2.37806 0.457119 3.12224 0.30546C3.86642 0.153802 4.63886 0.226223 5.34188 0.513566C6.0449 0.800909 6.64693 1.29027 7.07183 1.91976C7.49674 2.54926 7.72543 3.29061 7.729 4.05008C7.73009 5.0674 7.32891 6.04388 6.61294 6.7666C5.89697 7.48931 4.92428 7.89963 3.907 7.90808V7.90808ZM31.907 32.0561H25.322V21.7111C25.322 19.2461 25.272 16.0841 21.891 16.0841C18.46 16.0841 17.935 18.7621 17.935 21.5331V32.0551H11.343V10.8061H17.672V13.7061H17.764C18.3968 12.6229 19.3117 11.7317 20.4111 11.1274C21.5106 10.5232 22.7533 10.2286 24.007 10.2751C30.685 10.2751 31.913 14.6751 31.913 20.3841V32.0551L31.907 32.0561Z"
						fill="#009C98"
					/>
				</svg>