<svg width="28" height="28" viewBox="0 0 32 33" fill="none" xmlns="http://www.w3.org/2000/svg">
					<path
						d="M16.012 7.98508C14.3975 7.98508 12.8193 8.46383 11.4769 9.36079C10.1345 10.2578 9.0882 11.5326 8.47036 13.0242C7.85253 14.5158 7.69087 16.1571 8.00584 17.7406C8.32081 19.3241 9.09826 20.7786 10.2399 21.9202C11.3815 23.0618 12.836 23.8393 14.4195 24.1542C16.0029 24.4692 17.6442 24.3075 19.1358 23.6897C20.6274 23.0719 21.9023 22.0256 22.7993 20.6832C23.6962 19.3408 24.175 17.7626 24.175 16.1481C24.1767 15.0756 23.9667 14.0134 23.5571 13.0222C23.1475 12.0311 22.5463 11.1305 21.7879 10.3721C21.0296 9.6138 20.129 9.01258 19.1379 8.60296C18.1467 8.19334 17.0845 7.98337 16.012 7.98508V7.98508ZM16.012 21.4551C14.9624 21.4551 13.9363 21.1438 13.0636 20.5607C12.1908 19.9775 11.5106 19.1487 11.109 18.179C10.7073 17.2093 10.6022 16.1422 10.807 15.1127C11.0117 14.0833 11.5172 13.1377 12.2594 12.3955C13.0016 11.6533 13.9472 11.1478 14.9766 10.943C16.0061 10.7383 17.0732 10.8434 18.0429 11.245C19.0126 11.6467 19.8415 12.3269 20.4246 13.1997C21.0077 14.0724 21.319 15.0985 21.319 16.1481C21.3163 17.5548 20.7564 18.9031 19.7617 19.8978C18.767 20.8925 17.4187 21.4524 16.012 21.4551V21.4551ZM26.412 7.65508C26.412 8.03086 26.3006 8.39821 26.0918 8.71066C25.883 9.02311 25.5863 9.26664 25.2391 9.41045C24.8919 9.55425 24.5099 9.59188 24.1413 9.51857C23.7728 9.44526 23.4342 9.2643 23.1685 8.99858C22.9028 8.73286 22.7218 8.39431 22.6485 8.02575C22.5752 7.65718 22.6128 7.27516 22.7566 6.92798C22.9004 6.5808 23.144 6.28406 23.4564 6.07528C23.7689 5.86651 24.1362 5.75508 24.512 5.75508C25.0152 5.75508 25.4979 5.9547 25.8541 6.31016C26.2103 6.66561 26.4109 7.14786 26.412 7.65108V7.65508ZM31.818 9.58708C31.8704 7.11186 30.9465 4.71546 29.246 2.91608C27.4437 1.22046 25.0501 0.296387 22.576 0.341077C19.948 0.191077 12.069 0.191077 9.43999 0.341077C6.96682 0.291771 4.5725 1.21203 2.76899 2.90508C1.07174 4.70643 0.148646 7.10158 0.197993 9.57608C0.0489927 12.2051 0.0489927 20.0831 0.197993 22.7121C0.145575 25.1873 1.0695 27.5837 2.76999 29.3831C4.5739 31.0764 6.96724 31.9991 9.44099 31.9551C12.07 32.1041 19.948 32.1041 22.577 31.9551C25.0522 32.0075 27.4486 31.0836 29.248 29.3831C30.9428 27.5801 31.8658 25.1861 31.82 22.7121C31.969 20.0831 31.969 12.2121 31.82 9.58308L31.818 9.58708ZM28.418 25.5361C28.1478 26.2209 27.7398 26.8428 27.2193 27.3633C26.6987 27.8839 26.0768 28.2919 25.392 28.5621C23.292 29.3931 18.323 29.2011 16.007 29.2011C13.691 29.2011 8.70699 29.3861 6.62199 28.5621C5.93776 28.2909 5.31654 27.882 4.79687 27.3608C4.2772 26.8395 3.87016 26.2171 3.60099 25.5321C2.76999 23.4321 2.96199 18.4631 2.96199 16.1471C2.96199 13.8311 2.77699 8.84708 3.60099 6.76208C3.87118 6.0773 4.2792 5.45535 4.79973 4.93482C5.32027 4.41428 5.94222 4.00626 6.62699 3.73608C8.72699 2.90508 13.696 3.09708 16.012 3.09708C18.328 3.09708 23.312 2.91208 25.397 3.73608C26.0818 4.00626 26.7037 4.41428 27.2243 4.93482C27.7448 5.45535 28.1528 6.0773 28.423 6.76208C29.254 8.86208 29.062 13.8311 29.062 16.1471C29.062 18.4631 29.254 23.4441 28.423 25.5321L28.418 25.5361Z"
						fill="#009C98"
					/>
				</svg>