<svg width="28" height="28" viewBox="0 0 37 30" fill="none" xmlns="http://www.w3.org/2000/svg">
					<path
						d="M32.721 7.59108C32.744 7.91408 32.744 8.23708 32.744 8.56008C32.744 18.4151 25.244 29.7701 11.534 29.7701C7.47546 29.7811 3.50013 28.6195 0.0859985 26.4251C0.683692 26.4908 1.28472 26.5215 1.886 26.5171C5.24124 26.5255 8.50153 25.4035 11.141 23.3321C9.58544 23.3037 8.07756 22.7903 6.82798 21.8634C5.57839 20.9365 4.64949 19.6425 4.171 18.1621C4.63678 18.2357 5.10745 18.2741 5.579 18.2771C6.24107 18.2751 6.90026 18.1898 7.541 18.0231C5.85292 17.6817 4.33509 16.7664 3.24535 15.4328C2.1556 14.0991 1.56116 12.4293 1.563 10.7071V10.6151C2.59611 11.1915 3.75082 11.5157 4.933 11.5611C3.35058 10.5058 2.23058 8.88631 1.80166 7.03328C1.37273 5.18024 1.66722 3.23337 2.625 1.59008C4.49756 3.89463 6.83357 5.77989 9.48156 7.12361C12.1296 8.46733 15.0304 9.23951 17.996 9.39008C17.8762 8.82855 17.8142 8.25623 17.811 7.68208C17.813 6.18729 18.2638 4.72754 19.1051 3.49199C19.9464 2.25644 21.1394 1.30204 22.5295 0.752464C23.9196 0.20289 25.4427 0.0834775 26.9015 0.409699C28.3603 0.73592 29.6874 1.49274 30.711 2.58208C32.3803 2.2606 33.9811 1.65155 35.442 0.782082C34.8861 2.50466 33.721 3.96529 32.165 4.89008C33.6455 4.72158 35.0925 4.33261 36.458 3.73608C35.4373 5.2219 34.1732 6.52486 32.719 7.59008L32.721 7.59108Z"
						fill="#009C98"
					/>
				</svg>