<svg width="120" height="67" viewBox="0 0 120 67" fill="none" xmlns="http://www.w3.org/2000/svg">
<path d="M45.264 30.251C44.4921 30.061 43.688 30.0422 42.908 30.196C42.267 30.271 40.291 30.521 39.779 30.596C35.863 31.134 31.96 31.758 28.064 32.422C26.704 32.64 25.176 32.903 23.589 33.183C23.472 30.462 23.275 27.744 23.03 25.03C24.416 24.063 25.809 23.105 27.218 22.171C28.5717 21.1573 30.0308 20.2926 31.57 19.592C29.9596 19.8572 28.3872 20.3162 26.887 20.959C25.515 21.465 24.155 22.001 22.8 22.553C22.7147 21.691 22.6264 20.8294 22.535 19.968C22.195 16.907 21.835 13.846 21.318 10.809C21.2266 10.0284 21.0499 9.26016 20.791 8.51803C20.7244 8.39974 20.6181 8.30872 20.491 8.26101C20.3885 8.22226 20.2779 8.20968 20.1692 8.22445C20.0606 8.23923 19.9574 8.28093 19.8689 8.34567C19.7804 8.41041 19.7095 8.49617 19.6626 8.59524C19.6156 8.69431 19.5941 8.80352 19.6 8.91299C19.6 8.93499 19.609 8.95599 19.611 8.97799C19.226 14.145 18.635 19.303 18.299 24.478C17.4117 24.878 16.5287 25.2897 15.65 25.713C10.728 28.213 5.58003 30.513 1.23403 33.961C0.4905 34.7073 0.0545808 35.7058 0.0127195 36.7585C-0.0291418 37.8111 0.326098 38.841 1.00802 39.644C3.85802 42.244 8.19204 42.267 11.808 41.75C13.857 41.418 16.008 41.05 18.188 40.674C18.268 42.104 18.368 43.5323 18.488 44.959C17.288 45.7557 16.0937 46.5634 14.905 47.382C9.74433 50.8576 4.78534 54.6237 0.0520261 58.662C6.08703 55.883 12.51 52.937 18.983 49.962C18.999 50.106 19.013 50.25 19.029 50.393C19.209 51.937 19.415 53.477 19.629 55.017C20.1324 59.0363 20.952 63.0096 22.08 66.9C22.045 64.575 22.358 62.254 22.516 59.937C22.845 55.942 23.158 51.942 23.378 47.937C27.995 45.81 32.598 43.683 37.066 41.603C39.049 40.709 41.011 39.768 42.977 38.837C44.529 38.2326 45.9271 37.2905 47.07 36.079C49.621 32.372 46.327 30.434 45.264 30.251ZM9.59402 35.562C9.21402 35.596 8.83403 35.614 8.45303 35.623C11.027 33.638 14.194 31.423 18.101 28.523C18.089 28.874 18.072 29.223 18.064 29.577C18.003 31.113 17.983 32.649 17.99 34.186C14.437 34.825 11.225 35.388 9.59402 35.562ZM23.681 39.714C25.281 39.433 26.874 39.153 28.442 38.882C26.8214 39.7814 25.2214 40.7147 23.642 41.682C23.656 41.027 23.67 40.371 23.681 39.714V39.714Z" fill="#606060"/>
<path d="M19.877 0C19.2707 0.0125952 18.6935 0.262313 18.2692 0.695557C17.8448 1.1288 17.6072 1.71107 17.6072 2.3175C17.6072 2.92394 17.8448 3.50621 18.2692 3.93945C18.6935 4.3727 19.2707 4.62241 19.877 4.63501C20.4833 4.62241 21.0606 4.3727 21.4849 3.93945C21.9092 3.50621 22.1469 2.92394 22.1469 2.3175C22.1469 1.71107 21.9092 1.1288 21.4849 0.695557C21.0606 0.262313 20.4833 0.0125952 19.877 0V0Z" fill="#606060"/>
<path d="M62.2541 35.939C62.2378 35.9414 62.2212 35.9398 62.2055 35.9346C62.1899 35.9294 62.1757 35.9207 62.164 35.9091C62.1524 35.8974 62.1437 35.8832 62.1385 35.8676C62.1333 35.8519 62.1317 35.8353 62.1341 35.819V23.578C62.1317 23.5617 62.1333 23.5451 62.1385 23.5295C62.1437 23.5139 62.1524 23.4996 62.164 23.488C62.1757 23.4763 62.1899 23.4676 62.2055 23.4624C62.2212 23.4572 62.2378 23.4557 62.2541 23.458H64.3761C64.3924 23.4557 64.409 23.4572 64.4247 23.4624C64.4403 23.4676 64.4544 23.4763 64.4661 23.488C64.4777 23.4996 64.4865 23.5139 64.4917 23.5295C64.4969 23.5451 64.4984 23.5617 64.4961 23.578V35.819C64.4984 35.8353 64.4969 35.8519 64.4917 35.8676C64.4865 35.8832 64.4777 35.8974 64.4661 35.9091C64.4544 35.9207 64.4403 35.9294 64.4247 35.9346C64.409 35.9398 64.3924 35.9414 64.3761 35.939H62.2541Z" fill="#606060"/>
<path d="M67.5781 23.5561C67.5767 23.5426 67.5783 23.5289 67.5828 23.5161C67.5873 23.5034 67.5946 23.4918 67.6042 23.4822C67.6138 23.4726 67.6254 23.4653 67.6382 23.4608C67.651 23.4563 67.6646 23.4546 67.6781 23.456H77.3001C77.8348 23.4509 78.364 23.565 78.8491 23.79C79.3147 24.007 79.7334 24.3128 80.082 24.69C80.4311 25.0684 80.7096 25.5064 80.9041 25.9831C81.1019 26.4584 81.2039 26.9682 81.2041 27.4831C81.209 27.9717 81.114 28.4562 80.9248 28.9067C80.7357 29.3573 80.4564 29.7644 80.1041 30.1031C79.7514 30.4408 79.3354 30.7055 78.8801 30.8821C78.3916 31.0735 77.8726 31.1751 77.348 31.182C77.3027 31.182 77.2971 31.1991 77.3311 31.2331L81.525 35.8041C81.5363 35.8151 81.5434 35.8297 81.545 35.8454C81.5466 35.8611 81.5428 35.8769 81.5341 35.89C81.5278 35.9053 81.5172 35.9183 81.5034 35.9274C81.4897 35.9365 81.4735 35.9412 81.457 35.941H78.684C78.6578 35.9391 78.6333 35.9269 78.616 35.907L74.3021 31.216C74.2848 31.1962 74.2603 31.184 74.2341 31.182H70.0471C70.0336 31.1806 70.0199 31.1822 70.0072 31.1867C69.9944 31.1913 69.9828 31.1986 69.9732 31.2082C69.9636 31.2178 69.9563 31.2294 69.9518 31.2422C69.9473 31.2549 69.9456 31.2685 69.947 31.282V35.8191C69.9484 35.8325 69.9469 35.8461 69.9423 35.8589C69.9378 35.8717 69.9305 35.8833 69.9209 35.8929C69.9113 35.9024 69.8997 35.9098 69.8869 35.9143C69.8741 35.9189 69.8605 35.9205 69.8471 35.919H67.6901C67.6766 35.9205 67.6629 35.9189 67.6502 35.9143C67.6374 35.9098 67.6258 35.9024 67.6162 35.8929C67.6066 35.8833 67.5993 35.8717 67.5948 35.8589C67.5903 35.8461 67.5886 35.8325 67.59 35.8191L67.5781 23.5561ZM70.043 28.812H77.3021C77.4874 28.8117 77.6718 28.7858 77.85 28.735C78.0299 28.6861 78.1994 28.6048 78.35 28.495C78.5 28.3844 78.6228 28.2411 78.7091 28.076C78.8037 27.8905 78.8508 27.6843 78.8461 27.476C78.8478 27.2555 78.8042 27.037 78.718 26.834C78.6354 26.6392 78.5163 26.4621 78.3671 26.312C78.2209 26.1658 78.0521 26.0443 77.8671 25.9521C77.6921 25.8627 77.4985 25.8157 77.3021 25.815H70.0471C70.0336 25.8136 70.0199 25.8152 70.0072 25.8197C69.9944 25.8243 69.9828 25.8316 69.9732 25.8412C69.9636 25.8508 69.9563 25.8624 69.9518 25.8752C69.9473 25.8879 69.9456 25.9015 69.947 25.915V28.706C69.9437 28.7203 69.9439 28.7352 69.9475 28.7494C69.9512 28.7636 69.9582 28.7768 69.968 28.7877C69.9779 28.7986 69.9902 28.8069 70.004 28.812C70.0177 28.8172 70.0325 28.8189 70.0471 28.8171L70.043 28.812Z" fill="#606060"/>
<path d="M83.5001 35.751L89.6121 23.527C89.6418 23.4895 89.6847 23.4648 89.7321 23.458H92.3C92.3246 23.4563 92.3492 23.4619 92.3706 23.4742C92.392 23.4865 92.4092 23.5049 92.42 23.527L98.5491 35.751C98.5604 35.7724 98.5656 35.7966 98.564 35.8208C98.5624 35.845 98.5541 35.8683 98.5401 35.888C98.5296 35.9085 98.5137 35.9257 98.4941 35.9379C98.4746 35.9501 98.4521 35.9567 98.4291 35.9571H96.084C96.0574 35.958 96.0312 35.95 96.0095 35.9345C95.9878 35.9189 95.9718 35.8966 95.9641 35.8711L94.9371 33.816C94.9262 33.794 94.9089 33.7758 94.8875 33.7636C94.8661 33.7515 94.8416 33.7461 94.8171 33.748H87.2171C87.1956 33.7483 87.1746 33.755 87.1569 33.7671C87.1391 33.7791 87.1253 33.7961 87.1171 33.816L86.0901 35.8711C86.0797 35.8949 86.0631 35.9154 86.0419 35.9306C86.0208 35.9457 85.996 35.9549 85.9701 35.9571H83.6241C83.5994 35.9591 83.5748 35.9535 83.5533 35.9412C83.5319 35.9289 83.5147 35.9103 83.5041 35.888C83.4921 35.8673 83.4854 35.844 83.4847 35.82C83.484 35.7961 83.4893 35.7724 83.5001 35.751V35.751ZM88.4481 31.385H93.584C93.5996 31.3857 93.6151 31.3821 93.6287 31.3745C93.6423 31.3669 93.6535 31.3556 93.6611 31.342C93.6696 31.3304 93.6734 31.3161 93.6717 31.3018C93.67 31.2875 93.663 31.2744 93.6521 31.265L91.0671 26.0951C91.0441 26.0381 91.0161 26.0381 90.9811 26.0951L88.381 31.265C88.356 31.345 88.3791 31.385 88.4471 31.385H88.4481Z" fill="#606060"/>
<path d="M108.376 36.213C107.346 36.2124 106.32 36.0858 105.32 35.8361C104.356 35.6045 103.437 35.217 102.598 34.689C101.807 34.1893 101.138 33.5197 100.638 32.729C100.123 31.8877 99.861 30.9154 99.8851 29.929C99.8718 29.1689 100.006 28.4134 100.279 27.704C100.529 27.0739 100.882 26.4897 101.323 25.975C101.757 25.4728 102.265 25.0398 102.83 24.691C103.394 24.3403 103.994 24.0504 104.619 23.826C105.781 23.4098 107.006 23.1928 108.24 23.184C108.981 23.184 109.652 23.2067 110.252 23.252C110.852 23.2973 111.374 23.3517 111.818 23.415C112.263 23.4777 112.63 23.5377 112.918 23.595C113.117 23.6301 113.315 23.6759 113.509 23.7321C113.523 23.7333 113.538 23.7374 113.55 23.7441C113.563 23.7509 113.575 23.76 113.584 23.7712C113.593 23.7823 113.6 23.7953 113.605 23.8091C113.609 23.823 113.61 23.8376 113.609 23.8521L113.746 26.317C113.749 26.3356 113.747 26.3547 113.741 26.3725C113.735 26.3903 113.725 26.4065 113.712 26.4198C113.699 26.4331 113.682 26.4432 113.664 26.4491C113.647 26.455 113.628 26.4567 113.609 26.454C113.585 26.457 113.56 26.4509 113.54 26.437C112.887 26.1549 112.203 25.9483 111.503 25.821C110.425 25.6208 109.329 25.529 108.233 25.5471C107.456 25.5433 106.683 25.6442 105.933 25.847C105.253 26.0268 104.608 26.3191 104.024 26.712C103.494 27.0697 103.05 27.5403 102.724 28.09C102.4 28.6485 102.235 29.2846 102.245 29.9301C102.235 30.402 102.341 30.8692 102.553 31.291C102.756 31.6819 103.032 32.0305 103.366 32.3181C103.711 32.6144 104.098 32.8593 104.513 33.045C104.941 33.2395 105.385 33.3971 105.84 33.5161C106.281 33.6332 106.731 33.7191 107.184 33.773C107.579 33.8216 107.976 33.8473 108.374 33.85C108.801 33.8515 109.227 33.8201 109.649 33.756C110.03 33.6987 110.408 33.6185 110.779 33.5161C111.127 33.4194 111.441 33.3167 111.72 33.208C111.999 33.0993 112.236 32.9994 112.431 32.908C112.463 32.8927 112.489 32.8683 112.507 32.8378C112.525 32.8074 112.533 32.7723 112.531 32.7371V31.0081C112.534 30.9894 112.532 30.9704 112.526 30.9526C112.52 30.9347 112.51 30.9185 112.497 30.9052C112.484 30.8919 112.467 30.8819 112.45 30.876C112.432 30.87 112.413 30.8684 112.394 30.871H107.07C107.051 30.8737 107.032 30.872 107.015 30.8661C106.997 30.8602 106.981 30.8502 106.967 30.8369C106.954 30.8236 106.944 30.8073 106.938 30.7895C106.932 30.7716 106.93 30.7526 106.933 30.734V28.662C106.93 28.6434 106.932 28.6244 106.938 28.6066C106.944 28.5887 106.954 28.5726 106.967 28.5593C106.981 28.546 106.997 28.5359 107.015 28.53C107.032 28.524 107.051 28.5223 107.07 28.525H114.757C114.776 28.5223 114.795 28.524 114.812 28.53C114.83 28.5359 114.847 28.546 114.86 28.5593C114.873 28.5726 114.883 28.5887 114.889 28.6066C114.895 28.6244 114.897 28.6434 114.894 28.662V34.072C114.892 34.1048 114.883 34.1369 114.868 34.1663C114.854 34.1956 114.833 34.2217 114.808 34.243C114.682 34.323 114.434 34.4714 114.063 34.688C113.613 34.9419 113.145 35.1622 112.663 35.347C112.033 35.592 111.386 35.7925 110.728 35.947C109.957 36.1283 109.168 36.2176 108.376 36.213V36.213Z" fill="#606060"/>
<path d="M117.758 35.939C117.742 35.9414 117.725 35.9398 117.71 35.9346C117.694 35.9294 117.68 35.9207 117.668 35.9091C117.656 35.8974 117.648 35.8832 117.642 35.8676C117.637 35.8519 117.636 35.8353 117.638 35.819V23.578C117.636 23.5617 117.637 23.5451 117.642 23.5295C117.648 23.5139 117.656 23.4996 117.668 23.488C117.68 23.4763 117.694 23.4676 117.71 23.4624C117.725 23.4572 117.742 23.4557 117.758 23.458H119.879C119.895 23.4557 119.912 23.4572 119.928 23.4624C119.943 23.4676 119.957 23.4763 119.969 23.488C119.981 23.4996 119.99 23.5139 119.995 23.5295C120 23.5451 120.001 23.5617 119.999 23.578V35.819C120.001 35.8353 120 35.8519 119.995 35.8676C119.99 35.8832 119.981 35.8974 119.969 35.9091C119.957 35.9207 119.943 35.9294 119.928 35.9346C119.912 35.9398 119.895 35.9414 119.879 35.939H117.758Z" fill="#606060"/>
<path d="M65.1381 44.672C64.7481 44.6743 64.3583 44.6519 63.9711 44.605C63.6251 44.561 63.3251 44.5107 63.0711 44.454C62.8684 44.4107 62.6681 44.3566 62.4711 44.292C62.3211 44.24 62.2251 44.205 62.1801 44.185C62.1651 44.175 62.1581 44.166 62.1581 44.156L62.0471 43.0221C62.0471 42.9881 62.0591 42.9701 62.0841 42.9701C62.0876 42.9688 62.0915 42.9688 62.0951 42.9701C62.0968 42.9708 62.0987 42.9712 62.1006 42.9712C62.1025 42.9712 62.1044 42.9708 62.1061 42.9701C62.1728 43.0094 62.2881 43.067 62.4521 43.143C62.6547 43.2337 62.864 43.3086 63.0781 43.367C63.3739 43.4513 63.6745 43.5181 63.9781 43.5671C64.3628 43.6268 64.7518 43.6552 65.1411 43.652C65.5918 43.6692 66.0418 43.6056 66.4701 43.464C66.7914 43.3387 66.9521 43.172 66.9521 42.964C66.9494 42.9224 66.9373 42.882 66.9169 42.8457C66.8965 42.8093 66.8682 42.778 66.8341 42.7541C66.7218 42.6713 66.5944 42.6111 66.4591 42.5771C66.2447 42.5174 66.0256 42.4765 65.8041 42.4551C65.4835 42.4229 65.1613 42.4082 64.8391 42.4111C64.4373 42.4168 64.0357 42.3874 63.6391 42.323C63.3587 42.2774 63.0846 42.1996 62.8221 42.091C62.6336 42.0143 62.4594 41.9061 62.3071 41.771C62.194 41.6689 62.0993 41.5482 62.0271 41.414C61.9702 41.3072 61.9317 41.1916 61.9131 41.0721C61.9 40.9843 61.8926 40.8958 61.8911 40.807C61.879 40.494 61.9826 40.1875 62.1821 39.946C62.3865 39.7127 62.6422 39.5299 62.9291 39.412C63.2577 39.2754 63.6031 39.1836 63.9561 39.139C64.3279 39.0882 64.7028 39.0625 65.0781 39.0621C65.3849 39.06 65.6914 39.0808 65.9951 39.1241C66.2724 39.1661 66.5168 39.214 66.7281 39.268C66.9027 39.3107 67.0746 39.3635 67.2431 39.4261C67.3764 39.4774 67.4624 39.5131 67.5011 39.5331C67.5161 39.5331 67.5231 39.543 67.5231 39.563L67.5971 40.6631C67.6071 40.6931 67.5971 40.7071 67.5601 40.7071C67.5583 40.7078 67.5565 40.7082 67.5546 40.7082C67.5527 40.7082 67.5508 40.7078 67.5491 40.7071C67.5456 40.7058 67.5417 40.7058 67.5381 40.7071C67.418 40.6373 67.2938 40.5748 67.1661 40.5201C66.9831 40.441 66.795 40.3742 66.6031 40.32C66.3698 40.2522 66.1327 40.1982 65.8931 40.1581C65.6241 40.1129 65.3518 40.0908 65.0791 40.092C64.7047 40.0861 64.3305 40.1109 63.9601 40.1661C63.7326 40.1989 63.5099 40.2593 63.2971 40.3461C63.1719 40.3923 63.063 40.4744 62.9841 40.5821C62.9373 40.6533 62.9106 40.7359 62.9071 40.821C62.9071 41.027 63.0788 41.1767 63.4221 41.2701C63.8853 41.3763 64.3601 41.4234 64.8351 41.4101C65.0164 41.4101 65.2201 41.4147 65.4461 41.4241C65.6779 41.4345 65.9089 41.4579 66.1381 41.4941C66.3722 41.5305 66.6034 41.5832 66.8301 41.652C67.0432 41.7156 67.2455 41.8111 67.4301 41.935C67.6028 42.0509 67.7484 42.2027 67.8571 42.38C67.969 42.5718 68.0251 42.7911 68.0191 43.013C68.0158 43.0934 68.0058 43.1734 67.9891 43.2521C67.9639 43.3723 67.9204 43.488 67.8601 43.5951C67.7815 43.7334 67.6835 43.8597 67.5691 43.9701C67.4188 44.1136 67.2462 44.2318 67.0581 44.32C66.8058 44.4385 66.5398 44.5252 66.2661 44.578C65.8943 44.6477 65.5163 44.6792 65.1381 44.672V44.672Z" fill="#606060"/>
<path d="M72.2431 44.672C71.9978 44.6702 71.7533 44.6417 71.5141 44.587C71.2551 44.5293 71.0022 44.4466 70.7591 44.3401C70.5094 44.2313 70.2715 44.0972 70.0491 43.94C69.8252 43.7838 69.6234 43.5981 69.4491 43.388C69.2775 43.1801 69.1395 42.9466 69.0401 42.696C68.9374 42.4322 68.8862 42.1511 68.8891 41.868C68.8778 41.2792 69.0807 40.7064 69.4601 40.256C69.6337 40.0504 69.8357 39.8706 70.0601 39.722C70.2827 39.5739 70.5208 39.4505 70.7701 39.354C71.0133 39.2595 71.2646 39.1879 71.5211 39.14C71.7578 39.0951 71.9981 39.0716 72.2391 39.07C72.6244 39.0732 73.0075 39.1301 73.3771 39.239C73.7654 39.3487 74.1325 39.5228 74.4631 39.7541C74.7918 39.985 75.0687 40.282 75.2761 40.626C75.4963 41.0018 75.6071 41.4316 75.5961 41.867C75.6009 42.2619 75.514 42.6525 75.3421 43.008C75.1729 43.3511 74.9318 43.6536 74.6351 43.8951C74.3189 44.1504 73.9581 44.345 73.5711 44.469C73.1421 44.6072 72.6938 44.6757 72.2431 44.672ZM72.2431 40.0851C71.9346 40.0827 71.6276 40.1299 71.3341 40.225C71.0675 40.31 70.8174 40.4395 70.5941 40.6081C70.3908 40.7613 70.2207 40.9542 70.0941 41.175C69.9728 41.3854 69.9094 41.6242 69.9101 41.867C69.909 42.1125 69.9725 42.3539 70.0941 42.567C70.22 42.7895 70.3902 42.9838 70.5941 43.138C70.8174 43.3066 71.0676 43.436 71.3341 43.521C71.9257 43.7078 72.5605 43.7078 73.1521 43.521C73.4196 43.4355 73.671 43.306 73.8961 43.138C74.1004 42.9843 74.2706 42.7899 74.3961 42.567C74.5177 42.3539 74.5812 42.1125 74.5801 41.867C74.5808 41.6242 74.5173 41.3854 74.3961 41.175C74.2699 40.9538 74.0997 40.7609 73.8961 40.6081C73.671 40.44 73.4196 40.3105 73.1521 40.225C72.8586 40.1299 72.5517 40.0827 72.2431 40.0851Z" fill="#606060"/>
<path d="M76.829 44.554C76.8201 44.5552 76.811 44.5543 76.8025 44.5513C76.794 44.5484 76.7862 44.5436 76.7798 44.5373C76.7735 44.5309 76.7686 44.5231 76.7657 44.5146C76.7628 44.5061 76.7619 44.497 76.7631 44.4881V39.253C76.7619 39.2441 76.7628 39.235 76.7657 39.2265C76.7686 39.2179 76.7735 39.2102 76.7798 39.2038C76.7862 39.1974 76.794 39.1926 76.8025 39.1897C76.811 39.1868 76.8201 39.1859 76.829 39.187H77.712C77.721 39.1859 77.73 39.1868 77.7386 39.1897C77.7471 39.1926 77.7548 39.1974 77.7612 39.2038C77.7676 39.2102 77.7724 39.2179 77.7753 39.2265C77.7782 39.235 77.7791 39.2441 77.778 39.253V43.472C77.7769 43.4809 77.7778 43.49 77.7807 43.4986C77.7836 43.5071 77.7885 43.5148 77.7948 43.5212C77.8012 43.5276 77.809 43.5324 77.8175 43.5354C77.826 43.5383 77.8351 43.5392 77.844 43.538H82.011C82.0504 43.538 82.065 43.5577 82.055 43.597L81.76 44.524C81.7566 44.5329 81.7505 44.5405 81.7427 44.5459C81.7348 44.5512 81.7256 44.5541 81.7161 44.554H76.829Z" fill="#606060"/>
<path d="M83.028 39.1871H83.8671C83.8904 39.1871 83.9127 39.1963 83.9293 39.2128C83.9458 39.2293 83.955 39.2517 83.955 39.2751V41.9841C83.9459 42.2558 84.0094 42.5251 84.139 42.7641C84.2564 42.9694 84.4188 43.1455 84.614 43.279C84.8154 43.4149 85.0402 43.5122 85.277 43.5661C85.7681 43.684 86.28 43.684 86.771 43.5661C87.0079 43.5123 87.2327 43.4149 87.434 43.279C87.6291 43.1453 87.7915 42.9693 87.9091 42.7641C88.0386 42.525 88.102 42.2558 88.093 41.9841V39.2751C88.0913 39.2631 88.0925 39.2509 88.0963 39.2395C88.1001 39.228 88.1066 39.2177 88.1151 39.2091C88.1236 39.2006 88.1341 39.1942 88.1455 39.1903C88.1569 39.1865 88.1691 39.1854 88.181 39.1871H89.02C89.032 39.1854 89.0442 39.1865 89.0556 39.1903C89.067 39.1942 89.0774 39.2006 89.0859 39.2091C89.0945 39.2177 89.1009 39.228 89.1047 39.2395C89.1086 39.2509 89.1097 39.2631 89.108 39.2751V41.9841C89.1136 42.3627 89.0368 42.738 88.883 43.084C88.7369 43.4084 88.5223 43.6974 88.254 43.9311C87.9688 44.1755 87.6386 44.3619 87.282 44.48C86.4615 44.7403 85.5805 44.7403 84.76 44.48C84.4023 44.3625 84.071 44.176 83.785 43.9311C83.5169 43.698 83.3032 43.4088 83.1591 43.084C83.0078 42.7373 82.9325 42.3623 82.938 41.9841V39.2751C82.9363 39.2629 82.9375 39.2505 82.9414 39.2389C82.9453 39.2273 82.9519 39.2168 82.9607 39.2082C82.9695 39.1997 82.9801 39.1933 82.9918 39.1896C83.0035 39.1859 83.0159 39.185 83.028 39.1871V39.1871Z" fill="#606060"/>
<path d="M89.993 40.063L90.293 39.2021C90.2927 39.2 90.2928 39.1979 90.2934 39.1959C90.2941 39.1939 90.2952 39.1921 90.2967 39.1906C90.2981 39.1892 90.2999 39.1881 90.3019 39.1875C90.3039 39.1868 90.306 39.1867 90.308 39.187H95.9081C95.91 39.1869 95.912 39.1871 95.9139 39.1878C95.9157 39.1885 95.9173 39.1897 95.9187 39.1911C95.92 39.1926 95.921 39.1943 95.9216 39.1962C95.9222 39.1981 95.9224 39.2001 95.922 39.2021L96.2391 40.063C96.2394 40.066 96.239 40.069 96.238 40.0718C96.237 40.0746 96.2354 40.0772 96.2333 40.0793C96.2312 40.0814 96.2286 40.083 96.2258 40.084C96.223 40.085 96.22 40.0854 96.217 40.0851H93.641C93.6381 40.0847 93.6351 40.0851 93.6322 40.0861C93.6294 40.0871 93.6269 40.0887 93.6248 40.0908C93.6227 40.0929 93.621 40.0954 93.62 40.0982C93.619 40.1011 93.6188 40.1041 93.6191 40.107V44.5071C93.6191 44.5361 93.607 44.5511 93.582 44.5511H92.647C92.623 44.5511 92.61 44.5361 92.61 44.5071V40.107C92.6106 40.104 92.6103 40.101 92.6094 40.0981C92.6085 40.0951 92.6069 40.0925 92.6048 40.0903C92.6026 40.0881 92.5999 40.0866 92.597 40.0857C92.5941 40.0847 92.5911 40.0845 92.5881 40.0851H90.011C90.0084 40.0848 90.0059 40.084 90.0035 40.0828C90.0012 40.0816 89.9991 40.0798 89.9974 40.0778C89.9957 40.0757 89.9945 40.0734 89.9938 40.0708C89.993 40.0683 89.9928 40.0656 89.993 40.063V40.063Z" fill="#606060"/>
<path d="M97.111 44.5541C97.1041 44.5549 97.097 44.5541 97.0904 44.5517C97.0837 44.5494 97.0777 44.5456 97.0728 44.5406C97.0678 44.5356 97.0641 44.5295 97.0619 44.5228C97.0597 44.5161 97.0591 44.509 97.0601 44.5021V39.235C97.0591 39.2281 97.0597 39.221 97.0619 39.2143C97.0641 39.2077 97.0678 39.2015 97.0728 39.1965C97.0777 39.1915 97.0837 39.1877 97.0904 39.1854C97.097 39.183 97.1041 39.1822 97.111 39.183H98.0241C98.0311 39.182 98.0383 39.1827 98.0451 39.185C98.0518 39.1872 98.058 39.1911 98.063 39.1961C98.0681 39.2011 98.0719 39.2073 98.0741 39.214C98.0764 39.2208 98.0771 39.228 98.0761 39.235V44.4991C98.0771 44.5061 98.0764 44.5133 98.0741 44.5201C98.0719 44.5268 98.0681 44.533 98.063 44.538C98.058 44.5431 98.0518 44.5469 98.0451 44.5491C98.0383 44.5514 98.0311 44.5521 98.0241 44.5511L97.111 44.5541Z" fill="#606060"/>
<path d="M102.589 44.672C102.344 44.6702 102.099 44.6417 101.86 44.587C101.601 44.5292 101.348 44.4466 101.105 44.3401C100.855 44.2313 100.617 44.0972 100.394 43.94C100.17 43.7837 99.9685 43.598 99.7941 43.388C99.6228 43.18 99.4851 42.9465 99.386 42.696C99.2832 42.4322 99.232 42.1511 99.235 41.868C99.2308 41.561 99.2834 41.2559 99.3901 40.968C99.4879 40.7097 99.6285 40.4697 99.806 40.258C99.9796 40.0524 100.182 39.8725 100.406 39.724C100.629 39.5759 100.867 39.4525 101.117 39.356C101.36 39.2615 101.612 39.1899 101.868 39.1421C102.105 39.0971 102.345 39.0736 102.586 39.0721C102.971 39.0753 103.354 39.1321 103.723 39.2411C104.111 39.3507 104.478 39.5247 104.809 39.756C105.138 39.9868 105.415 40.2838 105.623 40.628C105.843 41.0038 105.954 41.4337 105.943 41.869C105.948 42.2639 105.861 42.6545 105.689 43.01C105.52 43.3531 105.279 43.6557 104.982 43.8971C104.666 44.1523 104.305 44.3469 103.918 44.471C103.489 44.6086 103.04 44.6765 102.589 44.672V44.672ZM102.589 40.0851C102.28 40.0827 101.974 40.13 101.68 40.225C101.414 40.31 101.163 40.4396 100.94 40.6081C100.737 40.7614 100.567 40.9542 100.44 41.175C100.319 41.3854 100.255 41.6242 100.256 41.867C100.255 42.1125 100.318 42.3539 100.44 42.567C100.566 42.7895 100.736 42.9838 100.94 43.138C101.163 43.3065 101.414 43.436 101.68 43.521C102.272 43.7078 102.907 43.7078 103.499 43.521C103.767 43.4354 104.018 43.306 104.243 43.138C104.447 42.9841 104.617 42.7898 104.743 42.567C104.865 42.3539 104.928 42.1125 104.927 41.867C104.928 41.6242 104.864 41.3855 104.743 41.175C104.617 40.9539 104.447 40.7611 104.243 40.6081C104.018 40.4401 103.767 40.3106 103.499 40.225C103.205 40.1299 102.898 40.0827 102.589 40.0851V40.0851Z" fill="#606060"/>
<path d="M107.184 39.1941H107.928C107.958 39.1941 107.975 39.201 107.98 39.216L111.78 42.9051C111.783 42.9076 111.787 42.9095 111.79 42.9107C111.794 42.9119 111.798 42.9124 111.802 42.912C111.805 42.9125 111.808 42.9124 111.811 42.9115C111.814 42.9106 111.817 42.9089 111.819 42.9068C111.821 42.9046 111.823 42.9019 111.823 42.899C111.824 42.8961 111.825 42.8931 111.824 42.89L111.817 39.26C111.816 39.25 111.816 39.2397 111.82 39.23C111.823 39.2203 111.828 39.2115 111.835 39.2043C111.843 39.1971 111.851 39.1918 111.861 39.1886C111.871 39.1854 111.881 39.1845 111.891 39.1861H112.76C112.77 39.1845 112.78 39.1854 112.79 39.1886C112.8 39.1918 112.809 39.1971 112.816 39.2043C112.823 39.2115 112.828 39.2203 112.832 39.23C112.835 39.2397 112.836 39.25 112.834 39.26L112.841 44.4731C112.843 44.484 112.842 44.4952 112.838 44.5057C112.834 44.5162 112.828 44.5258 112.821 44.5336C112.813 44.5414 112.803 44.5474 112.793 44.5509C112.782 44.5545 112.771 44.5555 112.76 44.5541H112.053C112.043 44.555 112.034 44.5535 112.025 44.5497C112.016 44.5458 112.008 44.5397 112.002 44.532L108.166 40.807C108.156 40.797 108.148 40.795 108.14 40.8C108.137 40.8024 108.134 40.8058 108.132 40.8096C108.13 40.8135 108.129 40.8178 108.129 40.8221V44.4811C108.129 44.5304 108.102 44.555 108.048 44.555H107.184C107.174 44.5566 107.164 44.5557 107.154 44.5525C107.144 44.5493 107.136 44.5439 107.128 44.5367C107.121 44.5295 107.116 44.5208 107.113 44.5111C107.109 44.5014 107.109 44.4911 107.11 44.4811V39.268C107.109 39.258 107.109 39.2477 107.113 39.238C107.116 39.2283 107.121 39.2196 107.128 39.2124C107.136 39.2052 107.144 39.1997 107.154 39.1966C107.164 39.1934 107.174 39.1925 107.184 39.1941V39.1941Z" fill="#606060"/>
<path d="M117.11 44.672C116.72 44.6744 116.33 44.652 115.943 44.605C115.597 44.561 115.297 44.5107 115.043 44.454C114.84 44.4107 114.64 44.3566 114.443 44.292C114.293 44.24 114.196 44.205 114.152 44.185C114.137 44.175 114.13 44.166 114.13 44.156L114.02 43.0221C114.02 42.9881 114.032 42.9701 114.057 42.9701C114.061 42.9689 114.065 42.9689 114.068 42.9701C114.072 42.9715 114.076 42.9715 114.079 42.9701C114.146 43.0094 114.261 43.067 114.425 43.143C114.628 43.2337 114.837 43.3086 115.051 43.367C115.347 43.4513 115.647 43.5181 115.951 43.5671C116.336 43.6268 116.725 43.6552 117.114 43.652C117.565 43.6692 118.015 43.6056 118.443 43.464C118.764 43.3387 118.925 43.172 118.925 42.964C118.922 42.9224 118.91 42.882 118.89 42.8457C118.87 42.8093 118.841 42.778 118.807 42.7541C118.695 42.6713 118.567 42.6111 118.432 42.5771C118.218 42.5173 117.999 42.4765 117.777 42.4551C117.457 42.4229 117.135 42.4082 116.813 42.4111C116.411 42.4168 116.01 42.3874 115.613 42.323C115.333 42.2774 115.059 42.1996 114.796 42.091C114.608 42.0143 114.433 41.9061 114.281 41.771C114.168 41.6689 114.073 41.5481 114.001 41.414C113.944 41.3072 113.906 41.1916 113.887 41.0721C113.874 40.9843 113.867 40.8958 113.865 40.807C113.853 40.494 113.957 40.1875 114.156 39.946C114.36 39.7125 114.616 39.5297 114.903 39.412C115.232 39.2754 115.577 39.1835 115.93 39.139C116.302 39.0881 116.677 39.0625 117.053 39.0621C117.36 39.06 117.666 39.0808 117.97 39.1241C118.247 39.1661 118.492 39.214 118.703 39.268C118.878 39.3107 119.05 39.3635 119.219 39.4261C119.352 39.4774 119.438 39.5131 119.477 39.5331C119.492 39.5331 119.499 39.543 119.499 39.563L119.573 40.6631C119.583 40.6931 119.573 40.7071 119.536 40.7071C119.533 40.7085 119.529 40.7085 119.525 40.7071C119.522 40.7057 119.518 40.7057 119.514 40.7071C119.394 40.6373 119.27 40.5748 119.142 40.5201C118.959 40.4411 118.771 40.3742 118.579 40.3201C118.345 40.2522 118.108 40.1981 117.868 40.1581C117.599 40.1129 117.327 40.0908 117.054 40.092C116.68 40.0861 116.305 40.1109 115.935 40.1661C115.708 40.1989 115.485 40.2593 115.272 40.3461C115.147 40.3922 115.038 40.4743 114.959 40.5821C114.912 40.6533 114.886 40.7359 114.882 40.821C114.882 41.027 115.054 41.1767 115.397 41.2701C115.861 41.3764 116.336 41.4234 116.811 41.4101C116.992 41.4101 117.196 41.4147 117.422 41.4241C117.654 41.4345 117.885 41.4579 118.114 41.4941C118.348 41.5305 118.579 41.5832 118.806 41.652C119.019 41.7157 119.221 41.8112 119.406 41.935C119.579 42.0511 119.724 42.2028 119.833 42.38C119.945 42.5718 120.001 42.7911 119.995 43.013C119.992 43.0934 119.982 43.1733 119.966 43.2521C119.941 43.3723 119.897 43.488 119.837 43.5951C119.758 43.7333 119.66 43.8596 119.546 43.9701C119.396 44.1138 119.223 44.232 119.034 44.3201C118.782 44.4385 118.516 44.5252 118.243 44.578C117.87 44.648 117.49 44.6795 117.11 44.672V44.672Z" fill="#606060"/>
</svg>
