<svg width="182" height="102" viewBox="0 0 182 102" fill="none" xmlns="http://www.w3.org/2000/svg">
<path d="M68.8959 46.0292C67.7381 45.7439 66.5319 45.7156 65.3619 45.9461C64.4009 46.0591 61.4359 46.4341 60.6689 46.5461C54.7959 47.3531 48.941 48.2881 43.097 49.2851C41.057 49.6121 38.7649 50.0062 36.3849 50.4272C36.2089 46.3452 35.9139 42.2682 35.5469 38.1982C37.6259 36.7472 39.7149 35.3112 41.8279 33.9092C43.9409 32.5412 45.9769 30.9251 48.3499 30.0371C45.9341 30.435 43.5753 31.1236 41.3249 32.0881C39.2669 32.8461 37.2249 33.6521 35.1949 34.4791C35.0663 33.1858 34.9329 31.8931 34.7949 30.6011C34.2849 26.0101 33.7439 21.4181 32.9689 16.8631C32.8319 15.6924 32.567 14.5402 32.179 13.4272C32.0789 13.2499 31.9195 13.1136 31.7289 13.0422C31.5751 12.984 31.4092 12.9651 31.2463 12.9873C31.0834 13.0094 30.9285 13.0719 30.7959 13.169C30.6632 13.2662 30.5569 13.3949 30.4865 13.5435C30.4161 13.6921 30.384 13.8559 30.3929 14.0201C30.3929 14.0531 30.4059 14.0852 30.4089 14.1202C29.8309 21.8712 28.9449 29.6082 28.4409 37.3702C27.1076 37.9702 25.7833 38.5878 24.468 39.2231C17.084 42.9741 9.36193 46.4231 2.84393 51.5961C0.684929 53.8821 0.22594 57.7651 2.50494 60.1211C6.77994 64.0271 13.2799 64.0551 18.7119 63.2801C21.7849 62.7801 25.0049 62.2331 28.2819 61.6651C28.4026 63.8098 28.5529 65.9525 28.7329 68.0931C26.9296 69.2878 25.1379 70.4995 23.3579 71.7281C15.7629 77.1151 8.01695 82.4281 1.07895 88.6481C10.1309 84.4791 19.7659 80.0602 29.4789 75.5942C29.5029 75.8102 29.5239 76.0251 29.5489 76.2411C29.8189 78.5571 30.1289 80.8682 30.4489 83.1772C31.4119 89.1562 32.2289 95.2341 34.1249 101.001C34.0729 97.5141 34.542 94.0331 34.779 90.5561C35.273 84.5641 35.7419 78.5641 36.0729 72.5561C42.9979 69.3661 49.9029 66.1741 56.6049 63.0561C59.5799 61.7141 62.5219 60.3031 65.4709 58.9081C67.6709 57.8191 70.058 56.7361 71.601 54.7651C75.432 49.2101 70.4899 46.3042 68.8959 46.0292ZM15.3959 53.9952C14.8269 54.0462 14.255 54.0731 13.684 54.0871C17.545 51.1091 22.2959 47.7872 28.1559 43.4402C28.1379 43.9672 28.1119 44.4931 28.1009 45.0201C28.0099 47.3201 27.9799 49.6291 27.9889 51.9331C22.6559 52.8901 17.838 53.7352 15.391 53.9952H15.3959ZM36.5259 60.2231C38.9259 59.8021 41.3159 59.3822 43.6679 58.9742C41.2373 60.3235 38.8373 61.7234 36.468 63.1741C36.484 62.1931 36.5079 61.2081 36.5219 60.2231H36.5259Z" fill="#009C98"/>
<path d="M30.8148 0.653076C26.2328 0.767076 26.2448 7.47904 30.8148 7.60504C35.3968 7.49204 35.3848 0.779076 30.8148 0.653076Z" fill="#FFCE00"/>
<path d="M94.3802 54.562C94.3557 54.5655 94.3307 54.5633 94.3073 54.5554C94.2838 54.5476 94.2626 54.5345 94.2451 54.517C94.2276 54.4995 94.2144 54.4782 94.2066 54.4548C94.1988 54.4314 94.1966 54.4064 94.2001 54.382V36.021C94.1966 35.9965 94.1988 35.9716 94.2066 35.9481C94.2144 35.9247 94.2276 35.9034 94.2451 35.8859C94.2626 35.8684 94.2838 35.8553 94.3073 35.8475C94.3307 35.8397 94.3557 35.8375 94.3802 35.841H97.5641C97.5886 35.8375 97.6135 35.8397 97.637 35.8475C97.6604 35.8553 97.6817 35.8684 97.6992 35.8859C97.7167 35.9034 97.7298 35.9247 97.7376 35.9481C97.7454 35.9716 97.7476 35.9965 97.7441 36.021V54.383C97.7476 54.4074 97.7454 54.4323 97.7376 54.4558C97.7298 54.4792 97.7167 54.5006 97.6992 54.518C97.6817 54.5355 97.6604 54.5486 97.637 54.5564C97.6135 54.5642 97.5886 54.5665 97.5641 54.563L94.3802 54.562Z" fill="white"/>
<path d="M102.366 35.995C102.363 35.9741 102.365 35.9527 102.372 35.9327C102.378 35.9126 102.39 35.8944 102.405 35.8794C102.42 35.8645 102.438 35.8532 102.458 35.8465C102.478 35.8399 102.499 35.838 102.52 35.841H116.953C117.755 35.833 118.549 36.0038 119.277 36.341C119.975 36.666 120.603 37.1239 121.126 37.689C121.65 38.2564 122.067 38.9131 122.359 39.628C122.655 40.3401 122.808 41.1037 122.808 41.875C122.816 42.6073 122.674 43.3336 122.392 44.0093C122.109 44.6849 121.691 45.2956 121.164 45.804C120.635 46.3104 120.011 46.7073 119.328 46.972C118.595 47.259 117.816 47.4111 117.028 47.421C116.961 47.421 116.953 47.4466 117.002 47.498L123.294 54.354C123.311 54.3704 123.322 54.3922 123.324 54.4156C123.326 54.4391 123.32 54.4625 123.307 54.482C123.298 54.505 123.282 54.5248 123.261 54.5385C123.24 54.5522 123.216 54.5594 123.191 54.559H119.035C119.016 54.5575 118.997 54.552 118.98 54.5431C118.963 54.5341 118.947 54.5219 118.935 54.507L112.463 47.471C112.438 47.4416 112.402 47.4233 112.363 47.42H106.071C106.05 47.417 106.029 47.4189 106.009 47.4255C105.989 47.4322 105.971 47.4435 105.956 47.4584C105.941 47.4734 105.929 47.4916 105.923 47.5116C105.916 47.5317 105.914 47.553 105.917 47.574V54.379C105.92 54.3999 105.918 54.4213 105.912 54.4413C105.905 54.4614 105.894 54.4796 105.879 54.4946C105.864 54.5095 105.845 54.5208 105.825 54.5275C105.805 54.5341 105.784 54.536 105.763 54.533H102.527C102.506 54.536 102.485 54.5341 102.465 54.5275C102.445 54.5208 102.426 54.5095 102.412 54.4946C102.397 54.4796 102.385 54.4614 102.379 54.4413C102.372 54.4213 102.37 54.3999 102.373 54.379L102.366 35.995ZM106.066 43.879H116.955C117.233 43.8783 117.509 43.8392 117.776 43.763C118.044 43.689 118.297 43.5671 118.521 43.403C118.746 43.237 118.931 43.0219 119.06 42.774C119.202 42.4957 119.273 42.1864 119.266 41.874C119.268 41.5432 119.203 41.2154 119.073 40.911C118.949 40.6189 118.771 40.3531 118.547 40.128C118.329 39.9095 118.078 39.7274 117.802 39.589C117.54 39.4551 117.25 39.3849 116.955 39.384H106.064C106.043 39.3809 106.022 39.3829 106.002 39.3896C105.982 39.3962 105.963 39.4075 105.949 39.4224C105.934 39.4374 105.922 39.4556 105.916 39.4757C105.909 39.4958 105.907 39.5171 105.91 39.538V43.724C105.907 43.745 105.909 43.7664 105.915 43.7866C105.922 43.8068 105.933 43.8252 105.948 43.8403C105.963 43.8553 105.981 43.8667 106.002 43.8734C106.022 43.8801 106.043 43.8821 106.064 43.879H106.066Z" fill="white"/>
<path d="M126.253 54.2801L135.421 35.9441C135.466 35.8892 135.531 35.8535 135.601 35.8441H139.453C139.49 35.8412 139.526 35.8491 139.558 35.8669C139.59 35.8847 139.616 35.9116 139.633 35.9441L148.826 54.2801C148.843 54.3123 148.85 54.3483 148.848 54.3844C148.846 54.4205 148.834 54.4553 148.813 54.4851C148.797 54.5152 148.773 54.5404 148.743 54.558C148.714 54.5756 148.68 54.585 148.646 54.5851H145.128C145.088 54.5865 145.049 54.5747 145.017 54.5516C144.984 54.5284 144.96 54.4953 144.948 54.4571L143.407 51.3751C143.391 51.3424 143.365 51.3154 143.332 51.2976C143.3 51.2798 143.264 51.2719 143.227 51.2751H131.827C131.794 51.2745 131.762 51.2837 131.735 51.3016C131.707 51.3194 131.686 51.345 131.673 51.3751L130.132 54.4571C130.116 54.4927 130.091 54.5233 130.06 54.5459C130.028 54.5684 129.991 54.582 129.952 54.5851H126.433C126.397 54.5884 126.36 54.5807 126.328 54.5628C126.296 54.545 126.27 54.5179 126.253 54.4851C126.236 54.4536 126.227 54.4184 126.227 54.3826C126.227 54.3468 126.236 54.3117 126.253 54.2801V54.2801ZM133.675 47.7311H141.375C141.398 47.7321 141.421 47.7266 141.442 47.7153C141.462 47.704 141.479 47.6873 141.49 47.6671C141.503 47.6497 141.508 47.6284 141.506 47.6071C141.504 47.5858 141.493 47.5662 141.477 47.5521L137.599 39.7971C137.564 39.7111 137.522 39.7111 137.471 39.7971L133.571 47.5521C133.534 47.6711 133.568 47.7311 133.671 47.7311H133.675Z" fill="white"/>
<path d="M163.565 54.973C162.02 54.9723 160.48 54.7826 158.981 54.408C157.535 54.0611 156.156 53.48 154.898 52.688C153.711 51.9383 152.707 50.9336 151.957 49.747C151.184 48.4851 150.791 47.0266 150.827 45.547C150.807 44.4066 151.008 43.2732 151.418 42.209C151.793 41.2637 152.322 40.3871 152.984 39.615C153.635 38.8616 154.397 38.2121 155.244 37.689C156.09 37.1621 156.99 36.7262 157.928 36.389C159.672 35.7647 161.508 35.4391 163.36 35.426C164.472 35.426 165.478 35.4593 166.377 35.526C167.276 35.5927 168.059 35.674 168.726 35.77C169.393 35.8647 169.945 35.9546 170.383 36.04C170.682 36.0928 170.978 36.1616 171.269 36.246C171.291 36.2474 171.313 36.2532 171.332 36.2631C171.352 36.2729 171.37 36.2866 171.384 36.3034C171.399 36.3202 171.409 36.3397 171.416 36.3608C171.423 36.3818 171.425 36.404 171.423 36.426L171.628 40.126C171.632 40.1539 171.629 40.1823 171.621 40.209C171.612 40.2358 171.597 40.2601 171.577 40.2801C171.557 40.3001 171.533 40.3151 171.506 40.3242C171.479 40.3332 171.451 40.3359 171.423 40.332C171.388 40.3359 171.352 40.3267 171.323 40.306C170.343 39.8829 169.318 39.5729 168.267 39.382C166.652 39.0819 165.01 38.9442 163.367 38.971C162.201 38.9646 161.039 39.1156 159.913 39.42C158.893 39.6902 157.925 40.1297 157.05 40.72C156.255 41.2563 155.588 41.9622 155.098 42.787C154.612 43.6249 154.364 44.5794 154.379 45.548C154.365 46.2561 154.523 46.9571 154.841 47.59C155.146 48.1766 155.56 48.6995 156.061 49.131C156.579 49.5757 157.159 49.9432 157.782 50.222C158.424 50.5134 159.09 50.7496 159.772 50.928C160.434 51.1036 161.108 51.2323 161.788 51.313C162.38 51.386 162.976 51.4248 163.573 51.429C164.213 51.4312 164.853 51.3841 165.486 51.288C166.059 51.2021 166.627 51.0818 167.186 50.928C167.708 50.7826 168.179 50.6287 168.598 50.466C169.017 50.3033 169.373 50.1537 169.664 50.017C169.713 49.9947 169.753 49.9582 169.781 49.9124C169.808 49.8665 169.821 49.8134 169.818 49.76V47.166C169.822 47.138 169.82 47.1095 169.811 47.0826C169.802 47.0558 169.787 47.0315 169.767 47.0115C169.747 46.9915 169.722 46.9764 169.695 46.9675C169.669 46.9585 169.64 46.956 169.612 46.96H161.625C161.597 46.9642 161.569 46.9618 161.542 46.953C161.515 46.9442 161.491 46.9292 161.471 46.9093C161.45 46.8894 161.435 46.8651 161.427 46.8383C161.418 46.8115 161.415 46.783 161.419 46.755V43.648C161.415 43.62 161.418 43.5915 161.427 43.5646C161.436 43.5378 161.451 43.5135 161.471 43.4935C161.491 43.4735 161.515 43.4584 161.542 43.4495C161.569 43.4405 161.597 43.438 161.625 43.442H173.156C173.184 43.4382 173.212 43.4408 173.239 43.4498C173.266 43.4588 173.29 43.4739 173.31 43.4939C173.33 43.5139 173.345 43.5382 173.354 43.5649C173.363 43.5917 173.365 43.6201 173.361 43.648V51.763C173.358 51.8122 173.345 51.8603 173.323 51.9044C173.301 51.9486 173.27 51.9879 173.233 52.02C173.044 52.14 172.672 52.3627 172.116 52.688C171.444 53.0683 170.744 53.3986 170.023 53.676C169.079 54.0434 168.11 54.3441 167.123 54.576C165.957 54.8496 164.763 54.9829 163.565 54.973V54.973Z" fill="white"/>
<path d="M177.636 54.562C177.612 54.5655 177.587 54.5633 177.563 54.5554C177.54 54.5476 177.519 54.5345 177.501 54.517C177.484 54.4995 177.47 54.4782 177.463 54.4548C177.455 54.4314 177.453 54.4064 177.456 54.382V36.021C177.453 35.9965 177.455 35.9716 177.463 35.9481C177.47 35.9247 177.484 35.9034 177.501 35.8859C177.519 35.8684 177.54 35.8553 177.563 35.8475C177.587 35.8397 177.612 35.8375 177.636 35.841H180.82C180.845 35.8375 180.87 35.8397 180.893 35.8475C180.916 35.8553 180.938 35.8684 180.955 35.8859C180.973 35.9034 180.986 35.9247 180.994 35.9481C181.001 35.9716 181.004 35.9965 181 36.021V54.383C181.004 54.4074 181.001 54.4323 180.994 54.4558C180.986 54.4792 180.973 54.5006 180.955 54.518C180.938 54.5355 180.916 54.5486 180.893 54.5564C180.87 54.5642 180.845 54.5665 180.82 54.563L177.636 54.562Z" fill="white"/>
<path d="M98.706 67.662C98.1208 67.6656 97.536 67.6322 96.955 67.562C96.4364 67.4953 95.9874 67.42 95.608 67.336C95.3019 67.2712 94.9995 67.1901 94.702 67.093C94.477 67.015 94.332 66.962 94.266 66.933C94.244 66.918 94.233 66.904 94.233 66.889L94.067 65.189C94.067 65.137 94.085 65.112 94.122 65.112C94.1278 65.1117 94.1334 65.1134 94.138 65.117C94.1401 65.119 94.1426 65.1206 94.1454 65.1216C94.1481 65.1226 94.1511 65.1231 94.154 65.123C94.2573 65.1817 94.4304 65.268 94.673 65.382C94.9769 65.5183 95.2908 65.631 95.612 65.719C96.0549 65.8429 96.5046 65.9407 96.959 66.012C97.5363 66.1014 98.1198 66.1439 98.704 66.139C99.3798 66.1648 100.055 66.0693 100.697 65.857C101.179 65.669 101.42 65.4206 101.42 65.112C101.416 65.0496 101.398 64.9889 101.367 64.9344C101.337 64.8799 101.294 64.833 101.243 64.797C101.074 64.6729 100.883 64.5829 100.68 64.532C100.358 64.4428 100.029 64.3819 99.697 64.35C99.2162 64.3018 98.7332 64.2798 98.25 64.284C97.6489 64.292 97.0483 64.2475 96.455 64.151C96.0343 64.0826 95.6229 63.9658 95.229 63.803C94.946 63.6875 94.6846 63.5248 94.456 63.322C94.2865 63.1689 94.1444 62.988 94.036 62.787C93.9507 62.6268 93.8928 62.4534 93.865 62.274C93.8452 62.1416 93.8342 62.0079 93.832 61.874C93.8136 61.4044 93.9688 60.9444 94.268 60.582C94.5748 60.2323 94.9585 59.9584 95.389 59.782C95.882 59.5772 96.4003 59.4397 96.93 59.373C97.4881 59.2966 98.0507 59.2578 98.614 59.257C99.074 59.2543 99.5336 59.2858 99.989 59.351C100.405 59.4143 100.772 59.4863 101.089 59.567C101.351 59.6313 101.609 59.7108 101.862 59.805C102.062 59.8824 102.191 59.9357 102.248 59.965C102.27 59.965 102.281 59.98 102.281 60.009L102.391 61.654C102.406 61.698 102.391 61.72 102.336 61.72C102.333 61.7204 102.33 61.7201 102.327 61.7193C102.324 61.7184 102.321 61.717 102.319 61.715C102.315 61.7111 102.309 61.709 102.303 61.709C102.123 61.6042 101.937 61.5103 101.745 61.428C101.47 61.3095 101.188 61.2093 100.9 61.128C100.55 61.0263 100.194 60.9451 99.834 60.885C99.4309 60.817 99.0228 60.7836 98.614 60.785C98.0526 60.7758 97.4914 60.8126 96.936 60.895C96.5949 60.9445 96.2611 61.0355 95.942 61.166C95.7541 61.235 95.5907 61.3578 95.472 61.519C95.4015 61.626 95.3615 61.7501 95.356 61.878C95.356 62.1874 95.6137 62.412 96.129 62.552C96.824 62.7114 97.5363 62.782 98.249 62.762C98.5217 62.762 98.8274 62.7694 99.166 62.784C99.5137 62.7997 99.8602 62.8347 100.204 62.889C100.555 62.9436 100.902 63.0228 101.242 63.126C101.564 63.221 101.869 63.3643 102.148 63.551C102.407 63.725 102.625 63.9529 102.788 64.219C102.956 64.5069 103.04 64.8359 103.031 65.169C103.026 65.2893 103.012 65.4091 102.987 65.527C102.949 65.7072 102.884 65.8805 102.794 66.041C102.676 66.2486 102.53 66.4382 102.358 66.604C102.132 66.819 101.873 66.996 101.591 67.128C101.213 67.3057 100.814 67.4356 100.404 67.515C99.8445 67.6219 99.2755 67.6712 98.706 67.662V67.662Z" fill="white"/>
<path d="M109.363 67.6622C108.995 67.6596 108.628 67.617 108.269 67.5352C107.881 67.4486 107.501 67.3247 107.137 67.1652C106.762 67.0021 106.405 66.801 106.071 66.5651C105.737 66.3304 105.436 66.0519 105.177 65.7371C104.92 65.4252 104.713 65.075 104.564 64.6992C104.41 64.3034 104.333 63.8818 104.338 63.4572C104.32 62.5737 104.625 61.7139 105.194 61.0381C105.454 60.73 105.757 60.4607 106.094 60.2382C106.428 60.016 106.786 59.8309 107.16 59.6862C107.524 59.5444 107.901 59.437 108.286 59.3652C108.641 59.2994 109.002 59.2659 109.363 59.2651C109.941 59.2701 110.515 59.3556 111.069 59.5192C111.651 59.6838 112.202 59.9451 112.698 60.2922C113.191 60.6388 113.607 61.0846 113.918 61.6011C114.248 62.1646 114.415 62.8091 114.399 63.4622C114.406 64.0546 114.276 64.6407 114.018 65.1741C113.764 65.6885 113.403 66.1421 112.958 66.5042C112.482 66.888 111.94 67.1803 111.358 67.3661C110.713 67.5708 110.039 67.6708 109.363 67.6622V67.6622ZM109.363 60.7822C108.9 60.7786 108.439 60.8495 107.999 60.9921C107.599 61.1194 107.224 61.3135 106.889 61.5662C106.584 61.7959 106.328 62.085 106.138 62.4161C105.956 62.7318 105.861 63.0899 105.862 63.4542C105.861 63.8199 105.957 64.1794 106.138 64.4971C106.327 64.8308 106.583 65.1221 106.889 65.3531C107.224 65.6058 107.599 65.7998 107.999 65.9271C108.886 66.2072 109.838 66.2072 110.726 65.9271C111.127 65.799 111.504 65.605 111.842 65.3531C112.151 65.1233 112.408 64.8318 112.598 64.4971C112.779 64.1794 112.874 63.8199 112.874 63.4542C112.875 63.0899 112.78 62.7318 112.598 62.4161C112.407 62.084 112.15 61.7947 111.842 61.5662C111.504 61.3143 111.127 61.1203 110.726 60.9921C110.286 60.8496 109.826 60.7787 109.363 60.7822V60.7822Z" fill="white"/>
<path d="M116.242 67.4829C116.228 67.4849 116.214 67.4837 116.201 67.4794C116.188 67.4751 116.177 67.4678 116.167 67.4581C116.157 67.4484 116.15 67.4365 116.145 67.4234C116.141 67.4104 116.14 67.3965 116.142 67.3829V59.5309C116.14 59.5173 116.141 59.5035 116.145 59.4904C116.15 59.4773 116.157 59.4655 116.167 59.4557C116.177 59.446 116.188 59.4387 116.201 59.4344C116.214 59.4301 116.228 59.4289 116.242 59.4309H117.567C117.581 59.4289 117.594 59.4301 117.608 59.4344C117.621 59.4387 117.632 59.446 117.642 59.4557C117.652 59.4655 117.659 59.4773 117.663 59.4904C117.668 59.5035 117.669 59.5173 117.667 59.5309V65.8589C117.665 65.8725 117.666 65.8864 117.67 65.8995C117.675 65.9125 117.682 65.9244 117.692 65.9341C117.701 65.9438 117.713 65.9511 117.726 65.9554C117.739 65.9597 117.753 65.9609 117.767 65.9589H124.017C124.076 65.9589 124.098 65.9879 124.083 66.0479L123.641 67.4389C123.636 67.452 123.626 67.4632 123.615 67.471C123.603 67.4788 123.589 67.483 123.575 67.4829H116.242Z" fill="white"/>
<path d="M125.542 59.4351H126.801C126.819 59.435 126.836 59.4383 126.852 59.445C126.868 59.4516 126.883 59.4614 126.895 59.4738C126.908 59.4861 126.918 59.5009 126.924 59.5171C126.931 59.5333 126.934 59.5506 126.934 59.5681V63.6321C126.92 64.0398 127.016 64.4436 127.21 64.8021C127.386 65.1103 127.629 65.3746 127.922 65.5751C128.224 65.779 128.561 65.9251 128.916 66.0061C129.653 66.1831 130.421 66.1831 131.158 66.0061C131.513 65.9252 131.85 65.7791 132.152 65.5751C132.445 65.3745 132.689 65.1102 132.865 64.8021C133.059 64.4435 133.154 64.0397 133.141 63.6321V59.5681C133.138 59.55 133.14 59.5315 133.146 59.5142C133.151 59.4968 133.161 59.481 133.174 59.4681C133.187 59.4552 133.203 59.4454 133.22 59.4397C133.237 59.434 133.256 59.4324 133.274 59.4351H134.533C134.551 59.4324 134.57 59.434 134.587 59.4397C134.604 59.4454 134.62 59.4552 134.633 59.4681C134.646 59.481 134.656 59.4968 134.661 59.5142C134.667 59.5315 134.669 59.55 134.666 59.5681V63.6321C134.674 64.1984 134.559 64.7595 134.329 65.2771C134.11 65.7636 133.788 66.1968 133.385 66.5471C132.957 66.9136 132.462 67.1931 131.927 67.3701C130.696 67.7605 129.375 67.7605 128.144 67.3701C127.607 67.194 127.11 66.9144 126.681 66.5471C126.279 66.1976 125.958 65.7641 125.742 65.2771C125.516 64.7585 125.403 64.1978 125.411 63.6321V59.5681C125.408 59.5502 125.41 59.532 125.416 59.5148C125.421 59.4976 125.431 59.4819 125.443 59.469C125.456 59.4561 125.472 59.4464 125.489 59.4405C125.506 59.4346 125.524 59.4328 125.542 59.4351Z" fill="white"/>
<path d="M135.988 60.749L136.441 59.4569C136.441 59.4539 136.441 59.451 136.442 59.4482C136.443 59.4454 136.445 59.4428 136.447 59.4407C136.449 59.4386 136.451 59.437 136.454 59.436C136.457 59.435 136.46 59.4346 136.463 59.4349H144.863C144.866 59.4346 144.869 59.435 144.872 59.436C144.875 59.437 144.877 59.4386 144.879 59.4407C144.881 59.4428 144.883 59.4454 144.884 59.4482C144.885 59.451 144.885 59.4539 144.885 59.4569L145.36 60.749C145.36 60.7535 145.36 60.7581 145.358 60.7624C145.357 60.7667 145.354 60.7705 145.351 60.7737C145.348 60.7769 145.344 60.7793 145.339 60.7808C145.335 60.7822 145.331 60.7825 145.326 60.7819H141.461C141.456 60.7811 141.452 60.7813 141.447 60.7826C141.443 60.784 141.439 60.7864 141.435 60.7896C141.432 60.7928 141.43 60.7969 141.428 60.8013C141.427 60.8057 141.426 60.8103 141.427 60.8149V67.4149C141.427 67.4589 141.409 67.4809 141.372 67.4809H139.972C139.935 67.4809 139.917 67.4589 139.917 67.4149V60.8149C139.918 60.8104 139.917 60.8059 139.916 60.8016C139.914 60.7973 139.912 60.7933 139.909 60.7901C139.906 60.7869 139.902 60.7845 139.897 60.7831C139.893 60.7817 139.888 60.7812 139.884 60.7819H136.021C136.017 60.7826 136.012 60.7822 136.008 60.7808C136.003 60.7794 135.999 60.7769 135.996 60.7737C135.993 60.7705 135.991 60.7666 135.989 60.7623C135.988 60.758 135.987 60.7534 135.988 60.749Z" fill="white"/>
<path d="M146.667 67.483C146.656 67.4845 146.646 67.4835 146.636 67.4802C146.626 67.4769 146.617 67.4712 146.609 67.4637C146.602 67.4563 146.596 67.4471 146.593 67.4371C146.589 67.4271 146.588 67.4165 146.59 67.406V59.506C146.588 59.4954 146.589 59.4846 146.592 59.4745C146.596 59.4643 146.601 59.4551 146.609 59.4475C146.616 59.4399 146.625 59.4342 146.635 59.4308C146.646 59.4274 146.656 59.4264 146.667 59.428H148.036C148.047 59.4265 148.057 59.4274 148.068 59.4308C148.078 59.4342 148.087 59.4399 148.094 59.4475C148.102 59.4551 148.108 59.4643 148.111 59.4745C148.114 59.4846 148.115 59.4954 148.114 59.506V67.406C148.115 67.4165 148.114 67.4272 148.111 67.4372C148.107 67.4472 148.102 67.4563 148.094 67.4637C148.086 67.4712 148.077 67.4768 148.067 67.4801C148.057 67.4835 148.046 67.4844 148.036 67.483H146.667Z" fill="white"/>
<path d="M154.883 67.6622C154.515 67.6596 154.149 67.617 153.79 67.5352C153.402 67.4486 153.022 67.3247 152.658 67.1652C152.283 67.0019 151.926 66.8009 151.592 66.5651C151.258 66.3302 150.958 66.0517 150.698 65.7371C150.441 65.4251 150.235 65.0749 150.086 64.6992C149.932 64.3035 149.855 63.8819 149.859 63.4572C149.852 62.9957 149.931 62.5369 150.091 62.1041C150.238 61.7163 150.449 61.356 150.715 61.0381C150.975 60.73 151.278 60.4606 151.615 60.2382C151.949 60.016 152.307 59.8309 152.681 59.6862C153.046 59.5445 153.422 59.437 153.807 59.3652C154.162 59.2994 154.523 59.2659 154.884 59.2651C155.462 59.27 156.036 59.3556 156.59 59.5192C157.172 59.6837 157.723 59.945 158.219 60.2922C158.712 60.6388 159.128 61.0846 159.439 61.6011C159.769 62.1646 159.936 62.8091 159.92 63.4622C159.928 64.0547 159.797 64.6408 159.539 65.1741C159.285 65.6885 158.924 66.1422 158.479 66.5042C158.003 66.8879 157.461 67.1801 156.879 67.3661C156.234 67.5709 155.56 67.6709 154.883 67.6622ZM154.883 60.7822C154.42 60.7787 153.959 60.8495 153.519 60.9921C153.12 61.1196 152.745 61.3137 152.41 61.5662C152.105 61.7959 151.849 62.085 151.659 62.4161C151.477 62.7318 151.382 63.0899 151.383 63.4542C151.383 63.8199 151.478 64.1794 151.659 64.4971C151.848 64.8307 152.104 65.1221 152.41 65.3531C152.745 65.6056 153.12 65.7997 153.519 65.9271C154.407 66.2073 155.359 66.2073 156.247 65.9271C156.648 65.7987 157.025 65.6048 157.362 65.3531C157.67 65.1231 157.928 64.8316 158.118 64.4971C158.299 64.1794 158.394 63.8199 158.394 63.4542C158.395 63.0899 158.3 62.7318 158.118 62.4161C157.927 62.0841 157.669 61.7948 157.362 61.5662C157.025 61.3145 156.648 61.1205 156.247 60.9921C155.806 60.8496 155.346 60.7787 154.883 60.7822V60.7822Z" fill="white"/>
<path d="M161.773 59.4461H162.888C162.932 59.4461 162.958 59.4571 162.966 59.4791L168.666 65.0122C168.671 65.0161 168.676 65.0191 168.681 65.0209C168.687 65.0228 168.693 65.0236 168.699 65.0231C168.704 65.0238 168.708 65.0234 168.712 65.022C168.717 65.0206 168.721 65.0182 168.724 65.015C168.727 65.0118 168.729 65.0078 168.731 65.0035C168.732 64.9992 168.733 64.9946 168.732 64.9901L168.721 59.5451C168.719 59.5303 168.721 59.5153 168.726 59.5012C168.731 59.4872 168.739 59.4744 168.75 59.4639C168.76 59.4533 168.773 59.4452 168.787 59.4403C168.801 59.4353 168.816 59.4336 168.831 59.4351H170.131C170.146 59.4336 170.161 59.4353 170.175 59.4403C170.189 59.4452 170.202 59.4533 170.212 59.4639C170.223 59.4744 170.231 59.4872 170.236 59.5012C170.241 59.5153 170.243 59.5303 170.241 59.5451L170.252 67.3642C170.255 67.3807 170.253 67.3975 170.248 67.4134C170.243 67.4293 170.234 67.4437 170.222 67.4556C170.21 67.4674 170.196 67.4763 170.18 67.4816C170.164 67.487 170.148 67.4885 170.131 67.4862H169.071C169.056 67.4878 169.042 67.4855 169.028 67.4798C169.015 67.474 169.003 67.4648 168.994 67.4531L163.24 61.8651C163.225 61.8501 163.212 61.8471 163.201 61.8541C163.196 61.8578 163.192 61.8628 163.189 61.8685C163.186 61.8743 163.185 61.8808 163.185 61.8872V67.3761C163.185 67.4501 163.145 67.4868 163.064 67.4862H161.772C161.757 67.4877 161.742 67.4859 161.728 67.481C161.714 67.476 161.701 67.468 161.691 67.4574C161.68 67.4469 161.672 67.4341 161.667 67.42C161.662 67.4059 161.66 67.3909 161.662 67.3761V59.5571C161.66 59.5421 161.662 59.5269 161.667 59.5126C161.672 59.4984 161.68 59.4854 161.691 59.4747C161.701 59.4641 161.714 59.456 161.729 59.451C161.743 59.446 161.758 59.4444 161.773 59.4461Z" fill="white"/>
<path d="M176.671 67.662C176.086 67.6656 175.502 67.6322 174.921 67.562C174.402 67.4953 173.953 67.42 173.574 67.336C173.268 67.2712 172.965 67.1901 172.668 67.093C172.443 67.015 172.298 66.962 172.232 66.933C172.21 66.918 172.199 66.904 172.199 66.889L172.034 65.189C172.034 65.137 172.052 65.112 172.089 65.112C172.095 65.1115 172.101 65.1133 172.106 65.117C172.108 65.119 172.111 65.1206 172.113 65.1216C172.116 65.1226 172.119 65.1231 172.122 65.123C172.225 65.1817 172.398 65.268 172.641 65.382C172.945 65.5183 173.259 65.631 173.58 65.719C174.023 65.8429 174.473 65.9407 174.928 66.012C175.505 66.1015 176.089 66.1439 176.673 66.139C177.349 66.1648 178.024 66.0693 178.666 65.857C179.148 65.669 179.389 65.4206 179.389 65.112C179.385 65.0496 179.367 64.9889 179.336 64.9344C179.306 64.8799 179.263 64.833 179.212 64.797C179.043 64.673 178.852 64.583 178.649 64.532C178.327 64.4428 177.998 64.3819 177.666 64.35C177.185 64.3018 176.702 64.2798 176.219 64.284C175.618 64.2921 175.017 64.2475 174.424 64.151C174.003 64.0826 173.592 63.9659 173.198 63.803C172.915 63.6876 172.654 63.5249 172.425 63.322C172.255 63.1689 172.113 62.988 172.005 62.787C171.92 62.6268 171.862 62.4534 171.834 62.274C171.814 62.1415 171.803 62.0079 171.801 61.874C171.783 61.4044 171.938 60.9444 172.237 60.582C172.544 60.232 172.927 59.9581 173.358 59.782C173.851 59.5772 174.369 59.4396 174.899 59.373C175.457 59.2966 176.02 59.2578 176.583 59.257C177.043 59.2543 177.503 59.2857 177.958 59.351C178.374 59.4143 178.741 59.4863 179.058 59.567C179.32 59.6313 179.578 59.7108 179.831 59.805C180.031 59.8824 180.16 59.9357 180.217 59.965C180.239 59.965 180.25 59.98 180.25 60.009L180.36 61.654C180.375 61.698 180.36 61.72 180.305 61.72C180.302 61.7203 180.299 61.7201 180.296 61.7192C180.293 61.7184 180.29 61.7169 180.288 61.715C180.284 61.711 180.278 61.7089 180.272 61.709C180.092 61.6042 179.906 61.5103 179.715 61.428C179.44 61.3095 179.158 61.2093 178.87 61.128C178.52 61.0263 178.164 60.9451 177.804 60.885C177.401 60.817 176.993 60.7836 176.584 60.785C176.023 60.7758 175.461 60.8126 174.906 60.895C174.565 60.9446 174.231 61.0356 173.912 61.166C173.724 61.2351 173.561 61.3579 173.443 61.519C173.373 61.626 173.333 61.7501 173.327 61.878C173.327 62.1874 173.585 62.412 174.1 62.552C174.795 62.7114 175.508 62.782 176.221 62.762C176.494 62.762 176.799 62.7694 177.138 62.784C177.486 62.7997 177.832 62.8347 178.176 62.889C178.527 62.9437 178.874 63.0229 179.214 63.126C179.536 63.2212 179.841 63.3644 180.12 63.551C180.379 63.7253 180.597 63.9531 180.76 64.219C180.928 64.5069 181.012 64.8359 181.003 65.169C180.998 65.2893 180.984 65.4091 180.959 65.527C180.921 65.7072 180.856 65.8805 180.766 66.041C180.648 66.2485 180.501 66.4381 180.33 66.604C180.104 66.8191 179.845 66.9962 179.562 67.128C179.184 67.3058 178.785 67.4357 178.375 67.515C177.814 67.6223 177.243 67.6716 176.671 67.662Z" fill="white"/>
</svg>
