<svg width="206" height="248" viewBox="0 0 206 248" fill="none" xmlns="http://www.w3.org/2000/svg">
<path d="M100.607 228.863C151.108 228.863 192.048 187.924 192.048 137.422C192.048 86.9206 151.108 45.9811 100.607 45.9811C50.1055 45.9811 9.16602 86.9206 9.16602 137.422C9.16602 187.924 50.1055 228.863 100.607 228.863Z" fill="#FFCE00"/>
<path d="M50.5661 234.76H30.8781C30.4766 234.76 30.0791 234.682 29.7081 234.528C29.3371 234.375 28.9999 234.15 28.7159 233.866C28.4318 233.582 28.2064 233.246 28.0526 232.875C27.8987 232.504 27.8194 232.107 27.8191 231.705V136.883C27.8191 136.072 28.1414 135.293 28.7152 134.72C29.289 134.146 30.0672 133.824 30.8786 133.824C31.69 133.824 32.4682 134.146 33.042 134.72C33.6158 135.293 33.9381 136.072 33.9381 136.883V228.646H47.5071V152.554C47.5071 151.743 47.8294 150.965 48.403 150.391C48.9767 149.817 49.7548 149.495 50.5661 149.495C51.3774 149.495 52.1555 149.817 52.7291 150.391C53.3028 150.965 53.6251 151.743 53.6251 152.554V231.706C53.6243 232.517 53.3016 233.294 52.7279 233.867C52.1543 234.439 51.3767 234.761 50.5661 234.76V234.76Z" fill="#002037"/>
<path d="M22.6411 164.452C19.6462 164.448 16.7755 163.255 14.6586 161.137C12.5417 159.019 11.3514 156.147 11.3491 153.152V107.82C11.3562 102.145 13.6139 96.7041 17.6269 92.691C21.64 88.678 27.0808 86.4203 32.7561 86.4131H36.9071C37.7185 86.4131 38.4967 86.7355 39.0705 87.3092C39.6442 87.883 39.9666 88.6612 39.9666 89.4726C39.9666 90.2841 39.6442 91.0623 39.0705 91.636C38.4967 92.2098 37.7185 92.5322 36.9071 92.5322H32.7561C28.7024 92.5364 24.8158 94.1483 21.9491 97.0143C19.0823 99.8804 17.4693 103.766 17.4641 107.82V153.156C17.483 154.517 18.0368 155.815 19.0057 156.771C19.9746 157.726 21.2807 158.262 22.6416 158.262C24.0024 158.262 25.3085 157.726 26.2774 156.771C27.2463 155.815 27.8002 154.517 27.8191 153.156V121.213C27.8191 120.402 28.1414 119.624 28.7152 119.05C29.2889 118.476 30.0671 118.154 30.8786 118.154C31.69 118.154 32.4682 118.476 33.042 119.05C33.6157 119.624 33.938 120.402 33.938 121.213V153.155C33.9346 156.15 32.7433 159.022 30.6255 161.14C28.5076 163.257 25.6361 164.449 22.6411 164.452V164.452Z" fill="#002037"/>
<path d="M64.0541 92.5322H61.4421C60.6306 92.5322 59.8525 92.2098 59.2787 91.636C58.7049 91.0623 58.3826 90.2841 58.3826 89.4726C58.3826 88.6612 58.7049 87.883 59.2787 87.3092C59.8525 86.7355 60.6306 86.4131 61.4421 86.4131H64.0541C64.8655 86.4131 65.6437 86.7355 66.2175 87.3092C66.7912 87.883 67.1136 88.6612 67.1136 89.4726C67.1136 90.2841 66.7912 91.0623 66.2175 91.636C65.6437 92.2098 64.8655 92.5322 64.0541 92.5322V92.5322Z" fill="#002037"/>
<path d="M70.2591 234.761H50.5661C50.1646 234.761 49.767 234.683 49.3961 234.529C49.0251 234.376 48.6879 234.151 48.4039 233.867C48.1198 233.584 47.8944 233.247 47.7405 232.876C47.5867 232.505 47.5073 232.108 47.5071 231.706V152.554C47.5071 151.743 47.8294 150.965 48.403 150.391C48.9767 149.817 49.7548 149.495 50.5661 149.495C51.3774 149.495 52.1555 149.817 52.7291 150.391C53.3028 150.965 53.6251 151.743 53.6251 152.554V228.642H67.1941V181.012C67.1941 180.201 67.5164 179.423 68.09 178.849C68.6637 178.275 69.4418 177.953 70.2531 177.953C71.0644 177.953 71.8424 178.275 72.4161 178.849C72.9898 179.423 73.3121 180.201 73.3121 181.012V231.706C73.3115 232.516 72.9898 233.292 72.4174 233.865C71.845 234.438 71.0688 234.76 70.2591 234.761Z" fill="#002037"/>
<path d="M50.5661 82.0652C46.7433 82.0648 43.0065 80.9309 39.8282 78.8068C36.6499 76.6828 34.1728 73.664 32.71 70.1321C31.2473 66.6003 30.8647 62.7141 31.6106 58.9648C32.3565 55.2155 34.1973 51.7716 36.9004 49.0685C39.6035 46.3654 43.0474 44.5246 46.7967 43.7787C50.5459 43.0328 54.4322 43.4154 57.964 44.8781C61.4959 46.3408 64.5147 48.818 66.6387 51.9963C68.7628 55.1746 69.8967 58.9114 69.8971 62.7342C69.8915 67.8594 67.8531 72.7731 64.229 76.3971C60.605 80.0212 55.6913 82.0596 50.5661 82.0652ZM50.5661 49.5212C47.9522 49.5208 45.397 50.2955 43.2235 51.7475C41.05 53.1994 39.3559 55.2633 38.3554 57.6781C37.3549 60.0929 37.0931 62.7502 37.6029 65.3138C38.1127 67.8774 39.3714 70.2323 41.2197 72.0806C43.0679 73.9289 45.4228 75.1875 47.9864 75.6973C50.5501 76.2072 53.2073 75.9453 55.6221 74.9448C58.037 73.9444 60.1008 72.2503 61.5528 70.0768C63.0047 67.9033 63.7795 65.348 63.7791 62.7342C63.7751 59.2311 62.3817 55.8726 59.9047 53.3956C57.4276 50.9185 54.0692 49.5251 50.5661 49.5212V49.5212Z" fill="#002037"/>
<path d="M102.996 247.759H83.312C82.9103 247.759 82.5125 247.68 82.1413 247.527C81.7701 247.373 81.4328 247.148 81.1487 246.863C80.8646 246.579 80.6393 246.242 80.4856 245.871C80.3319 245.5 80.2529 245.102 80.2531 244.7V141.524C80.2531 140.713 80.5753 139.935 81.149 139.361C81.7227 138.787 82.5007 138.465 83.312 138.465C84.1233 138.465 84.9014 138.787 85.4751 139.361C86.0488 139.935 86.371 140.713 86.371 141.524V241.644H99.941V157.195C99.941 156.794 100.02 156.396 100.174 156.025C100.327 155.654 100.553 155.317 100.836 155.034C101.12 154.75 101.457 154.524 101.828 154.371C102.199 154.217 102.597 154.138 102.998 154.138C103.399 154.138 103.797 154.217 104.168 154.371C104.539 154.524 104.876 154.75 105.16 155.034C105.444 155.317 105.669 155.654 105.822 156.025C105.976 156.396 106.055 156.794 106.055 157.195V244.695C106.056 245.097 105.978 245.496 105.825 245.868C105.671 246.24 105.446 246.578 105.162 246.863C104.878 247.147 104.54 247.373 104.168 247.527C103.797 247.681 103.398 247.76 102.996 247.759V247.759Z" fill="#002037"/>
<path d="M75.0751 169.092C72.079 169.089 69.2063 167.898 67.0877 165.78C64.9691 163.661 63.7777 160.788 63.7751 157.792V112.461C63.7822 106.786 66.0399 101.345 70.0529 97.332C74.066 93.3189 79.5068 91.0613 85.1821 91.0541H89.3331C90.1445 91.0541 90.9227 91.3765 91.4965 91.9502C92.0703 92.524 92.3926 93.3022 92.3926 94.1136C92.3926 94.9251 92.0703 95.7033 91.4965 96.277C90.9227 96.8508 90.1445 97.1731 89.3331 97.1731H85.1821C81.1284 97.1763 77.2417 98.788 74.3754 101.654C71.509 104.521 69.8973 108.407 69.8941 112.461V157.797C69.8846 158.483 70.0114 159.164 70.2674 159.801C70.5233 160.437 70.9031 161.017 71.3848 161.505C71.8665 161.993 72.4406 162.381 73.0735 162.646C73.7064 162.911 74.3856 163.047 75.0716 163.047C75.7576 163.047 76.4368 162.911 77.0697 162.646C77.7026 162.381 78.2766 161.993 78.7583 161.505C79.2401 161.017 79.6199 160.437 79.8758 159.801C80.1317 159.164 80.2586 158.483 80.2491 157.797V125.854C80.2491 125.043 80.5714 124.265 81.1451 123.691C81.7187 123.117 82.4968 122.795 83.3081 122.795C84.1194 122.795 84.8975 123.117 85.4711 123.691C86.0448 124.265 86.3671 125.043 86.3671 125.854V157.796C86.3626 160.79 85.1716 163.66 83.055 165.777C80.9385 167.895 78.0689 169.087 75.0751 169.092V169.092Z" fill="#002037"/>
<path d="M130.922 169.092C127.927 169.088 125.056 167.895 122.94 165.777C120.823 163.659 119.632 160.787 119.63 157.792V125.854C119.63 125.043 119.952 124.266 120.525 123.693C121.099 123.119 121.876 122.797 122.687 122.797C123.498 122.797 124.275 123.119 124.849 123.693C125.422 124.266 125.744 125.043 125.744 125.854V157.796C125.735 158.482 125.861 159.163 126.117 159.8C126.373 160.436 126.753 161.016 127.235 161.504C127.717 161.992 128.291 162.38 128.923 162.645C129.556 162.91 130.236 163.046 130.922 163.046C131.608 163.046 132.287 162.91 132.92 162.645C133.553 162.38 134.127 161.992 134.608 161.504C135.09 161.016 135.47 160.436 135.726 159.8C135.982 159.163 136.109 158.482 136.099 157.796V112.461C136.096 108.407 134.484 104.521 131.618 101.654C128.751 98.788 124.865 97.1763 120.811 97.1731H116.66C115.849 97.1731 115.07 96.8508 114.497 96.277C113.923 95.7033 113.601 94.9251 113.601 94.1136C113.601 93.3022 113.923 92.524 114.497 91.9502C115.07 91.3765 115.849 91.0541 116.66 91.0541H120.811C126.486 91.0613 131.927 93.3189 135.94 97.332C139.953 101.345 142.211 106.786 142.218 112.461V157.797C142.214 160.792 141.023 163.662 138.905 165.78C136.788 167.897 133.917 169.088 130.922 169.092V169.092Z" fill="#002037"/>
<path d="M122.684 247.759H102.996C102.595 247.759 102.197 247.68 101.826 247.526C101.455 247.373 101.118 247.147 100.834 246.863C100.55 246.579 100.325 246.242 100.172 245.871C100.019 245.499 99.9404 245.102 99.9411 244.7V157.2C99.9411 156.389 100.263 155.612 100.836 155.039C101.41 154.465 102.187 154.143 102.998 154.143C103.809 154.143 104.586 154.465 105.16 155.039C105.733 155.612 106.055 156.389 106.055 157.2V241.649H119.629V141.524C119.629 141.123 119.708 140.725 119.862 140.354C120.015 139.983 120.241 139.646 120.524 139.363C120.808 139.079 121.145 138.853 121.516 138.7C121.887 138.546 122.285 138.467 122.686 138.467C123.088 138.467 123.485 138.546 123.856 138.7C124.227 138.853 124.564 139.079 124.848 139.363C125.132 139.646 125.357 139.983 125.51 140.354C125.664 140.725 125.743 141.123 125.743 141.524V244.699C125.743 245.101 125.664 245.499 125.511 245.87C125.357 246.242 125.132 246.579 124.848 246.863C124.564 247.147 124.226 247.373 123.855 247.526C123.484 247.68 123.086 247.759 122.684 247.759Z" fill="#002037"/>
<path d="M102.996 86.7042C99.1732 86.7038 95.4362 85.5698 92.2578 83.4455C89.0794 81.3213 86.6023 78.3023 85.1397 74.7702C83.677 71.2381 83.2947 67.3517 84.0409 63.6023C84.7871 59.8529 86.6283 56.409 89.3318 53.7061C92.0353 51.0031 95.4796 49.1626 99.2291 48.4172C102.979 47.6717 106.865 48.0549 110.397 49.5183C113.929 50.9816 116.947 53.4593 119.071 56.6382C121.194 59.8171 122.327 63.5542 122.327 67.3771C122.321 72.5018 120.282 77.4148 116.658 81.0381C113.034 84.6614 108.121 86.6991 102.996 86.7042V86.7042ZM102.996 54.1602C100.383 54.1606 97.8279 54.9359 95.655 56.3881C93.4821 57.8403 91.7886 59.9043 90.7886 62.3189C89.7887 64.7336 89.5271 67.3905 90.0371 69.9538C90.5471 72.517 91.8056 74.8715 93.6537 76.7196C95.5017 78.5676 97.8562 79.8262 100.419 80.3361C102.983 80.8461 105.64 80.5846 108.054 79.5846C110.469 78.5846 112.533 76.8912 113.985 74.7183C115.437 72.5454 116.213 69.9906 116.213 67.3771C116.209 63.8732 114.815 60.5139 112.337 58.0363C109.859 55.5588 106.5 54.1651 102.996 54.1611V54.1602Z" fill="#002037"/>
<path d="M175.121 234.76H155.43C155.029 234.76 154.631 234.682 154.261 234.528C153.89 234.375 153.553 234.15 153.269 233.866C152.986 233.582 152.761 233.245 152.607 232.875C152.454 232.504 152.375 232.106 152.375 231.705V152.554C152.375 152.153 152.454 151.755 152.608 151.384C152.761 151.013 152.987 150.676 153.27 150.393C153.554 150.109 153.891 149.884 154.262 149.73C154.633 149.576 155.031 149.497 155.432 149.497C155.834 149.497 156.231 149.576 156.602 149.73C156.973 149.884 157.31 150.109 157.594 150.393C157.878 150.676 158.103 151.013 158.256 151.384C158.41 151.755 158.489 152.153 158.489 152.554V228.646H172.063V136.883C172.063 136.482 172.142 136.084 172.296 135.713C172.449 135.342 172.675 135.005 172.958 134.722C173.242 134.438 173.579 134.212 173.95 134.059C174.321 133.905 174.719 133.826 175.12 133.826C175.522 133.826 175.919 133.905 176.29 134.059C176.661 134.212 176.998 134.438 177.282 134.722C177.566 135.005 177.791 135.342 177.944 135.713C178.098 136.084 178.177 136.482 178.177 136.883V231.705C178.177 232.515 177.854 233.292 177.281 233.865C176.708 234.438 175.931 234.76 175.121 234.76V234.76Z" fill="#002037"/>
<path d="M183.355 164.452C180.36 164.448 177.489 163.255 175.373 161.137C173.256 159.019 172.065 156.147 172.063 153.152V121.213C172.063 120.402 172.385 119.625 172.958 119.052C173.532 118.478 174.309 118.156 175.12 118.156C175.931 118.156 176.708 118.478 177.282 119.052C177.855 119.625 178.177 120.402 178.177 121.213V153.155C178.196 154.516 178.75 155.814 179.719 156.77C180.688 157.725 181.994 158.261 183.355 158.261C184.715 158.261 186.022 157.725 186.99 156.77C187.959 155.814 188.513 154.516 188.532 153.155V107.82C188.529 103.766 186.917 99.8798 184.051 97.0134C181.184 94.147 177.298 92.5353 173.244 92.5322H169.093C168.282 92.5322 167.503 92.2098 166.93 91.636C166.356 91.0623 166.034 90.2841 166.034 89.4726C166.034 88.6612 166.356 87.883 166.93 87.3092C167.503 86.7355 168.282 86.4131 169.093 86.4131H173.244C178.919 86.4203 184.36 88.678 188.373 92.691C192.386 96.7041 194.644 102.145 194.651 107.82V153.156C194.647 156.151 193.456 159.022 191.338 161.14C189.221 163.257 186.35 164.448 183.355 164.452Z" fill="#002037"/>
<path d="M144.556 92.5322H141.144C140.333 92.5322 139.554 92.2098 138.981 91.636C138.407 91.0623 138.085 90.2841 138.085 89.4726C138.085 88.6612 138.407 87.883 138.981 87.3092C139.554 86.7355 140.333 86.4131 141.144 86.4131H144.556C145.368 86.4131 146.146 86.7355 146.719 87.3092C147.293 87.883 147.616 88.6612 147.616 89.4726C147.616 90.2841 147.293 91.0623 146.719 91.636C146.146 92.2098 145.368 92.5322 144.556 92.5322V92.5322Z" fill="#002037"/>
<path d="M155.43 234.761H135.742C135.341 234.761 134.943 234.683 134.573 234.529C134.202 234.376 133.865 234.151 133.581 233.867C133.298 233.583 133.073 233.246 132.919 232.876C132.766 232.505 132.687 232.107 132.687 231.706V181.012C132.687 180.611 132.766 180.213 132.92 179.842C133.073 179.471 133.299 179.134 133.582 178.85C133.866 178.567 134.203 178.341 134.574 178.188C134.945 178.034 135.343 177.955 135.744 177.955C136.146 177.955 136.543 178.034 136.914 178.188C137.285 178.341 137.622 178.567 137.906 178.85C138.19 179.134 138.415 179.471 138.568 179.842C138.722 180.213 138.801 180.611 138.801 181.012V228.642H152.375V152.554C152.375 152.153 152.454 151.755 152.608 151.384C152.761 151.013 152.987 150.676 153.27 150.393C153.554 150.109 153.891 149.883 154.262 149.73C154.633 149.576 155.031 149.497 155.432 149.497C155.834 149.497 156.231 149.576 156.602 149.73C156.973 149.883 157.31 150.109 157.594 150.393C157.878 150.676 158.103 151.013 158.256 151.384C158.41 151.755 158.489 152.153 158.489 152.554V231.706C158.489 232.108 158.409 232.505 158.256 232.876C158.102 233.247 157.876 233.584 157.592 233.867C157.308 234.151 156.971 234.376 156.6 234.529C156.229 234.683 155.832 234.761 155.43 234.761V234.761Z" fill="#002037"/>
<path d="M155.433 82.0652C151.61 82.0648 147.874 80.9309 144.695 78.8068C141.517 76.6828 139.04 73.664 137.577 70.1321C136.114 66.6003 135.732 62.7141 136.478 58.9648C137.223 55.2155 139.064 51.7716 141.767 49.0685C144.47 46.3654 147.914 44.5246 151.664 43.7787C155.413 43.0328 159.299 43.4154 162.831 44.8781C166.363 46.3408 169.382 48.818 171.506 51.9963C173.63 55.1746 174.764 58.9114 174.764 62.7342C174.758 67.8591 172.719 72.7723 169.095 76.3962C165.471 80.0201 160.558 82.0588 155.433 82.0652V82.0652ZM155.433 49.5212C152.819 49.5216 150.265 50.297 148.092 51.7494C145.919 53.2018 144.225 55.266 143.225 57.6809C142.225 60.0957 141.964 62.7529 142.474 65.3162C142.985 67.8796 144.244 70.2341 146.092 72.082C147.941 73.9299 150.295 75.1881 152.859 75.6977C155.422 76.2072 158.08 75.9451 160.494 74.9445C162.909 73.9439 164.972 72.2498 166.424 70.0764C167.876 67.903 168.65 65.3478 168.65 62.7342C168.646 59.2304 167.252 55.8713 164.774 53.3941C162.296 50.917 158.937 49.5241 155.433 49.5212V49.5212Z" fill="#002037"/>
<path d="M191.591 247.758H14.4041C13.5933 247.758 12.8158 247.436 12.2425 246.863C11.6692 246.289 11.3471 245.512 11.3471 244.701C11.3471 243.89 11.6692 243.113 12.2425 242.54C12.8158 241.966 13.5933 241.644 14.4041 241.644H191.591C192.402 241.644 193.179 241.966 193.753 242.54C194.326 243.113 194.648 243.89 194.648 244.701C194.648 245.512 194.326 246.289 193.753 246.863C193.179 247.436 192.402 247.758 191.591 247.758Z" fill="#002037"/>
<path d="M202.415 234.76H135.742C134.931 234.76 134.154 234.438 133.58 233.865C133.007 233.291 132.685 232.514 132.685 231.703C132.685 230.892 133.007 230.115 133.58 229.541C134.154 228.968 134.931 228.646 135.742 228.646H202.415C203.226 228.646 204.003 228.968 204.577 229.541C205.15 230.115 205.472 230.892 205.472 231.703C205.472 232.514 205.15 233.291 204.577 233.865C204.003 234.438 203.226 234.76 202.415 234.76Z" fill="#002037"/>
<path d="M70.2541 234.76H3.58508C2.77432 234.76 1.99673 234.438 1.42343 233.865C0.850133 233.291 0.528076 232.514 0.528076 231.703C0.528076 230.892 0.850133 230.115 1.42343 229.541C1.99673 228.968 2.77432 228.646 3.58508 228.646H70.2541C71.0648 228.646 71.8424 228.968 72.4157 229.541C72.989 230.115 73.3111 230.892 73.3111 231.703C73.3111 232.514 72.989 233.291 72.4157 233.865C71.8424 234.438 71.0648 234.76 70.2541 234.76Z" fill="#002037"/>
<path d="M102.996 40.1241C102.595 40.1239 102.197 40.0446 101.826 39.8907C101.456 39.7368 101.119 39.5114 100.835 39.2274C100.551 38.9433 100.326 38.6062 100.173 38.2352C100.02 37.8642 99.9408 37.4666 99.9411 37.0652V3.30016C99.9411 2.48939 100.263 1.71183 100.836 1.13853C101.41 0.565236 102.187 0.243164 102.998 0.243164C103.809 0.243164 104.586 0.565236 105.16 1.13853C105.733 1.71183 106.055 2.48939 106.055 3.30016V37.0641C106.055 37.466 105.976 37.864 105.823 38.2353C105.669 38.6066 105.444 38.944 105.16 39.2281C104.876 39.5123 104.538 39.7377 104.167 39.8915C103.796 40.0452 103.398 40.1243 102.996 40.1241V40.1241Z" fill="#002037"/>
<path d="M113.094 16.1781C112.298 16.1792 111.534 15.8691 110.963 15.3141L102.997 7.56714L95.0391 15.3141C94.7516 15.5971 94.411 15.8205 94.0369 15.9713C93.6628 16.1222 93.2626 16.1976 92.8592 16.1932C92.4558 16.1889 92.0573 16.1048 91.6866 15.9458C91.3158 15.7868 90.9802 15.5561 90.6989 15.267C90.4177 14.9778 90.1964 14.6359 90.0477 14.2609C89.8991 13.8859 89.8261 13.4852 89.8329 13.0818C89.8397 12.6785 89.9262 12.2805 90.0874 11.9107C90.2486 11.5409 90.4813 11.2067 90.7721 10.9271L100.865 1.10414C101.437 0.550196 102.202 0.240479 102.999 0.240479C103.795 0.240479 104.56 0.550196 105.132 1.10414L115.225 10.9271C115.662 11.351 115.962 11.8957 116.088 12.4914C116.213 13.0871 116.158 13.7066 115.929 14.2707C115.7 14.8348 115.308 15.3176 114.803 15.6575C114.298 15.9973 113.703 16.1786 113.094 16.1781V16.1781Z" fill="#002037"/>
<path d="M186.496 66.4072C185.685 66.4067 184.907 66.0842 184.334 65.5106C183.76 64.9371 183.438 64.1593 183.437 63.3482V21.2262C183.437 20.4149 183.759 19.6368 184.333 19.0631C184.907 18.4895 185.685 18.1672 186.496 18.1672C187.307 18.1672 188.085 18.4895 188.659 19.0631C189.233 19.6368 189.555 20.4149 189.555 21.2262V63.3482C189.555 64.1593 189.232 64.9371 188.659 65.5106C188.085 66.0842 187.307 66.4067 186.496 66.4072V66.4072Z" fill="#002037"/>
<path d="M176.403 34.1041C175.794 34.1044 175.2 33.9231 174.695 33.5834C174.19 33.2437 173.797 32.7611 173.568 32.1973C173.339 31.6335 173.283 31.0141 173.408 30.4184C173.532 29.8226 173.832 29.2777 174.268 28.8531L184.368 19.0351C184.938 18.4793 185.703 18.1683 186.5 18.1683C187.296 18.1683 188.061 18.4793 188.631 19.0351L198.731 28.8531C199.022 29.1326 199.255 29.4669 199.416 29.8367C199.577 30.2065 199.663 30.6045 199.67 31.0078C199.677 31.4111 199.604 31.8118 199.455 32.1868C199.307 32.5618 199.086 32.9038 198.804 33.1929C198.523 33.4821 198.187 33.7128 197.817 33.8718C197.446 34.0307 197.047 34.1148 196.644 34.1192C196.241 34.1236 195.84 34.0482 195.466 33.8973C195.092 33.7464 194.752 33.5231 194.464 33.2401L186.502 25.4931L178.54 33.2401C177.969 33.7983 177.201 34.1088 176.403 34.1041V34.1041Z" fill="#002037"/>
<path d="M19.5001 66.4071C19.0986 66.4069 18.7011 66.3275 18.3304 66.1736C17.9596 66.0198 17.6227 65.7944 17.339 65.5103C17.0553 65.2263 16.8304 64.8891 16.677 64.5181C16.5236 64.1471 16.4448 63.7496 16.4451 63.3481V21.2261C16.4451 20.4154 16.7672 19.6378 17.3405 19.0645C17.9138 18.4912 18.6913 18.1691 19.5021 18.1691C20.3128 18.1691 21.0904 18.4912 21.6637 19.0645C22.237 19.6378 22.5591 20.4154 22.5591 21.2261V63.3481C22.5586 64.1592 22.2361 64.937 21.6625 65.5106C21.089 66.0841 20.3112 66.4066 19.5001 66.4071V66.4071Z" fill="#002037"/>
<path d="M29.5981 34.1041C28.8005 34.1065 28.0337 33.7964 27.4621 33.2401L19.5001 25.4931L11.5381 33.2401C10.9563 33.8053 10.1739 34.1163 9.3629 34.1045C8.5519 34.0928 7.77875 33.7594 7.21358 33.1776C6.6484 32.5959 6.33748 31.8135 6.3492 31.0025C6.36092 30.1915 6.69432 29.4183 7.27608 28.8531L17.3691 19.0351C17.9402 18.4793 18.7056 18.1683 19.5026 18.1683C20.2995 18.1683 21.065 18.4793 21.6361 19.0351L31.7291 28.8531C32.166 29.277 32.4664 29.8217 32.5918 30.4174C32.7172 31.0131 32.6619 31.6326 32.433 32.1967C32.2041 32.7608 31.812 33.2436 31.3069 33.5835C30.8018 33.9233 30.2068 34.1046 29.5981 34.1041Z" fill="#002037"/>
</svg>
