<svg width="277" height="193" viewBox="0 0 277 193" fill="none" xmlns="http://www.w3.org/2000/svg">
<path d="M138.855 192.591C190.339 192.591 232.075 150.855 232.075 99.3711C232.075 47.8871 190.339 6.15112 138.855 6.15112C87.371 6.15112 45.635 47.8871 45.635 99.3711C45.635 150.855 87.371 192.591 138.855 192.591Z" fill="#FFCE00"/>
<path d="M217.193 144.684C214.235 144.686 211.34 143.829 208.859 142.217L160.059 110.387C159.27 109.872 158.717 109.064 158.523 108.142C158.329 107.219 158.51 106.258 159.025 105.468C159.54 104.679 160.348 104.126 161.27 103.932C162.193 103.738 163.155 103.919 163.944 104.434L212.744 136.259C213.678 136.869 214.728 137.279 215.828 137.465C216.928 137.651 218.054 137.608 219.136 137.339C220.219 137.07 221.234 136.581 222.12 135.902C223.005 135.224 223.74 134.37 224.281 133.394C225.284 131.579 225.554 129.45 225.038 127.442C224.522 125.435 223.257 123.7 221.504 122.594L153.834 79.9941C150.799 78.0826 147.284 77.0698 143.697 77.0731H111.771V85.4871C111.771 89.3121 110.252 92.9803 107.547 95.685C104.842 98.3896 101.174 99.9091 97.349 99.9091C93.524 99.9091 89.8558 98.3896 87.1511 95.685C84.4465 92.9803 82.927 89.3121 82.927 85.4871V61.1971C82.9323 59.3601 83.4575 57.5621 84.442 56.0112C85.4265 54.4603 86.8299 53.2197 88.49 52.4331L116.281 39.3571C116.754 39.1349 117.271 39.0205 117.794 39.0221H193.681C194.623 39.0221 195.527 39.3964 196.193 40.0628C196.86 40.7291 197.234 41.6328 197.234 42.5751C197.234 43.5174 196.86 44.4211 196.193 45.0875C195.527 45.7538 194.623 46.1281 193.681 46.1281H118.581L91.51 58.8671C91.0676 59.0759 90.6935 59.4057 90.431 59.8185C90.1685 60.2312 90.0284 60.71 90.027 61.1991V85.4891C90.027 87.4294 90.7978 89.2903 92.1698 90.6623C93.5418 92.0343 95.4027 92.8051 97.343 92.8051C99.2833 92.8051 101.144 92.0343 102.516 90.6623C103.888 89.2903 104.659 87.4294 104.659 85.4891V73.5211C104.659 73.0545 104.75 72.5924 104.928 72.1612C105.107 71.73 105.368 71.3381 105.698 71.0079C106.027 70.6777 106.419 70.4156 106.85 70.2367C107.28 70.0578 107.742 69.9655 108.209 69.9651H143.69C148.617 69.9631 153.443 71.355 157.612 73.9801L225.282 116.58C228.08 118.336 230.23 120.954 231.409 124.039C232.588 127.124 232.731 130.509 231.817 133.683C230.903 136.856 228.982 139.647 226.342 141.632C223.703 143.618 220.49 144.691 217.187 144.69L217.193 144.684Z" fill="#002037"/>
<path d="M188.954 155.754C185.796 155.754 182.71 154.807 180.095 153.037L145.653 129.886C145.266 129.626 144.933 129.292 144.675 128.903C144.417 128.514 144.238 128.078 144.148 127.62C144.058 127.162 144.059 126.691 144.151 126.233C144.244 125.776 144.425 125.341 144.686 124.954C144.946 124.566 145.28 124.234 145.669 123.976C146.058 123.717 146.493 123.538 146.951 123.448C147.409 123.358 147.881 123.36 148.338 123.452C148.796 123.544 149.231 123.726 149.618 123.986L184.06 147.132C185.027 147.773 186.111 148.217 187.25 148.438C188.389 148.66 189.561 148.656 190.698 148.425C191.835 148.194 192.915 147.741 193.877 147.093C194.839 146.444 195.664 145.612 196.305 144.645C196.946 143.678 197.39 142.594 197.611 141.455C197.833 140.316 197.828 139.145 197.598 138.008C197.367 136.87 196.914 135.79 196.265 134.828C195.617 133.866 194.785 133.041 193.818 132.4L162.512 111.991C161.722 111.476 161.169 110.668 160.974 109.745C160.78 108.822 160.96 107.86 161.476 107.07C161.991 106.279 162.799 105.726 163.722 105.532C164.645 105.338 165.607 105.518 166.397 106.033L197.697 126.443C201.213 128.751 203.677 132.352 204.557 136.464C205.437 140.577 204.661 144.871 202.397 148.415C201.257 150.205 199.768 151.746 198.02 152.949C196.271 154.152 194.299 154.99 192.22 155.415C191.146 155.638 190.051 155.752 188.954 155.754V155.754Z" fill="#002037"/>
<path d="M165.333 169.398C162.314 169.4 159.358 168.532 156.819 166.898L133.154 151.657C132.369 151.144 131.819 150.341 131.624 149.424C131.429 148.507 131.604 147.549 132.111 146.761C132.618 145.972 133.417 145.416 134.332 145.213C135.248 145.011 136.206 145.178 136.999 145.679L160.664 160.92C162.514 162.103 164.742 162.544 166.904 162.157C169.065 161.769 171 160.58 172.324 158.828C173.032 157.884 173.54 156.807 173.818 155.661C174.096 154.514 174.138 153.324 173.942 152.161C173.745 150.998 173.314 149.887 172.675 148.895C172.036 147.904 171.202 147.053 170.224 146.394L154.788 136.022C154.006 135.496 153.464 134.681 153.283 133.756C153.101 132.831 153.295 131.872 153.821 131.09C154.346 130.307 155.161 129.766 156.086 129.584C157.011 129.403 157.971 129.596 158.753 130.122L174.187 140.498C175.966 141.695 177.483 143.241 178.645 145.043C179.807 146.845 180.591 148.864 180.948 150.978C181.306 153.092 181.229 155.257 180.724 157.34C180.218 159.424 179.294 161.383 178.007 163.098C176.528 165.059 174.613 166.649 172.413 167.743C170.213 168.836 167.789 169.403 165.333 169.398Z" fill="#002037"/>
<path d="M136.405 178.936C133.573 178.939 130.796 178.154 128.385 176.669L125.818 175.091C125.015 174.597 124.442 173.805 124.224 172.888C124.006 171.971 124.161 171.005 124.655 170.203C125.148 169.4 125.941 168.827 126.858 168.608C127.775 168.39 128.74 168.545 129.543 169.039L132.11 170.617C133.895 171.709 136.027 172.084 138.077 171.667C140.128 171.25 141.944 170.072 143.161 168.37C143.807 167.461 144.263 166.43 144.499 165.34C144.736 164.25 144.749 163.123 144.538 162.028C144.327 160.932 143.896 159.891 143.272 158.967C142.647 158.042 141.842 157.254 140.904 156.65L135.104 152.915C134.322 152.4 133.774 151.597 133.581 150.681C133.387 149.764 133.563 148.808 134.07 148.021C134.578 147.233 135.375 146.678 136.29 146.475C137.204 146.272 138.162 146.439 138.954 146.938L144.754 150.673C147.547 152.469 149.683 155.122 150.841 158.234C151.999 161.347 152.116 164.751 151.175 167.935C150.234 171.12 148.286 173.914 145.623 175.898C142.959 177.881 139.725 178.948 136.404 178.937L136.405 178.936Z" fill="#002037"/>
<path d="M114.647 182.372C111.898 182.371 109.208 181.574 106.902 180.078C104.595 178.581 102.772 176.449 101.651 173.938C100.53 171.428 100.16 168.647 100.585 165.931C101.01 163.215 102.213 160.68 104.047 158.632L105.231 157.303C106.483 155.896 108.002 154.751 109.699 153.933C111.396 153.116 113.238 152.644 115.119 152.542C117 152.441 118.882 152.714 120.657 153.344C122.432 153.975 124.065 154.951 125.461 156.215C126.856 157.48 127.988 159.009 128.789 160.714C129.591 162.418 130.047 164.265 130.131 166.147C130.214 168.028 129.925 169.908 129.278 171.677C128.631 173.446 127.641 175.07 126.363 176.454L125.163 177.767C123.826 179.223 122.201 180.385 120.39 181.178C118.58 181.971 116.624 182.377 114.647 182.372V182.372ZM115.847 159.666C114.842 159.665 113.849 159.877 112.932 160.286C112.014 160.696 111.194 161.294 110.524 162.043L109.336 163.372C108.689 164.095 108.195 164.943 107.886 165.863C107.577 166.783 107.459 167.756 107.538 168.723C107.617 169.69 107.893 170.631 108.348 171.489C108.803 172.346 109.428 173.101 110.185 173.709C111.6 174.839 113.391 175.391 115.197 175.254C117.003 175.117 118.69 174.301 119.918 172.97L121.118 171.652C121.774 170.94 122.278 170.101 122.599 169.187C122.92 168.274 123.052 167.304 122.986 166.338C122.921 165.372 122.659 164.429 122.218 163.568C121.776 162.706 121.164 161.943 120.418 161.325C119.134 160.259 117.519 159.672 115.85 159.665L115.847 159.666Z" fill="#002037"/>
<path d="M94.707 172.484C91.9569 172.482 89.2657 171.687 86.9563 170.194C84.6468 168.7 82.8173 166.573 81.687 164.065C80.5567 161.558 80.1737 158.778 80.584 156.059C80.9943 153.339 82.1804 150.796 84 148.734L98.9461 131.8C101.389 129.013 104.824 127.289 108.518 126.994C112.213 126.7 115.877 127.858 118.731 130.222L116.664 133.122L118.921 130.375C120.413 131.602 121.641 133.119 122.53 134.833C123.419 136.548 123.952 138.425 124.095 140.352C124.238 142.278 123.989 144.213 123.364 146.041C122.738 147.868 121.748 149.55 120.454 150.984L105.318 167.758C103.98 169.246 102.343 170.436 100.515 171.25C98.6872 172.064 96.7082 172.485 94.707 172.484ZM109.653 134.067C108.635 134.068 107.63 134.286 106.703 134.707C105.776 135.127 104.949 135.74 104.278 136.505L89.329 153.441C88.0616 154.862 87.4103 156.727 87.5185 158.628C87.6267 160.529 88.4855 162.309 89.906 163.576C91.3265 164.844 93.1924 165.495 95.0931 165.387C96.9937 165.278 98.7736 164.42 100.041 162.999L115.178 146.222C115.827 145.502 116.324 144.658 116.638 143.741C116.953 142.824 117.078 141.852 117.006 140.885C116.935 139.918 116.669 138.976 116.223 138.115C115.777 137.254 115.162 136.492 114.414 135.875C113.093 134.725 111.405 134.084 109.653 134.068V134.067Z" fill="#002037"/>
<path d="M79.925 156.65C77.181 156.648 74.4937 155.869 72.1741 154.403C69.8544 152.937 67.9972 150.844 66.8175 148.367C65.6378 145.889 65.1837 143.129 65.5079 140.404C65.832 137.679 66.921 135.102 68.649 132.97L73.733 126.708C74.9568 125.164 76.4783 123.882 78.2073 122.938C79.9362 121.994 81.8372 121.407 83.7975 121.212C85.7577 121.017 87.7371 121.218 89.6182 121.803C91.4992 122.388 93.2435 123.345 94.7474 124.618C96.2512 125.89 97.484 127.452 98.3725 129.21C99.261 130.968 99.787 132.887 99.9193 134.852C100.052 136.818 99.7876 138.79 99.1428 140.651C98.4981 142.513 97.4858 144.226 96.166 145.688L90.8281 151.74C89.4638 153.286 87.7857 154.524 85.9057 155.37C84.0257 156.217 81.9869 156.653 79.925 156.65V156.65ZM85.168 128.39C84.0361 128.386 82.9175 128.634 81.8937 129.117C80.8699 129.6 79.9668 130.305 79.25 131.181L74.171 137.448C72.9527 138.956 72.373 140.881 72.5559 142.811C72.7389 144.741 73.67 146.523 75.1501 147.775C76.6301 149.028 78.5415 149.651 80.4753 149.512C82.409 149.373 84.2115 148.482 85.497 147.031L90.835 140.983C91.8035 139.892 92.4358 138.543 92.6559 137.101C92.876 135.658 92.6745 134.183 92.0756 132.852C91.4767 131.522 90.506 130.392 89.2804 129.601C88.0547 128.809 86.6263 128.388 85.167 128.389L85.168 128.39Z" fill="#002037"/>
<path d="M65.0391 140.659C62.4368 140.664 59.8873 139.924 57.691 138.529C55.4947 137.133 53.7429 135.139 52.6421 132.781C51.5412 130.423 51.1371 127.799 51.4772 125.219C51.8174 122.639 52.8876 120.21 54.5621 118.218L56.8541 115.496C59.166 112.783 62.4506 111.086 66.0011 110.771C69.5515 110.455 73.084 111.546 75.8383 113.808C78.5925 116.071 80.3484 119.324 80.728 122.869C81.1076 126.413 80.0806 129.964 77.8681 132.759L75.6511 135.536C74.382 137.134 72.7686 138.424 70.9311 139.311C69.0936 140.198 67.0795 140.659 65.0391 140.659V140.659ZM67.251 117.773C66.305 117.772 65.3702 117.979 64.5126 118.378C63.655 118.778 62.8953 119.36 62.2871 120.085L59.9951 122.801C59.4476 123.464 59.0364 124.229 58.7851 125.052C58.5337 125.874 58.4472 126.738 58.5304 127.594C58.6136 128.45 58.8649 129.281 59.27 130.04C59.675 130.798 60.2258 131.47 60.8907 132.015C61.5557 132.561 62.3217 132.969 63.145 133.218C63.9682 133.467 64.8325 133.551 65.6882 133.465C66.5439 133.379 67.3743 133.125 68.1317 132.718C68.8891 132.311 69.5587 131.758 70.1021 131.091L72.3191 128.319C73.0816 127.364 73.5591 126.213 73.6967 124.998C73.8343 123.784 73.6264 122.555 73.097 121.454C72.5675 120.352 71.738 119.422 70.7037 118.771C69.6694 118.12 68.4723 117.773 67.2501 117.772L67.251 117.773Z" fill="#002037"/>
<path d="M59.571 121.344C59.0933 121.345 58.6205 121.248 58.1811 121.061C57.7416 120.874 57.3446 120.6 57.014 120.255L36.949 99.4211C36.3759 98.8255 36.0285 98.0488 35.9666 97.2246C35.9047 96.4004 36.1323 95.5805 36.61 94.9061L72.717 43.8361C73.0449 43.372 73.4795 42.9936 73.9842 42.7326C74.4888 42.4715 75.0488 42.3355 75.617 42.3361H110.747C111.68 42.3517 112.569 42.7332 113.223 43.3983C113.877 44.0633 114.243 44.9588 114.243 45.8916C114.243 46.8244 113.877 47.7198 113.223 48.3849C112.569 49.0499 111.68 49.4314 110.747 49.4471H77.454L44.111 96.6131L62.133 115.33C62.6165 115.832 62.9415 116.466 63.0676 117.151C63.1937 117.837 63.1153 118.545 62.8422 119.186C62.5691 119.827 62.1133 120.374 61.5317 120.759C60.95 121.143 60.2681 121.348 59.571 121.347V121.344Z" fill="#002037"/>
<path d="M241.593 110.431C239.568 110.433 237.574 109.936 235.787 108.984C234 108.032 232.474 106.654 231.346 104.973C222.282 91.5852 202.667 61.9872 191.781 45.5322C190.054 42.9081 189.386 39.7274 189.909 36.6302C190.433 33.533 192.11 30.7489 194.603 28.8382L226.699 4.38014C227.07 4.09715 227.493 3.89003 227.945 3.77062C228.396 3.6512 228.866 3.62185 229.329 3.68421C229.791 3.74656 230.237 3.89941 230.641 4.13404C231.044 4.36866 231.398 4.68047 231.681 5.05165C231.964 5.42283 232.171 5.84612 232.29 6.29735C232.409 6.74858 232.439 7.2189 232.376 7.68147C232.314 8.14405 232.161 8.58982 231.927 8.99332C231.692 9.39682 231.38 9.75015 231.009 10.0331L198.914 34.4921C197.852 35.3083 197.138 36.4961 196.915 37.8169C196.693 39.1378 196.978 40.494 197.714 41.6131C208.59 58.0471 228.191 87.6251 237.239 100.988C238.006 102.126 239.186 102.92 240.528 103.202C241.87 103.484 243.27 103.233 244.43 102.501L270.557 86.0772C270.952 85.8171 271.395 85.6384 271.86 85.5517C272.325 85.4651 272.803 85.472 273.265 85.5723C273.727 85.6725 274.165 85.864 274.552 86.1356C274.94 86.4071 275.269 86.7532 275.521 87.1536C275.773 87.554 275.942 88.0007 276.019 88.4674C276.096 88.9341 276.079 89.4115 275.97 89.8716C275.86 90.3317 275.659 90.7653 275.38 91.1469C275.1 91.5286 274.748 91.8506 274.342 92.0942L248.21 108.518C246.229 109.766 243.935 110.429 241.593 110.431V110.431Z" fill="#002037"/>
<path d="M32.38 104.16C30.2336 104.161 28.1238 103.603 26.258 102.542L1.80401 88.7191C0.983562 88.255 0.381098 87.4839 0.129143 86.5756C-0.122812 85.6672 -0.00362587 84.696 0.460503 83.8756C0.924632 83.0551 1.69569 82.4527 2.60403 82.2007C3.51236 81.9488 4.48356 82.068 5.30401 82.5321L29.76 96.3551C30.9023 97.0068 32.2473 97.2073 33.53 96.9171C34.8128 96.6269 35.9404 95.867 36.691 94.7871L73.4 42.3871C74.1629 41.3042 74.4898 39.9736 74.3158 38.6605C74.1418 37.3474 73.4796 36.1479 72.461 35.3011L37.255 6.30108C36.895 6.00469 36.5969 5.64028 36.3777 5.22868C36.1585 4.81707 36.0225 4.36632 35.9775 3.90217C35.9325 3.43802 35.9794 2.96955 36.1155 2.52351C36.2515 2.07747 36.4741 1.66259 36.7705 1.30258C37.0669 0.942557 37.4313 0.644446 37.8429 0.425257C38.2545 0.206067 38.7053 0.0701002 39.1694 0.0251102C39.6336 -0.0198798 40.102 0.026991 40.5481 0.16305C40.9941 0.299108 41.409 0.521685 41.769 0.818079L77.005 29.8421C79.4029 31.8229 80.9634 34.6369 81.3736 37.7199C81.7839 40.803 81.0135 43.9272 79.217 46.4661L42.517 98.8661C41.3803 100.501 39.8645 101.837 38.0992 102.759C36.3339 103.681 34.3716 104.162 32.38 104.16V104.16Z" fill="#002037"/>
<path d="M215.036 117.872C214.336 117.873 213.651 117.666 213.068 117.278C212.485 116.891 212.029 116.339 211.759 115.693C211.488 115.048 211.414 114.336 211.547 113.649C211.68 112.961 212.013 112.328 212.504 111.829L228.454 95.5891C229.115 94.9169 230.016 94.5348 230.958 94.5269C231.901 94.5189 232.808 94.8857 233.481 95.5466C234.153 96.2075 234.535 97.1084 234.543 98.0511C234.551 98.9937 234.184 99.9009 233.523 100.573L217.573 116.809C217.242 117.146 216.847 117.413 216.411 117.596C215.976 117.778 215.508 117.872 215.036 117.872V117.872Z" fill="#002037"/>
<path d="M20.564 85.3931C19.9177 85.3913 19.284 85.2135 18.7311 84.8786C18.1783 84.5437 17.7272 84.0645 17.4263 83.4924C17.1254 82.9204 16.9861 82.2771 17.0234 81.6318C17.0608 80.9865 17.2732 80.3636 17.638 79.8301L36.584 52.184C36.848 51.7991 37.1852 51.4699 37.5764 51.2152C37.9675 50.9606 38.4051 50.7854 38.8639 50.6999C39.3228 50.6143 39.794 50.62 40.2507 50.7165C40.7074 50.8131 41.1406 50.9986 41.5255 51.2626C41.9105 51.5265 42.2397 51.8637 42.4944 52.2549C42.749 52.6461 42.9241 53.0836 43.0097 53.5425C43.0953 54.0013 43.0896 54.4725 42.9931 54.9292C42.8965 55.3859 42.711 55.8191 42.447 56.2041L23.501 83.844C23.1744 84.3216 22.7362 84.7124 22.2244 84.9823C21.7126 85.2522 21.1427 85.3932 20.564 85.3931V85.3931Z" fill="#002037"/>
<path d="M248.913 89.2941C248.31 89.2942 247.716 89.1407 247.188 88.848C246.661 88.5553 246.216 88.1331 245.897 87.6211L227.975 58.9211C227.723 58.5253 227.552 58.0835 227.471 57.6212C227.391 57.1588 227.403 56.6852 227.507 56.2275C227.61 55.7698 227.804 55.3372 228.076 54.9548C228.348 54.5723 228.693 54.2475 229.091 53.9991C229.489 53.7507 229.932 53.5836 230.395 53.5076C230.858 53.4316 231.332 53.4481 231.789 53.5561C232.245 53.6642 232.676 53.8616 233.056 54.1371C233.436 54.4126 233.757 54.7606 234.002 55.1611L251.925 83.8611C252.262 84.3988 252.449 85.0169 252.466 85.6511C252.483 86.2854 252.33 86.9126 252.023 87.4677C251.715 88.0228 251.265 88.4854 250.718 88.8075C250.171 89.1296 249.548 89.2993 248.914 89.2991L248.913 89.2941Z" fill="#002037"/>
</svg>
