<svg width="192" height="215" viewBox="0 0 192 215" fill="none" xmlns="http://www.w3.org/2000/svg">
<path d="M97.129 178.647C144.407 178.647 182.733 140.321 182.733 93.043C182.733 45.7652 144.407 7.43896 97.129 7.43896C49.8512 7.43896 11.525 45.7652 11.525 93.043C11.525 140.321 49.8512 178.647 97.129 178.647Z" fill="#FFCE00"/>
<path d="M86.27 151.87C84.7467 151.869 83.2385 151.568 81.8324 150.982C80.4262 150.396 79.1499 149.537 78.077 148.456L43.307 113.695C41.3461 111.75 40.147 109.166 39.9268 106.413C39.7067 103.66 40.4801 100.919 42.107 98.687L95.736 24.595C96.0307 24.1875 96.4103 23.8488 96.8487 23.6025C97.2871 23.3561 97.7737 23.2078 98.275 23.168C98.7752 23.1299 99.2778 23.1994 99.7489 23.3719C100.22 23.5444 100.649 23.8159 101.006 24.168L167.595 90.757C167.95 91.1127 168.223 91.541 168.397 92.0125C168.57 92.484 168.639 92.9874 168.6 93.4883C168.56 93.9891 168.412 94.4753 168.167 94.9136C167.921 95.3518 167.583 95.7317 167.177 96.027L93.077 149.648C91.0991 151.088 88.7165 151.866 86.27 151.87V151.87ZM98.977 31.97L47.742 102.76C47.0893 103.655 46.7788 104.755 46.8666 105.86C46.9545 106.964 47.4349 108.001 48.221 108.782L82.987 143.547C83.7686 144.332 84.8051 144.812 85.9094 144.9C87.0138 144.988 88.1131 144.678 89.009 144.026L159.802 92.795L98.977 31.97Z" fill="#002037"/>
<path d="M171.96 101.744C170.944 101.746 169.938 101.547 168.999 101.159C168.061 100.771 167.208 100.2 166.491 99.481L92.291 25.281C90.8414 23.8299 90.0271 21.8626 90.0271 19.8115C90.0271 17.7604 90.8414 15.7931 92.291 14.342L96.226 10.407C97.6994 9.00011 99.6583 8.21509 101.696 8.21509C103.733 8.21509 105.692 9.00011 107.165 10.407L181.365 84.607C182.815 86.0581 183.629 88.0254 183.629 90.0765C183.629 92.1276 182.815 94.0949 181.365 95.546L177.434 99.481C176.716 100.201 175.862 100.771 174.923 101.159C173.984 101.548 172.977 101.746 171.96 101.744V101.744ZM101.692 15.082C101.589 15.0805 101.486 15.1002 101.39 15.1397C101.295 15.1793 101.208 15.2379 101.136 15.312L97.197 19.247C97.0497 19.3954 96.9671 19.5959 96.9671 19.805C96.9671 20.0141 97.0497 20.2146 97.197 20.363L171.397 94.569C171.547 94.7156 171.748 94.7977 171.957 94.7977C172.166 94.7977 172.367 94.7156 172.517 94.569L176.448 90.634C176.521 90.5608 176.58 90.4738 176.619 90.3781C176.659 90.2823 176.68 90.1797 176.68 90.076C176.68 89.9723 176.659 89.8697 176.619 89.7739C176.58 89.6782 176.521 89.5912 176.448 89.518L102.248 15.312C102.175 15.2385 102.089 15.1803 101.993 15.1408C101.898 15.1013 101.795 15.0813 101.692 15.082V15.082Z" fill="#002037"/>
<path d="M65.312 156.672C64.8561 156.672 64.4046 156.583 63.9834 156.408C63.5621 156.234 63.1794 155.978 62.857 155.656L36.112 128.915C35.7887 128.593 35.5322 128.21 35.3571 127.788C35.1821 127.367 35.092 126.915 35.092 126.458C35.092 126.002 35.1821 125.55 35.3571 125.129C35.5322 124.707 35.7887 124.324 36.112 124.002L47.32 112.794C47.6425 112.471 48.0255 112.215 48.447 112.041C48.8685 111.866 49.3202 111.776 49.7765 111.776C50.2327 111.776 50.6845 111.866 51.106 112.041C51.5275 112.215 51.9105 112.471 52.233 112.794L78.974 139.535C79.2968 139.857 79.5529 140.24 79.7277 140.662C79.9024 141.083 79.9923 141.535 79.9923 141.991C79.9923 142.448 79.9024 142.9 79.7277 143.321C79.5529 143.743 79.2968 144.125 78.974 144.448L67.767 155.656C67.4446 155.978 67.0619 156.234 66.6406 156.408C66.2194 156.583 65.7679 156.672 65.312 156.672ZM43.476 126.456L65.312 148.288L71.612 141.988L49.778 120.158L43.476 126.456Z" fill="#002037"/>
<path d="M96.1 214.773C95.6437 214.774 95.1918 214.684 94.7704 214.509C94.349 214.334 93.9665 214.077 93.645 213.753L67.237 187.353L56.064 183.207C55.5186 183.004 55.033 182.667 54.6516 182.227C54.2703 181.787 54.0054 181.258 53.8813 180.69C53.7572 180.121 53.7779 179.53 53.9414 178.971C54.1048 178.413 54.4059 177.904 54.817 177.492L72.207 160.102C72.5295 159.779 72.9124 159.523 73.3339 159.348C73.7554 159.174 74.2072 159.084 74.6635 159.084C75.1198 159.084 75.5716 159.174 75.9931 159.348C76.4146 159.523 76.7976 159.779 77.12 160.102L98.555 181.535C100.671 183.65 102.349 186.162 103.495 188.926C104.64 191.69 105.229 194.653 105.229 197.644C105.229 200.636 104.64 203.599 103.495 206.363C102.349 209.127 100.671 211.639 98.555 213.754C98.233 214.077 97.8504 214.333 97.4291 214.508C97.0078 214.683 96.5562 214.773 96.1 214.773V214.773ZM63.559 178.573L70.367 181.101C70.8363 181.273 71.2619 181.546 71.614 181.901L95.832 206.119C97.7531 203.078 98.5832 199.473 98.1859 195.898C97.7887 192.323 96.1878 188.989 93.646 186.443L74.667 167.466L63.559 178.573Z" fill="#002037"/>
<path d="M68.96 97.212C68.3204 97.2116 67.6934 97.0344 67.1482 96.7001C66.6029 96.3658 66.1606 95.8873 65.8701 95.3175C65.5796 94.7477 65.4522 94.1087 65.502 93.471C65.5517 92.8334 65.7767 92.2219 66.152 91.704L95.06 51.753C95.6001 51.0068 96.4146 50.5057 97.3241 50.36C98.2337 50.2143 99.1638 50.4359 99.91 50.976C100.656 51.5161 101.157 52.3305 101.303 53.2401C101.449 54.1496 101.227 55.0798 100.687 55.826L71.779 95.78C71.4559 96.2246 71.0319 96.5863 70.5418 96.8352C70.0518 97.0841 69.5097 97.2133 68.96 97.212V97.212Z" fill="#002037"/>
<path d="M166.613 78.24C166.157 78.2403 165.706 78.1508 165.284 77.9765C164.863 77.8021 164.48 77.5464 164.158 77.224L114.542 27.611C114.078 27.1476 113.755 26.5627 113.61 25.9236C113.465 25.2845 113.504 24.6174 113.721 23.9993C113.939 23.3811 114.327 22.8373 114.841 22.4304C115.355 22.0235 115.973 21.7703 116.625 21.7C126.831 20.592 140.965 27.43 152.652 39.117C164.339 50.804 171.17 64.942 170.062 75.14C169.992 75.7912 169.738 76.4092 169.331 76.9225C168.924 77.4357 168.38 77.8231 167.762 78.04C167.393 78.1699 167.004 78.2375 166.613 78.24V78.24ZM126.808 30.047L161.723 64.962C159.364 58.262 154.401 50.686 147.742 44.028C141.083 37.37 133.508 32.406 126.808 30.047Z" fill="#002037"/>
<path d="M160.403 34.841C159.716 34.8401 159.045 34.6358 158.475 34.2539C157.904 33.872 157.459 33.3296 157.197 32.6952C156.934 32.0608 156.865 31.3627 156.999 30.6892C157.133 30.0157 157.463 29.3969 157.948 28.911L165.619 21.24C166.275 20.6113 167.151 20.2648 168.06 20.2747C168.968 20.2847 169.837 20.6502 170.479 21.293C171.121 21.9358 171.486 22.8046 171.495 23.7132C171.504 24.6217 171.156 25.4976 170.527 26.153L162.857 33.82C162.536 34.1438 162.153 34.4008 161.732 34.5761C161.311 34.7513 160.859 34.8413 160.403 34.841Z" fill="#002037"/>
<path d="M140.739 20.8789C140.203 20.8785 139.674 20.7539 139.193 20.515C138.713 20.276 138.295 19.9292 137.971 19.5017C137.647 19.0741 137.426 18.5774 137.326 18.0504C137.226 17.5235 137.249 16.9805 137.394 16.4639L141.23 2.80295C141.347 2.35718 141.552 1.93921 141.833 1.57339C142.113 1.20757 142.463 0.901212 142.863 0.672165C143.263 0.443117 143.705 0.295957 144.162 0.239265C144.62 0.182574 145.084 0.217485 145.528 0.341957C145.972 0.466429 146.386 0.677973 146.747 0.964272C147.109 1.25057 147.409 1.6059 147.632 2.00954C147.854 2.41319 147.994 2.8571 148.044 3.31539C148.093 3.77369 148.051 4.2372 147.919 4.67895L144.083 18.3489C143.877 19.0769 143.438 19.7178 142.835 20.1744C142.232 20.6309 141.496 20.8783 140.739 20.8789V20.8789Z" fill="#002037"/>
<path d="M174.365 54.505C173.526 54.5036 172.716 54.1989 172.084 53.6471C171.453 53.0952 171.042 52.3335 170.928 51.5025C170.814 50.6714 171.004 49.8272 171.464 49.1256C171.924 48.4239 172.622 47.9123 173.429 47.685L187.095 43.849C187.977 43.617 188.914 43.7409 189.705 44.1939C190.496 44.6469 191.078 45.3927 191.324 46.2705C191.57 47.1483 191.461 48.0876 191.021 48.886C190.581 49.6843 189.845 50.2776 188.971 50.538L175.305 54.374C174.999 54.4605 174.683 54.5045 174.365 54.505Z" fill="#002037"/>
<path d="M44.182 191.239C42.0586 191.242 39.9555 190.827 37.9933 190.015C36.0311 189.203 34.2486 188.012 32.748 186.51L20.048 173.81C19.7247 173.488 19.4682 173.106 19.2931 172.684C19.118 172.263 19.0279 171.812 19.0279 171.355C19.0279 170.899 19.118 170.448 19.2931 170.026C19.4682 169.605 19.7247 169.223 20.048 168.901L30.064 158.894C30.9409 158.015 31.4334 156.824 31.4334 155.582C31.4334 154.34 30.9409 153.149 30.064 152.27L28.227 150.433C27.3475 149.555 26.1557 149.062 24.913 149.062C23.6704 149.062 22.4785 149.555 21.599 150.433L11.592 160.443C11.2696 160.766 10.8866 161.022 10.4651 161.197C10.0436 161.371 9.5918 161.461 9.13551 161.461C8.67922 161.461 8.22741 161.371 7.8059 161.197C7.3844 161.022 7.00147 160.766 6.67901 160.443L5.25901 159.016C2.23072 155.981 0.530029 151.868 0.530029 147.58C0.530029 143.293 2.23072 139.18 5.25901 136.145L26.759 114.645C27.4112 113.995 28.2946 113.63 29.2155 113.63C30.1365 113.63 31.0199 113.995 31.672 114.645L77.123 160.096C77.7738 160.748 78.1393 161.631 78.1393 162.552C78.1393 163.474 77.7738 164.357 77.123 165.009L55.623 186.509C54.1216 188.012 52.338 189.204 50.3745 190.016C48.4111 190.827 46.3066 191.243 44.182 191.239V191.239ZM27.421 171.359L37.658 181.6C39.3901 183.327 41.7364 184.297 44.1825 184.297C46.6286 184.297 48.9749 183.327 50.707 181.6L69.754 162.556L29.212 122.016L10.169 141.058C8.62151 142.611 7.6763 144.664 7.50211 146.849C7.32791 149.035 7.93606 151.211 9.21801 152.99L16.69 145.522C18.8725 143.344 21.83 142.12 24.9135 142.12C27.997 142.12 30.9546 143.344 33.137 145.522L34.974 147.355C37.1515 149.539 38.3744 152.497 38.3744 155.58C38.3744 158.664 37.1515 161.622 34.974 163.806L27.421 171.359Z" fill="#002037"/>
<path d="M19.539 177.803C19.0821 177.803 18.6297 177.713 18.2077 177.538C17.7857 177.363 17.4025 177.106 17.08 176.783L3.70899 163.412C3.05791 162.761 2.69214 161.878 2.69214 160.957C2.69214 160.036 3.05791 159.153 3.70899 158.502L16.282 145.929C17.415 144.795 18.7603 143.896 20.2411 143.282C21.7219 142.668 23.3091 142.352 24.912 142.352C26.5149 142.352 28.1021 142.668 29.5829 143.282C31.0637 143.896 32.409 144.795 33.542 145.929L34.566 146.951C36.8503 149.243 38.133 152.347 38.133 155.583C38.133 158.819 36.8503 161.923 34.566 164.215L21.993 176.783C21.6712 177.106 21.2887 177.362 20.8676 177.537C20.4465 177.712 19.995 177.803 19.539 177.803ZM11.078 160.957L19.539 169.418L29.653 159.3C30.6384 158.313 31.1919 156.976 31.1919 155.581C31.1919 154.187 30.6384 152.85 29.653 151.863L28.633 150.843C27.6312 149.887 26.2995 149.353 24.9145 149.353C23.5295 149.353 22.1978 149.887 21.196 150.843L11.078 160.957Z" fill="#002037"/>
</svg>
