<svg xmlns="http://www.w3.org/2000/svg" xmlns:xlink="http://www.w3.org/1999/xlink" width="1920" height="2121" viewBox="0 0 1920 2121">
  <defs>
    <clipPath id="clip-Landing_page_1">
      <rect width="1920" height="2121"/>
    </clipPath>
  </defs>
  <g id="Landing_page_1" data-name="Landing page – 1" clip-path="url(#clip-Landing_page_1)">
    <rect width="1920" height="2121" fill="#fff"/>
    <rect id="Rectangle_36" data-name="Rectangle 36" width="1920" height="304" transform="translate(0 1555)" fill="#ffce00"/>
    <rect id="Rectangle_1" data-name="Rectangle 1" width="1920" height="1581" transform="translate(0 -26)" fill="#f9f9f9"/>
    <text id="Nos_clients" data-name="Nos clients" transform="translate(1183 129)" fill="#1d1d1d" font-size="18" font-family="Roboto-Regular, Roboto"><tspan x="0" y="0">Nos clients</tspan></text>
    <text id="Nos_services" data-name="Nos services" transform="translate(1039 129)" fill="#1d1d1d" font-size="18" font-family="Roboto-Regular, Roboto"><tspan x="0" y="0">Nos services</tspan></text>
    <text id="Nos_Partenaires" data-name="Nos Partenaires" transform="translate(1315 129)" fill="#1d1d1d" font-size="18" font-family="Roboto-Regular, Roboto"><tspan x="0" y="0">Nos Partenaires</tspan></text>
    <path id="Path_3793" data-name="Path 3793" d="M0,0H1920V262H0Z" transform="translate(0 1859)" fill="#f8f8f8"/>
    <text id="A_propos_de_nous_Nos_services_Nos_Clients_Nos_Partenaires" data-name="A propos de nous
Nos services
Nos Clients
Nos Partenaires" transform="translate(554 1917)" fill="#606060" font-size="15" font-family="Roboto-Bold, Roboto" font-weight="700"><tspan x="0" y="14">A propos de nous</tspan><tspan font-family="Roboto-Regular, Roboto" font-weight="400"><tspan x="0" y="44">Nos services</tspan><tspan x="0" y="74">Nos Clients</tspan><tspan x="0" y="104">Nos Partenaires</tspan></tspan></text>
    <text id="A_propos_de_nous_Nos_services_Nos_Clients_Nos_Partenaires-2" data-name="A propos de nous
Nos services
Nos Clients
Nos Partenaires" transform="translate(1260 1917)" fill="#606060" font-size="15" font-family="Roboto-Bold, Roboto" font-weight="700"><tspan x="0" y="14">A propos de nous</tspan><tspan font-family="Roboto-Regular, Roboto" font-weight="400"><tspan x="0" y="44">Nos services</tspan><tspan x="0" y="74">Nos Clients</tspan><tspan x="0" y="104">Nos Partenaires</tspan></tspan></text>
    <g id="Group_67" data-name="Group 67" transform="translate(829.086 1946.488)">
      <path id="Icon_awesome-instagram" data-name="Icon awesome-instagram" d="M15.921,9.994a8.163,8.163,0,1,0,8.163,8.163A8.15,8.15,0,0,0,15.921,9.994Zm0,13.47a5.307,5.307,0,1,1,5.307-5.307,5.317,5.317,0,0,1-5.307,5.307Zm10.4-13.8a1.9,1.9,0,1,1-1.9-1.9A1.9,1.9,0,0,1,26.321,9.66Zm5.406,1.932a9.422,9.422,0,0,0-2.572-6.671A9.484,9.484,0,0,0,22.485,2.35C19.857,2.2,11.978,2.2,9.349,2.35A9.471,9.471,0,0,0,2.678,4.914,9.453,9.453,0,0,0,.107,11.585c-.149,2.629-.149,10.507,0,13.136a9.422,9.422,0,0,0,2.572,6.671,9.5,9.5,0,0,0,6.671,2.572c2.629.149,10.507.149,13.136,0a9.422,9.422,0,0,0,6.671-2.572,9.484,9.484,0,0,0,2.572-6.671c.149-2.629.149-10.5,0-13.129Zm-3.4,15.949a5.373,5.373,0,0,1-3.026,3.026c-2.1.831-7.069.639-9.385.639s-7.3.185-9.385-.639A5.373,5.373,0,0,1,3.51,27.541c-.831-2.1-.639-7.069-.639-9.385s-.185-7.3.639-9.385A5.373,5.373,0,0,1,6.536,5.745c2.1-.831,7.069-.639,9.385-.639s7.3-.185,9.385.639a5.373,5.373,0,0,1,3.026,3.026c.831,2.1.639,7.069.639,9.385S29.163,25.453,28.332,27.541Z" transform="translate(0.005 0.503)" fill="#009c98"/>
      <path id="Icon_awesome-facebook" data-name="Icon awesome-facebook" d="M35.8,18.181A17.619,17.619,0,1,0,15.428,35.587V23.274H10.953V18.181h4.476V14.3c0-4.415,2.629-6.854,6.655-6.854a27.115,27.115,0,0,1,3.944.344v4.334H23.8a2.546,2.546,0,0,0-2.871,2.751v3.307H25.82l-.781,5.093h-4.1V35.587A17.625,17.625,0,0,0,35.8,18.181Z" transform="translate(152.438 -0.563)" fill="#009c98"/>
      <path id="Icon_awesome-twitter" data-name="Icon awesome-twitter" d="M32.635,10.743c.023.323.023.646.023.969,0,9.855-7.5,21.21-21.21,21.21A21.067,21.067,0,0,1,0,29.577a15.422,15.422,0,0,0,1.8.092,14.93,14.93,0,0,0,9.255-3.185,7.468,7.468,0,0,1-6.97-5.17,9.4,9.4,0,0,0,1.408.115,7.884,7.884,0,0,0,1.962-.254,7.456,7.456,0,0,1-5.978-7.316v-.092a7.508,7.508,0,0,0,3.37.946A7.466,7.466,0,0,1,2.539,4.742a21.19,21.19,0,0,0,15.371,7.8,8.416,8.416,0,0,1-.185-1.708,7.462,7.462,0,0,1,12.9-5.1,14.677,14.677,0,0,0,4.731-1.8,7.435,7.435,0,0,1-3.277,4.108,14.945,14.945,0,0,0,4.293-1.154,16.025,16.025,0,0,1-3.739,3.854Z" transform="translate(74 -0.64)" fill="#009c98"/>
      <path id="Icon_awesome-linkedin-in" data-name="Icon awesome-linkedin-in" d="M7.124,31.827H.526V10.578h6.6ZM3.821,7.68A3.84,3.84,0,1,1,7.643,3.822,3.854,3.854,0,0,1,3.821,7.68Zm28,24.148H25.236V21.483c0-2.465-.05-5.627-3.431-5.627-3.431,0-3.956,2.678-3.956,5.449V31.827H11.257V10.578h6.329v2.9h.092a6.933,6.933,0,0,1,6.243-3.431c6.678,0,7.906,4.4,7.906,10.109V31.827Z" transform="translate(230 2.74)" fill="#009c98"/>
    </g>
    <text id="_Copyright_2022_Iragi_Solution._All_Rights_Reserved._Designed_by_Sighted_Design" data-name="© Copyright 2022 Iragi Solution. All Rights Reserved. Designed by Sighted Design" transform="translate(292 2083)" fill="#606060" font-size="14" font-family="Roboto-Regular, Roboto"><tspan x="0" y="0">© Copyright 2022 Iragi Solution. All Rights Reserved. Designed by Sighted Design</tspan></text>
    <text id="Tapez_votre_adresse_mail_ici" data-name="Tapez votre adresse mail ici" transform="translate(692 1714)" fill="#606060" font-size="20" font-family="Roboto-Italic, Roboto" font-style="italic"><tspan x="0" y="0">Tapez votre adresse mail ici</tspan></text>
    <g id="Group_70" data-name="Group 70" transform="translate(-68 -4)">
      <rect id="Rectangle_27" data-name="Rectangle 27" width="157" height="44" transform="translate(1553 104)" fill="#ffce00"/>
      <text id="Contactez_nous" data-name="Contactez nous" transform="translate(1569 133)" fill="#002037" font-size="18" font-family="Roboto-Bold, Roboto" font-weight="700"><tspan x="0" y="0">Contactez nous</tspan></text>
    </g>
    <g id="Group_183" data-name="Group 183" transform="translate(-171 1579)">
      <rect id="Rectangle_27-2" data-name="Rectangle 27" width="260" height="44" transform="translate(1553 104)" fill="#002037"/>
      <text id="Suivant" transform="translate(1653 133)" fill="#ffce00" font-size="18" font-family="Roboto-Bold, Roboto" font-weight="700"><tspan x="0" y="0">Suivant</tspan></text>
    </g>
    <g id="Group_75" data-name="Group 75" transform="translate(23.57 -548.055)">
      <g id="Group_71" data-name="Group 71" transform="translate(273.43 629.708)">
        <path id="Path_3777" data-name="Path 3777" d="M341.326,694.994a8.171,8.171,0,0,0-3.534-.083c-.961.113-3.926.488-4.693.6-5.873.807-11.728,1.742-17.572,2.739-2.04.327-4.332.721-6.712,1.142-.176-4.082-.471-8.159-.838-12.229,2.079-1.451,4.168-2.887,6.281-4.289,2.113-1.368,4.149-2.984,6.522-3.872a30.356,30.356,0,0,0-7.025,2.051c-2.058.758-4.1,1.564-6.13,2.391q-.193-1.94-.4-3.878c-.51-4.591-1.051-9.183-1.826-13.738a16.137,16.137,0,0,0-.79-3.436.866.866,0,0,0-.45-.385.988.988,0,0,0-1.336.978c0,.033.013.065.016.1-.578,7.751-1.464,15.488-1.968,23.25q-2,.9-3.973,1.853c-7.384,3.751-15.106,7.2-21.624,12.373-2.159,2.286-2.618,6.169-.339,8.525,4.275,3.906,10.775,3.934,16.207,3.159,3.073-.5,6.293-1.047,9.57-1.615q.181,3.217.451,6.428-2.705,1.792-5.375,3.635c-7.595,5.387-15.341,10.7-22.279,16.92,9.052-4.169,18.687-8.588,28.4-13.054.024.216.045.431.07.647.27,2.316.58,4.627.9,6.936.963,5.979,1.78,12.057,3.676,17.824-.052-3.487.417-6.968.654-10.445.494-5.992.963-11.992,1.294-18,6.925-3.19,13.83-6.382,20.532-9.5,2.975-1.342,5.917-2.753,8.866-4.148,2.2-1.089,4.587-2.172,6.13-4.143C347.862,698.175,342.92,695.269,341.326,694.994Zm-53.5,7.966c-.569.051-1.141.078-1.712.092,3.861-2.978,8.612-6.3,14.472-10.647-.018.527-.044,1.053-.055,1.58-.091,2.3-.121,4.609-.112,6.913C295.086,701.855,290.268,702.7,287.821,702.96Zm21.13,6.228c2.4-.421,4.79-.841,7.142-1.249q-3.646,2.024-7.2,4.2C308.914,711.158,308.938,710.173,308.952,709.188Z" transform="translate(-273.43 -649.618)" fill="#009c98"/>
        <path id="Path_3778" data-name="Path 3778" d="M345.912,629.708c-4.582.114-4.57,6.826,0,6.952C350.494,636.547,350.482,629.834,345.912,629.708Z" transform="translate(-316.097 -629.708)" fill="#ffce00"/>
      </g>
      <g id="Group_74" data-name="Group 74" transform="translate(366.266 664.485)">
        <g id="Group_72" data-name="Group 72" transform="translate(0.364)">
          <path id="Path_3779" data-name="Path 3779" d="M517.538,740.523a.159.159,0,0,1-.18-.18V721.982a.159.159,0,0,1,.18-.18h3.184a.159.159,0,0,1,.18.18v18.362a.159.159,0,0,1-.18.18Z" transform="translate(-517.358 -721.391)" fill="#002037"/>
          <path id="Path_3780" data-name="Path 3780" d="M538.731,721.956a.136.136,0,0,1,.154-.154h14.433a5.4,5.4,0,0,1,2.324.5,5.928,5.928,0,0,1,1.849,1.348,6.458,6.458,0,0,1,1.233,1.939,5.859,5.859,0,0,1,.449,2.247,5.376,5.376,0,0,1-1.644,3.929,5.561,5.561,0,0,1-1.836,1.168,6.535,6.535,0,0,1-2.3.449q-.1,0-.026.077l6.292,6.856a.1.1,0,0,1,.013.128.123.123,0,0,1-.116.077H555.4a.145.145,0,0,1-.1-.052l-6.472-7.036a.149.149,0,0,0-.1-.051h-6.292a.136.136,0,0,0-.154.154v6.805a.136.136,0,0,1-.154.154h-3.236a.136.136,0,0,1-.154-.154Zm3.7,7.884h10.889a3.019,3.019,0,0,0,.821-.116,2.3,2.3,0,0,0,.745-.36,1.841,1.841,0,0,0,.539-.629,1.885,1.885,0,0,0,.206-.9,2.419,2.419,0,0,0-.193-.963,2.49,2.49,0,0,0-.526-.783,2.871,2.871,0,0,0-.745-.539,1.877,1.877,0,0,0-.847-.205H542.429a.136.136,0,0,0-.154.154v4.186A.136.136,0,0,0,542.429,729.84Z" transform="translate(-530.565 -721.391)" fill="#002037"/>
          <path id="Path_3781" data-name="Path 3781" d="M601.2,740.241l9.168-18.336a.281.281,0,0,1,.18-.1H614.4a.186.186,0,0,1,.18.1l9.193,18.336a.2.2,0,0,1-.013.205.191.191,0,0,1-.167.1h-3.518a.182.182,0,0,1-.18-.128l-1.541-3.082a.184.184,0,0,0-.18-.1h-11.4a.164.164,0,0,0-.154.1l-1.541,3.082a.216.216,0,0,1-.18.128h-3.519a.183.183,0,0,1-.18-.1A.217.217,0,0,1,601.2,740.241Zm7.422-6.549h7.7a.126.126,0,0,0,.115-.064.086.086,0,0,0-.013-.115l-3.878-7.755c-.035-.086-.077-.086-.128,0l-3.9,7.755C608.481,733.632,608.515,733.692,608.618,733.692Z" transform="translate(-569.147 -721.391)" fill="#002037"/>
          <path id="Path_3782" data-name="Path 3782" d="M678.3,740.27a18.949,18.949,0,0,1-4.584-.565,13.638,13.638,0,0,1-4.083-1.72,9.449,9.449,0,0,1-2.941-2.941,7.681,7.681,0,0,1-1.13-4.2,8.853,8.853,0,0,1,.591-3.338,9.193,9.193,0,0,1,1.566-2.594,9.771,9.771,0,0,1,2.26-1.926,14.105,14.105,0,0,1,2.684-1.3,16.459,16.459,0,0,1,5.432-.963q1.668,0,3.017.1t2.349.244q1,.142,1.657.27a8.524,8.524,0,0,1,.886.206.165.165,0,0,1,.154.18l.205,3.7a.182.182,0,0,1-.205.206.145.145,0,0,1-.1-.026,14.05,14.05,0,0,0-3.056-.924,24.635,24.635,0,0,0-4.9-.411,12.965,12.965,0,0,0-3.454.449,9.439,9.439,0,0,0-2.863,1.3,6.492,6.492,0,0,0-1.952,2.067,5.333,5.333,0,0,0-.719,2.761,4.349,4.349,0,0,0,.462,2.042,5.2,5.2,0,0,0,1.22,1.541,7.079,7.079,0,0,0,1.721,1.091,12.412,12.412,0,0,0,1.99.706,14.547,14.547,0,0,0,2.016.385,15.471,15.471,0,0,0,1.785.116,12.464,12.464,0,0,0,1.913-.141,14.526,14.526,0,0,0,1.7-.36q.783-.218,1.412-.462t1.066-.449a.265.265,0,0,0,.154-.257v-2.594a.182.182,0,0,0-.206-.206h-7.987a.181.181,0,0,1-.206-.205v-3.107a.182.182,0,0,1,.206-.206h11.531a.182.182,0,0,1,.205.206v8.115a.37.37,0,0,1-.128.257q-.283.18-1.117.668a15.709,15.709,0,0,1-2.093.988,21.7,21.7,0,0,1-2.9.9A15.027,15.027,0,0,1,678.3,740.27Z" transform="translate(-608.935 -720.727)" fill="#002037"/>
          <path id="Path_3783" data-name="Path 3783" d="M735.439,740.523a.159.159,0,0,1-.18-.18V721.982a.159.159,0,0,1,.18-.18h3.184a.159.159,0,0,1,.18.18v18.362a.159.159,0,0,1-.18.18Z" transform="translate(-652.003 -721.391)" fill="#002037"/>
        </g>
        <g id="Group_73" data-name="Group 73" transform="translate(0 23.828)">
          <path id="Path_3784" data-name="Path 3784" d="M521.274,791.494a13.874,13.874,0,0,1-1.751-.1q-.778-.1-1.347-.226a8.783,8.783,0,0,1-.906-.243c-.225-.078-.37-.131-.436-.16-.022-.015-.033-.029-.033-.044l-.166-1.7c0-.052.018-.077.055-.077a.024.024,0,0,1,.016.005.022.022,0,0,0,.016.006q.155.088.519.259a6.481,6.481,0,0,0,.939.337,11.771,11.771,0,0,0,1.347.293,10.809,10.809,0,0,0,1.745.127,5.662,5.662,0,0,0,1.993-.282q.723-.282.723-.745a.419.419,0,0,0-.177-.315,1.611,1.611,0,0,0-.563-.265,5.718,5.718,0,0,0-.983-.182,13.343,13.343,0,0,0-1.447-.066,10.322,10.322,0,0,1-1.795-.133,5.535,5.535,0,0,1-1.226-.348,2.706,2.706,0,0,1-.773-.481,2,2,0,0,1-.42-.535,1.62,1.62,0,0,1-.171-.513,3.046,3.046,0,0,1-.033-.4,1.912,1.912,0,0,1,.436-1.292,3.009,3.009,0,0,1,1.121-.8,5.956,5.956,0,0,1,1.541-.409,12.545,12.545,0,0,1,1.684-.116,9.32,9.32,0,0,1,1.375.094q.624.095,1.1.216a6.98,6.98,0,0,1,.773.238q.3.116.386.16c.022,0,.033.015.033.044l.11,1.645c.015.044,0,.066-.055.066a.022.022,0,0,1-.017-.005.024.024,0,0,0-.016-.006,5.158,5.158,0,0,0-.558-.281,6.78,6.78,0,0,0-.845-.3,9.356,9.356,0,0,0-1.066-.243,7.193,7.193,0,0,0-1.22-.1,10.294,10.294,0,0,0-1.678.11,4.235,4.235,0,0,0-.994.271,1.021,1.021,0,0,0-.47.353.707.707,0,0,0-.116.359q0,.464.773.674a8.424,8.424,0,0,0,2.12.21q.409,0,.917.022a9.354,9.354,0,0,1,1.038.105,7.592,7.592,0,0,1,1.038.237,3.314,3.314,0,0,1,.906.425,2.169,2.169,0,0,1,.64.668,1.788,1.788,0,0,1,.243.95,2.147,2.147,0,0,1-.044.358,1.8,1.8,0,0,1-.193.514,2.486,2.486,0,0,1-.436.563,2.879,2.879,0,0,1-.767.524,5.044,5.044,0,0,1-1.187.387A8.337,8.337,0,0,1,521.274,791.494Z" transform="translate(-516.404 -783.09)" fill="#002037"/>
          <path id="Path_3785" data-name="Path 3785" d="M548.916,791.494a5.081,5.081,0,0,1-1.094-.127,6.168,6.168,0,0,1-1.132-.37,5.988,5.988,0,0,1-1.066-.6,4.559,4.559,0,0,1-.894-.828,3.877,3.877,0,0,1-.613-1.038,3.329,3.329,0,0,1-.226-1.242,3.642,3.642,0,0,1,.856-2.419,4.24,4.24,0,0,1,.9-.8,5.521,5.521,0,0,1,1.066-.552,6.3,6.3,0,0,1,1.126-.321,5.979,5.979,0,0,1,1.077-.1,6.213,6.213,0,0,1,1.706.254,5.407,5.407,0,0,1,1.629.773,4.331,4.331,0,0,1,1.22,1.309,3.507,3.507,0,0,1,.481,1.861,3.824,3.824,0,0,1-.381,1.712,3.99,3.99,0,0,1-1.06,1.33,4.936,4.936,0,0,1-1.6.862A6.33,6.33,0,0,1,548.916,791.494Zm0-6.88a4.319,4.319,0,0,0-1.364.21,3.715,3.715,0,0,0-1.11.574,2.827,2.827,0,0,0-.751.85,2.068,2.068,0,0,0-.276,1.038,2.1,2.1,0,0,0,.276,1.043,2.808,2.808,0,0,0,.751.856,3.716,3.716,0,0,0,1.11.574,4.53,4.53,0,0,0,2.727,0,3.8,3.8,0,0,0,1.116-.574,2.775,2.775,0,0,0,.756-.856,2.1,2.1,0,0,0,.276-1.043,2.067,2.067,0,0,0-.276-1.038,2.794,2.794,0,0,0-.756-.85,3.8,3.8,0,0,0-1.116-.574A4.321,4.321,0,0,0,548.916,784.614Z" transform="translate(-533.389 -783.09)" fill="#002037"/>
          <path id="Path_3786" data-name="Path 3786" d="M574.887,791.6a.088.088,0,0,1-.1-.1v-7.852a.088.088,0,0,1,.1-.1h1.325a.088.088,0,0,1,.1.1v6.328a.088.088,0,0,0,.1.1h6.25c.059,0,.081.029.066.089l-.442,1.391a.071.071,0,0,1-.066.044Z" transform="translate(-552.481 -783.375)" fill="#002037"/>
          <path id="Path_3787" data-name="Path 3787" d="M599.171,783.552h1.259a.132.132,0,0,1,.133.133v4.064a2.293,2.293,0,0,0,.276,1.17,2.349,2.349,0,0,0,.712.773,2.947,2.947,0,0,0,.994.431,4.8,4.8,0,0,0,2.242,0,2.944,2.944,0,0,0,.994-.431,2.355,2.355,0,0,0,.713-.773,2.3,2.3,0,0,0,.276-1.17v-4.064a.117.117,0,0,1,.133-.133h1.259a.117.117,0,0,1,.133.133v4.064a3.923,3.923,0,0,1-.337,1.645,3.7,3.7,0,0,1-.944,1.27,4.337,4.337,0,0,1-1.458.823,6.256,6.256,0,0,1-3.783,0,4.322,4.322,0,0,1-1.463-.823,3.639,3.639,0,0,1-.939-1.27,3.981,3.981,0,0,1-.331-1.645v-4.064A.117.117,0,0,1,599.171,783.552Z" transform="translate(-567.465 -783.375)" fill="#002037"/>
          <path id="Path_3788" data-name="Path 3788" d="M626.727,784.866l.453-1.292a.02.02,0,0,1,.022-.022h8.4a.02.02,0,0,1,.022.022l.475,1.292a.03.03,0,0,1-.034.033H632.2a.029.029,0,0,0-.034.033v6.6c0,.044-.018.066-.055.066h-1.4c-.037,0-.055-.022-.055-.066v-6.6a.029.029,0,0,0-.033-.033H626.76A.029.029,0,0,1,626.727,784.866Z" transform="translate(-584.575 -783.375)" fill="#002037"/>
          <path id="Path_3789" data-name="Path 3789" d="M654.55,791.6a.068.068,0,0,1-.077-.077v-7.9a.068.068,0,0,1,.077-.078h1.369a.069.069,0,0,1,.078.078v7.9a.069.069,0,0,1-.078.077Z" transform="translate(-601.719 -783.375)" fill="#002037"/>
          <path id="Path_3790" data-name="Path 3790" d="M668.053,791.494a5.074,5.074,0,0,1-1.093-.127,6.174,6.174,0,0,1-1.132-.37,6.008,6.008,0,0,1-1.066-.6,4.582,4.582,0,0,1-.894-.828,3.877,3.877,0,0,1-.612-1.038,3.322,3.322,0,0,1-.227-1.242,3.738,3.738,0,0,1,.232-1.353,3.7,3.7,0,0,1,.624-1.066,4.237,4.237,0,0,1,.9-.8,5.525,5.525,0,0,1,1.066-.552,6.309,6.309,0,0,1,1.126-.321,5.979,5.979,0,0,1,1.077-.1,6.21,6.21,0,0,1,1.706.254,5.4,5.4,0,0,1,1.629.773,4.328,4.328,0,0,1,1.22,1.309,3.508,3.508,0,0,1,.481,1.861,3.819,3.819,0,0,1-.381,1.712,3.988,3.988,0,0,1-1.06,1.33,4.945,4.945,0,0,1-1.6.862A6.329,6.329,0,0,1,668.053,791.494Zm0-6.88a4.323,4.323,0,0,0-1.364.21,3.717,3.717,0,0,0-1.109.574,2.828,2.828,0,0,0-.751.85,2.068,2.068,0,0,0-.276,1.038,2.1,2.1,0,0,0,.276,1.043,2.809,2.809,0,0,0,.751.856,3.718,3.718,0,0,0,1.109.574,4.532,4.532,0,0,0,2.728,0,3.808,3.808,0,0,0,1.115-.574,2.785,2.785,0,0,0,.756-.856,2.1,2.1,0,0,0,.276-1.043,2.071,2.071,0,0,0-.276-1.038,2.8,2.8,0,0,0-.756-.85,3.807,3.807,0,0,0-1.115-.574A4.326,4.326,0,0,0,668.053,784.614Z" transform="translate(-607.006 -783.09)" fill="#002037"/>
          <path id="Path_3791" data-name="Path 3791" d="M694.035,783.563h1.115c.044,0,.07.011.078.033l5.7,5.533a.045.045,0,0,0,.033.011.029.029,0,0,0,.033-.033l-.011-5.445a.1.1,0,0,1,.11-.11h1.3a.1.1,0,0,1,.11.11l.011,7.819a.107.107,0,0,1-.121.122h-1.06a.085.085,0,0,1-.077-.033l-5.754-5.588c-.015-.015-.028-.018-.039-.011a.038.038,0,0,0-.016.033v5.489q0,.111-.121.11h-1.292a.1.1,0,0,1-.11-.11v-7.819A.1.1,0,0,1,694.035,783.563Z" transform="translate(-626.098 -783.375)" fill="#002037"/>
          <path id="Path_3792" data-name="Path 3792" d="M725.328,791.494a13.861,13.861,0,0,1-1.75-.1q-.779-.1-1.347-.226a8.785,8.785,0,0,1-.906-.243c-.225-.078-.37-.131-.436-.16-.022-.015-.033-.029-.033-.044l-.165-1.7c0-.052.018-.077.055-.077a.025.025,0,0,1,.017.005.022.022,0,0,0,.016.006q.155.088.519.259a6.478,6.478,0,0,0,.939.337,11.793,11.793,0,0,0,1.348.293,10.8,10.8,0,0,0,1.745.127,5.663,5.663,0,0,0,1.993-.282q.723-.282.723-.745a.419.419,0,0,0-.177-.315,1.614,1.614,0,0,0-.563-.265,5.717,5.717,0,0,0-.983-.182,13.332,13.332,0,0,0-1.447-.066,10.316,10.316,0,0,1-1.795-.133,5.529,5.529,0,0,1-1.226-.348,2.7,2.7,0,0,1-.773-.481,2,2,0,0,1-.42-.535,1.62,1.62,0,0,1-.171-.513,3.121,3.121,0,0,1-.033-.4,1.912,1.912,0,0,1,.436-1.292,3,3,0,0,1,1.121-.8,5.953,5.953,0,0,1,1.541-.409,12.55,12.55,0,0,1,1.684-.116,9.316,9.316,0,0,1,1.375.094q.624.095,1.1.216a6.989,6.989,0,0,1,.773.238q.3.116.386.16c.022,0,.033.015.033.044l.11,1.645c.015.044,0,.066-.055.066a.023.023,0,0,1-.017-.005.023.023,0,0,0-.016-.006,5.145,5.145,0,0,0-.557-.281,6.806,6.806,0,0,0-.845-.3,9.363,9.363,0,0,0-1.066-.243,7.187,7.187,0,0,0-1.22-.1,10.292,10.292,0,0,0-1.678.11,4.245,4.245,0,0,0-.994.271,1.018,1.018,0,0,0-.469.353.708.708,0,0,0-.116.359q0,.464.773.674a8.428,8.428,0,0,0,2.121.21q.409,0,.917.022a9.353,9.353,0,0,1,1.038.105,7.605,7.605,0,0,1,1.038.237,3.325,3.325,0,0,1,.906.425,2.178,2.178,0,0,1,.64.668,1.788,1.788,0,0,1,.243.95,2.177,2.177,0,0,1-.044.358,1.8,1.8,0,0,1-.193.514,2.5,2.5,0,0,1-.436.563,2.876,2.876,0,0,1-.768.524,5.035,5.035,0,0,1-1.187.387A8.339,8.339,0,0,1,725.328,791.494Z" transform="translate(-642.493 -783.09)" fill="#002037"/>
        </g>
      </g>
    </g>
    <text id="Nos_services-2" data-name="Nos services" transform="translate(809 281)" fill="#002037" font-size="50" font-family="Roboto-Bold, Roboto" font-weight="700"><tspan x="0" y="46">Nos services</tspan></text>
    <text id="Contactez-nous" transform="translate(278 1675)" fill="#002037" font-size="50" font-family="Roboto-Bold, Roboto" font-weight="700"><tspan x="0" y="46">Contactez-nous</tspan></text>
    <g id="Group_78" data-name="Group 78" transform="translate(6.57 1287.292)">
      <g id="Group_71-2" data-name="Group 71" transform="translate(273.43 629.708)">
        <path id="Path_3777-2" data-name="Path 3777" d="M318.694,683.972a5.447,5.447,0,0,0-2.356-.055c-.641.075-2.617.325-3.129.4-3.916.538-7.819,1.162-11.715,1.826-1.36.218-2.888.481-4.475.761-.117-2.721-.314-5.439-.559-8.153,1.386-.967,2.779-1.925,4.188-2.859A23.5,23.5,0,0,1,305,673.313a20.236,20.236,0,0,0-4.683,1.367c-1.372.506-2.732,1.042-4.087,1.594q-.128-1.293-.265-2.585c-.34-3.061-.7-6.122-1.217-9.159a10.76,10.76,0,0,0-.527-2.291.577.577,0,0,0-.3-.257.659.659,0,0,0-.891.652c0,.022.009.043.011.065-.385,5.167-.976,10.325-1.312,15.5q-1.331.6-2.649,1.235c-4.922,2.5-10.07,4.8-14.416,8.248a4.2,4.2,0,0,0-.226,5.683c2.85,2.6,7.184,2.623,10.8,2.106,2.049-.332,4.2-.7,6.38-1.076q.12,2.145.3,4.285-1.8,1.195-3.583,2.423a164.221,164.221,0,0,0-14.853,11.28c6.035-2.779,12.458-5.725,18.931-8.7.016.144.03.288.046.431.18,1.544.386,3.084.6,4.624a77.049,77.049,0,0,0,2.451,11.883c-.035-2.325.278-4.646.436-6.963.329-3.995.642-7.995.862-12,4.617-2.127,9.22-4.254,13.688-6.334,1.983-.894,3.945-1.835,5.911-2.766A11.23,11.23,0,0,0,320.5,689.8C323.051,686.093,319.757,684.155,318.694,683.972Zm-35.67,5.311c-.38.034-.76.052-1.141.061,2.574-1.985,5.741-4.2,9.648-7.1-.012.351-.029.7-.037,1.054-.061,1.536-.081,3.072-.074,4.609C287.867,688.546,284.655,689.109,283.024,689.283Zm14.087,4.152c1.6-.281,3.193-.561,4.761-.832q-2.431,1.349-4.8,2.8C297.086,694.748,297.1,694.092,297.111,693.435Z" transform="translate(-273.43 -653.721)" fill="#606060"/>
        <path id="Path_3778-2" data-name="Path 3778" d="M344.768,629.708a2.318,2.318,0,0,0,0,4.635A2.318,2.318,0,0,0,344.768,629.708Z" transform="translate(-324.891 -629.708)" fill="#606060"/>
      </g>
      <g id="Group_74-2" data-name="Group 74" transform="translate(335.321 652.892)">
        <g id="Group_72-2" data-name="Group 72" transform="translate(0.243)">
          <path id="Path_3779-2" data-name="Path 3779" d="M517.478,734.283a.106.106,0,0,1-.12-.12V721.922a.106.106,0,0,1,.12-.12H519.6a.106.106,0,0,1,.12.12v12.241a.106.106,0,0,1-.12.12Z" transform="translate(-517.358 -721.528)" fill="#606060"/>
          <path id="Path_3780-2" data-name="Path 3780" d="M538.731,721.9a.091.091,0,0,1,.1-.1h9.622a3.6,3.6,0,0,1,1.549.334,3.952,3.952,0,0,1,1.233.9,4.306,4.306,0,0,1,.822,1.293,3.907,3.907,0,0,1,.3,1.5,3.584,3.584,0,0,1-1.1,2.62,3.708,3.708,0,0,1-1.224.779,4.356,4.356,0,0,1-1.532.3q-.068,0-.017.051l4.194,4.571a.068.068,0,0,1,.009.086.082.082,0,0,1-.077.051h-2.773a.1.1,0,0,1-.068-.034l-4.314-4.691a.1.1,0,0,0-.068-.034H541.2a.091.091,0,0,0-.1.1v4.537a.091.091,0,0,1-.1.1h-2.157a.091.091,0,0,1-.1-.1Zm2.465,5.256h7.259a2.012,2.012,0,0,0,.548-.077,1.533,1.533,0,0,0,.5-.24,1.227,1.227,0,0,0,.359-.419,1.257,1.257,0,0,0,.137-.6,1.612,1.612,0,0,0-.128-.642,1.66,1.66,0,0,0-.351-.522,1.914,1.914,0,0,0-.5-.36,1.252,1.252,0,0,0-.565-.137H541.2a.091.091,0,0,0-.1.1v2.791A.091.091,0,0,0,541.2,727.161Z" transform="translate(-533.287 -721.528)" fill="#606060"/>
          <path id="Path_3781-2" data-name="Path 3781" d="M601.188,734.095l6.112-12.224a.187.187,0,0,1,.12-.069h2.568a.124.124,0,0,1,.12.069l6.129,12.224a.131.131,0,0,1-.009.137.127.127,0,0,1-.111.069h-2.345a.121.121,0,0,1-.12-.086l-1.027-2.055a.123.123,0,0,0-.12-.068h-7.6a.11.11,0,0,0-.1.068l-1.027,2.055a.144.144,0,0,1-.12.086h-2.346a.122.122,0,0,1-.12-.069A.144.144,0,0,1,601.188,734.095Zm4.948-4.366h5.136a.084.084,0,0,0,.077-.043.057.057,0,0,0-.009-.077l-2.585-5.17c-.023-.057-.051-.057-.086,0l-2.6,5.17C606.044,729.689,606.067,729.729,606.135,729.729Z" transform="translate(-579.822 -721.528)" fill="#606060"/>
          <path id="Path_3782-2" data-name="Path 3782" d="M674.053,733.756a12.637,12.637,0,0,1-3.056-.377,9.1,9.1,0,0,1-2.722-1.147,6.3,6.3,0,0,1-1.96-1.96,5.12,5.12,0,0,1-.753-2.8,5.9,5.9,0,0,1,.394-2.225A6.128,6.128,0,0,1,667,723.518a6.515,6.515,0,0,1,1.507-1.284,9.406,9.406,0,0,1,1.789-.865,10.971,10.971,0,0,1,3.621-.642q1.112,0,2.012.068t1.566.163q.668.094,1.1.18a5.686,5.686,0,0,1,.591.137.11.11,0,0,1,.1.12l.137,2.465a.121.121,0,0,1-.137.137.1.1,0,0,1-.069-.017,9.363,9.363,0,0,0-2.037-.616,16.423,16.423,0,0,0-3.27-.274,8.646,8.646,0,0,0-2.3.3,6.3,6.3,0,0,0-1.909.865,4.327,4.327,0,0,0-1.3,1.378,3.555,3.555,0,0,0-.479,1.84,2.9,2.9,0,0,0,.308,1.361,3.465,3.465,0,0,0,.813,1.027,4.721,4.721,0,0,0,1.147.727,8.265,8.265,0,0,0,1.327.471,9.709,9.709,0,0,0,1.344.257,10.332,10.332,0,0,0,1.19.077,8.314,8.314,0,0,0,1.275-.094,9.658,9.658,0,0,0,1.13-.24q.522-.145.941-.308t.711-.3a.177.177,0,0,0,.1-.171v-1.729a.121.121,0,0,0-.137-.137h-5.324a.121.121,0,0,1-.137-.137v-2.072a.121.121,0,0,1,.137-.137h7.687a.121.121,0,0,1,.137.137v5.41a.246.246,0,0,1-.086.171q-.189.12-.745.445a10.487,10.487,0,0,1-1.4.659,14.467,14.467,0,0,1-1.935.6A10.018,10.018,0,0,1,674.053,733.756Z" transform="translate(-627.811 -720.727)" fill="#606060"/>
          <path id="Path_3783-2" data-name="Path 3783" d="M735.379,734.283a.106.106,0,0,1-.12-.12V721.922a.106.106,0,0,1,.12-.12H737.5a.106.106,0,0,1,.12.12v12.241a.106.106,0,0,1-.12.12Z" transform="translate(-679.755 -721.528)" fill="#606060"/>
        </g>
        <g id="Group_73-2" data-name="Group 73" transform="translate(0 15.885)">
          <path id="Path_3784-2" data-name="Path 3784" d="M519.651,788.693a9.247,9.247,0,0,1-1.167-.067q-.519-.066-.9-.151a5.864,5.864,0,0,1-.6-.162c-.15-.052-.246-.087-.291-.107-.015-.01-.022-.019-.022-.029l-.111-1.134c0-.034.012-.052.037-.052a.016.016,0,0,1,.011,0,.014.014,0,0,0,.011,0q.1.059.346.173a4.312,4.312,0,0,0,.626.224,7.835,7.835,0,0,0,.9.2,7.2,7.2,0,0,0,1.163.085,3.775,3.775,0,0,0,1.329-.188q.482-.188.482-.5a.279.279,0,0,0-.118-.21,1.074,1.074,0,0,0-.375-.177,3.81,3.81,0,0,0-.655-.122,8.89,8.89,0,0,0-.965-.044,6.881,6.881,0,0,1-1.2-.088,3.69,3.69,0,0,1-.817-.232,1.8,1.8,0,0,1-.515-.32,1.331,1.331,0,0,1-.28-.357,1.08,1.08,0,0,1-.114-.342,2.035,2.035,0,0,1-.022-.265,1.275,1.275,0,0,1,.291-.861,2.006,2.006,0,0,1,.747-.534,3.969,3.969,0,0,1,1.027-.273,8.355,8.355,0,0,1,1.122-.077,6.209,6.209,0,0,1,.917.062q.416.063.733.144a4.662,4.662,0,0,1,.515.158q.2.077.258.107c.015,0,.022.01.022.03l.074,1.1c.01.03,0,.044-.037.044a.014.014,0,0,1-.011,0,.016.016,0,0,0-.011,0,3.437,3.437,0,0,0-.372-.187,4.517,4.517,0,0,0-.563-.2,6.226,6.226,0,0,0-.71-.162,4.793,4.793,0,0,0-.814-.066,6.866,6.866,0,0,0-1.119.074,2.824,2.824,0,0,0-.663.18.68.68,0,0,0-.313.236.471.471,0,0,0-.077.239q0,.309.515.449a5.616,5.616,0,0,0,1.413.14q.272,0,.611.014a6.244,6.244,0,0,1,.692.07,5.058,5.058,0,0,1,.692.158,2.211,2.211,0,0,1,.6.283,1.445,1.445,0,0,1,.427.445,1.192,1.192,0,0,1,.162.633,1.44,1.44,0,0,1-.03.239,1.2,1.2,0,0,1-.129.343,1.661,1.661,0,0,1-.291.375,1.921,1.921,0,0,1-.511.35,3.362,3.362,0,0,1-.792.258A5.556,5.556,0,0,1,519.651,788.693Z" transform="translate(-516.404 -783.09)" fill="#606060"/>
          <path id="Path_3785-2" data-name="Path 3785" d="M547.241,788.693a3.386,3.386,0,0,1-.729-.085,4.107,4.107,0,0,1-.755-.247,3.993,3.993,0,0,1-.71-.4,3.041,3.041,0,0,1-.6-.552,2.585,2.585,0,0,1-.409-.692,2.219,2.219,0,0,1-.151-.828,2.429,2.429,0,0,1,.571-1.612,2.827,2.827,0,0,1,.6-.534,3.68,3.68,0,0,1,.71-.368,4.2,4.2,0,0,1,.751-.214,3.987,3.987,0,0,1,.718-.07,4.143,4.143,0,0,1,1.138.169,3.606,3.606,0,0,1,1.086.515,2.888,2.888,0,0,1,.813.872,2.338,2.338,0,0,1,.32,1.241,2.55,2.55,0,0,1-.254,1.141,2.661,2.661,0,0,1-.707.887,3.291,3.291,0,0,1-1.064.574A4.22,4.22,0,0,1,547.241,788.693Zm0-4.587a2.878,2.878,0,0,0-.909.14,2.477,2.477,0,0,0-.74.383,1.884,1.884,0,0,0-.5.567,1.378,1.378,0,0,0-.184.692,1.4,1.4,0,0,0,.184.7,1.872,1.872,0,0,0,.5.571,2.478,2.478,0,0,0,.74.383,3.02,3.02,0,0,0,1.818,0,2.534,2.534,0,0,0,.744-.383,1.851,1.851,0,0,0,.5-.571,1.4,1.4,0,0,0,.184-.7,1.378,1.378,0,0,0-.184-.692,1.863,1.863,0,0,0-.5-.567,2.533,2.533,0,0,0-.744-.383A2.88,2.88,0,0,0,547.241,784.106Z" transform="translate(-536.889 -783.09)" fill="#606060"/>
          <path id="Path_3786-2" data-name="Path 3786" d="M574.854,788.919a.059.059,0,0,1-.066-.066v-5.235a.059.059,0,0,1,.066-.066h.883a.059.059,0,0,1,.066.066v4.219a.059.059,0,0,0,.066.066h4.167q.059,0,.044.059l-.295.927a.047.047,0,0,1-.044.03Z" transform="translate(-559.916 -783.434)" fill="#606060"/>
          <path id="Path_3787-2" data-name="Path 3787" d="M599.126,783.552h.839a.088.088,0,0,1,.088.088v2.709a1.529,1.529,0,0,0,.184.78,1.565,1.565,0,0,0,.475.515,1.964,1.964,0,0,0,.663.287,3.2,3.2,0,0,0,1.494,0,1.963,1.963,0,0,0,.663-.287,1.57,1.57,0,0,0,.475-.515,1.531,1.531,0,0,0,.184-.78V783.64a.078.078,0,0,1,.088-.088h.839a.078.078,0,0,1,.088.088v2.709a2.615,2.615,0,0,1-.225,1.1,2.467,2.467,0,0,1-.629.847,2.892,2.892,0,0,1-.972.549,4.171,4.171,0,0,1-2.522,0,2.882,2.882,0,0,1-.975-.549,2.426,2.426,0,0,1-.626-.847,2.654,2.654,0,0,1-.221-1.1V783.64A.078.078,0,0,1,599.126,783.552Z" transform="translate(-577.989 -783.434)" fill="#606060"/>
          <path id="Path_3788-2" data-name="Path 3788" d="M626.727,784.428l.3-.861a.013.013,0,0,1,.015-.015h5.6a.013.013,0,0,1,.014.015l.317.861a.02.02,0,0,1-.022.022h-2.576a.02.02,0,0,0-.022.022v4.4c0,.029-.012.044-.037.044h-.935c-.024,0-.037-.015-.037-.044v-4.4a.019.019,0,0,0-.022-.022h-2.577A.02.02,0,0,1,626.727,784.428Z" transform="translate(-598.625 -783.434)" fill="#606060"/>
          <path id="Path_3789-2" data-name="Path 3789" d="M654.524,788.919a.046.046,0,0,1-.051-.052V783.6a.046.046,0,0,1,.051-.052h.913a.046.046,0,0,1,.052.052v5.264a.046.046,0,0,1-.052.052Z" transform="translate(-619.304 -783.434)" fill="#606060"/>
          <path id="Path_3790-2" data-name="Path 3790" d="M666.378,788.693a3.382,3.382,0,0,1-.729-.085,4.111,4.111,0,0,1-.755-.247,4.006,4.006,0,0,1-.711-.4,3.054,3.054,0,0,1-.6-.552,2.585,2.585,0,0,1-.408-.692,2.214,2.214,0,0,1-.151-.828,2.492,2.492,0,0,1,.155-.9,2.463,2.463,0,0,1,.416-.71,2.825,2.825,0,0,1,.6-.534,3.682,3.682,0,0,1,.711-.368,4.2,4.2,0,0,1,.751-.214,3.987,3.987,0,0,1,.718-.07,4.141,4.141,0,0,1,1.137.169,3.6,3.6,0,0,1,1.086.515,2.885,2.885,0,0,1,.814.872,2.339,2.339,0,0,1,.32,1.241,2.547,2.547,0,0,1-.254,1.141,2.66,2.66,0,0,1-.707.887,3.3,3.3,0,0,1-1.064.574A4.219,4.219,0,0,1,666.378,788.693Zm0-4.587a2.881,2.881,0,0,0-.909.14,2.479,2.479,0,0,0-.74.383,1.885,1.885,0,0,0-.5.567,1.378,1.378,0,0,0-.184.692,1.4,1.4,0,0,0,.184.7,1.873,1.873,0,0,0,.5.571,2.48,2.48,0,0,0,.74.383,3.022,3.022,0,0,0,1.819,0,2.539,2.539,0,0,0,.744-.383,1.857,1.857,0,0,0,.5-.571,1.4,1.4,0,0,0,.184-.7,1.381,1.381,0,0,0-.184-.692,1.87,1.87,0,0,0-.5-.567,2.538,2.538,0,0,0-.744-.383A2.883,2.883,0,0,0,666.378,784.106Z" transform="translate(-625.68 -783.09)" fill="#606060"/>
          <path id="Path_3791-2" data-name="Path 3791" d="M694,783.559h.744c.03,0,.047.007.052.022l3.8,3.689a.03.03,0,0,0,.022.007.019.019,0,0,0,.022-.022l-.007-3.63a.065.065,0,0,1,.074-.074h.869a.065.065,0,0,1,.074.074l.007,5.213a.072.072,0,0,1-.081.081h-.707a.057.057,0,0,1-.051-.022l-3.836-3.725c-.01-.01-.018-.012-.026-.007a.025.025,0,0,0-.011.022v3.659q0,.074-.081.074H694a.065.065,0,0,1-.074-.074v-5.213A.065.065,0,0,1,694,783.559Z" transform="translate(-648.707 -783.434)" fill="#606060"/>
          <path id="Path_3792-2" data-name="Path 3792" d="M723.7,788.693a9.237,9.237,0,0,1-1.167-.067q-.519-.066-.9-.151a5.861,5.861,0,0,1-.6-.162c-.15-.052-.247-.087-.291-.107-.015-.01-.022-.019-.022-.029l-.11-1.134c0-.034.012-.052.037-.052a.017.017,0,0,1,.011,0,.015.015,0,0,0,.011,0q.1.059.346.173a4.315,4.315,0,0,0,.626.224,7.848,7.848,0,0,0,.9.2,7.2,7.2,0,0,0,1.163.085,3.775,3.775,0,0,0,1.329-.188q.482-.188.482-.5a.279.279,0,0,0-.118-.21,1.074,1.074,0,0,0-.375-.177,3.806,3.806,0,0,0-.655-.122,8.882,8.882,0,0,0-.964-.044,6.877,6.877,0,0,1-1.2-.088,3.687,3.687,0,0,1-.817-.232,1.8,1.8,0,0,1-.515-.32,1.336,1.336,0,0,1-.28-.357,1.081,1.081,0,0,1-.114-.342,2.085,2.085,0,0,1-.022-.265,1.275,1.275,0,0,1,.291-.861,2,2,0,0,1,.747-.534,3.967,3.967,0,0,1,1.027-.273,8.359,8.359,0,0,1,1.123-.077,6.208,6.208,0,0,1,.917.062q.416.063.733.144a4.666,4.666,0,0,1,.516.158q.2.077.258.107c.015,0,.022.01.022.03l.074,1.1c.01.03,0,.044-.037.044a.015.015,0,0,1-.011,0,.015.015,0,0,0-.011,0,3.425,3.425,0,0,0-.372-.187,4.526,4.526,0,0,0-.563-.2,6.235,6.235,0,0,0-.711-.162,4.79,4.79,0,0,0-.814-.066,6.866,6.866,0,0,0-1.119.074,2.828,2.828,0,0,0-.663.18.679.679,0,0,0-.313.236.472.472,0,0,0-.077.239q0,.309.515.449a5.619,5.619,0,0,0,1.414.14q.272,0,.611.014a6.245,6.245,0,0,1,.692.07,5.063,5.063,0,0,1,.692.158,2.218,2.218,0,0,1,.6.283,1.452,1.452,0,0,1,.427.445,1.191,1.191,0,0,1,.162.633,1.454,1.454,0,0,1-.029.239,1.2,1.2,0,0,1-.129.343,1.665,1.665,0,0,1-.291.375,1.915,1.915,0,0,1-.512.35,3.355,3.355,0,0,1-.791.258A5.557,5.557,0,0,1,723.7,788.693Z" transform="translate(-668.481 -783.09)" fill="#606060"/>
        </g>
      </g>
    </g>
    <text id="Conseil_en_communication" data-name="Conseil en communication" transform="translate(692 432)" fill="#009c98" font-size="50" font-family="Roboto-Bold, Roboto" font-weight="700"><tspan x="0" y="46">Conseil en communication</tspan></text>
    <text id="Falicitation_d_affaires" data-name="Falicitation d’affaires" transform="translate(692 800)" fill="#009c98" font-size="50" font-family="Roboto-Bold, Roboto" font-weight="700"><tspan x="0" y="46">Falicitation d’affaires</tspan></text>
    <text id="Gestion_et_renforcement_des_compétences" data-name="Gestion et renforcement des compétences" transform="translate(692 1168)" fill="#009c98" font-size="50" font-family="Roboto-Bold, Roboto" font-weight="700"><tspan x="0" y="46">Gestion et renforcement </tspan><tspan x="0" y="96">des compétences</tspan></text>
    <g id="Group_184" data-name="Group 184" transform="translate(35.53 -7.091)">
      <ellipse id="Ellipse_2" data-name="Ellipse 2" cx="85.604" cy="85.604" rx="85.604" ry="85.604" transform="translate(288.995 464.53)" fill="#ffce00"/>
      <g id="Group_178" data-name="Group 178" transform="translate(278 457.351)">
        <path id="Path_4362" data-name="Path 4362" d="M78.063,221.037a11.547,11.547,0,0,1-8.193-3.414L35.1,182.862a11.554,11.554,0,0,1-1.2-15.008L87.529,93.762a3.473,3.473,0,0,1,2.539-1.427,3.511,3.511,0,0,1,2.731,1l66.589,66.589a3.478,3.478,0,0,1-.418,5.27l-74.1,53.621A11.6,11.6,0,0,1,78.063,221.037Zm12.707-119.9L39.535,171.927a4.638,4.638,0,0,0,.479,6.022L74.78,212.714a4.643,4.643,0,0,0,6.022.479l70.793-51.231Z" transform="translate(7.677 -69.427)" fill="#002037"/>
        <path id="Path_4363" data-name="Path 4363" d="M126.695,181.962a7.7,7.7,0,0,1-5.469-2.263l-74.2-74.2a7.739,7.739,0,0,1,0-10.939l3.935-3.935a7.92,7.92,0,0,1,10.939,0l74.2,74.2a7.739,7.739,0,0,1,0,10.939l-3.931,3.935A7.709,7.709,0,0,1,126.695,181.962ZM56.427,95.3a.761.761,0,0,0-.556.23l-3.939,3.935a.792.792,0,0,0,0,1.116l74.2,74.206a.8.8,0,0,0,1.12,0l3.931-3.935a.788.788,0,0,0,0-1.116l-74.2-74.206A.774.774,0,0,0,56.427,95.3Z" transform="translate(44.735 -80.478)" fill="#002037"/>
        <path id="Path_4364" data-name="Path 4364" d="M60.657,160.328a3.469,3.469,0,0,1-2.455-1.016L31.457,132.571a3.468,3.468,0,0,1,0-4.913L42.665,116.45a3.473,3.473,0,0,1,4.913,0l26.741,26.741a3.472,3.472,0,0,1,0,4.913L63.112,159.312A3.469,3.469,0,0,1,60.657,160.328ZM38.821,130.112l21.836,21.832,6.3-6.3L45.123,123.814Z" transform="translate(4.125 -3.916)" fill="#002037"/>
        <path id="Path_4365" data-name="Path 4365" d="M77.613,183.458a3.453,3.453,0,0,1-2.455-1.02l-26.408-26.4-11.173-4.146a3.478,3.478,0,0,1-1.247-5.715l17.39-17.39a3.472,3.472,0,0,1,4.913,0L80.068,150.22a22.779,22.779,0,0,1,0,32.219A3.466,3.466,0,0,1,77.613,183.458Zm-32.541-36.2,6.808,2.528a3.413,3.413,0,0,1,1.247.8l24.218,24.218a15.86,15.86,0,0,0-2.186-19.676L56.18,136.151Z" transform="translate(17.957 31.055)" fill="#002037"/>
        <path id="Path_4366" data-name="Path 4366" d="M41.832,146.3a3.471,3.471,0,0,1-2.808-5.508l28.908-39.951a3.473,3.473,0,0,1,5.627,4.073L44.651,144.868A3.475,3.475,0,0,1,41.832,146.3Z" transform="translate(26.598 -49.348)" fill="#002037"/>
        <path id="Path_4367" data-name="Path 4367" d="M103.971,148.573a3.467,3.467,0,0,1-2.455-1.016L51.9,97.944a3.474,3.474,0,0,1,2.083-5.911c10.206-1.108,24.34,5.73,36.027,17.417s18.518,25.825,17.41,36.023a3.468,3.468,0,0,1-2.3,2.9A3.527,3.527,0,0,1,103.971,148.573ZM64.166,100.38l34.915,34.915c-2.359-6.7-7.322-14.276-13.981-20.934S70.866,102.739,64.166,100.38Z" transform="translate(62.112 -70.593)" fill="#002037"/>
        <path id="Path_4368" data-name="Path 4368" d="M65.676,106.181a3.475,3.475,0,0,1-2.455-5.93l7.671-7.671A3.473,3.473,0,0,1,75.8,97.493L68.13,105.16A3.453,3.453,0,0,1,65.676,106.181Z" transform="translate(94.197 -71.6)" fill="#002037"/>
        <path id="Path_4369" data-name="Path 4369" d="M60.55,106.976a3.477,3.477,0,0,1-3.345-4.415L61.041,88.9a3.474,3.474,0,1,1,6.689,1.876l-3.836,13.67A3.479,3.479,0,0,1,60.55,106.976Z" transform="translate(79.659 -86.357)" fill="#002037"/>
        <path id="Path_4370" data-name="Path 4370" d="M69.315,108.472a3.475,3.475,0,0,1-.936-6.82l13.666-3.836a3.474,3.474,0,0,1,1.876,6.689l-13.666,3.836A3.471,3.471,0,0,1,69.315,108.472Z" transform="translate(104.52 -54.227)" fill="#002037"/>
        <path id="Path_4371" data-name="Path 4371" d="M65.078,193.523a16.123,16.123,0,0,1-11.434-4.729l-12.7-12.7a3.463,3.463,0,0,1,0-4.909L50.96,161.178a4.69,4.69,0,0,0,0-6.624l-1.837-1.837a4.691,4.691,0,0,0-6.628,0L32.488,162.727a3.472,3.472,0,0,1-4.913,0L26.155,161.3a16.191,16.191,0,0,1,0-22.871l21.5-21.5a3.479,3.479,0,0,1,4.913,0l45.451,45.451a3.477,3.477,0,0,1,0,4.913l-21.5,21.5A16.125,16.125,0,0,1,65.078,193.523Zm-16.761-19.88,10.237,10.241a9.24,9.24,0,0,0,13.049,0L90.65,164.84,50.108,124.3,31.065,143.342a9.246,9.246,0,0,0-.951,11.932l7.472-7.468a11.641,11.641,0,0,1,16.447,0l1.837,1.833a11.649,11.649,0,0,1,0,16.451Z" transform="translate(-21.426 -2.544)" fill="#002037"/>
        <path id="Path_4372" data-name="Path 4372" d="M38.836,158.852a3.468,3.468,0,0,1-2.459-1.02L23.006,144.461a3.472,3.472,0,0,1,0-4.91l12.573-12.573a12.2,12.2,0,0,1,17.26,0L53.863,128a12.228,12.228,0,0,1,0,17.264L41.29,157.832A3.466,3.466,0,0,1,38.836,158.852Zm-8.461-16.846,8.461,8.461L48.95,140.349a5.262,5.262,0,0,0,0-7.437l-1.02-1.02a5.385,5.385,0,0,0-7.437,0Z" transform="translate(-19.827 18.691)" fill="#002037"/>
      </g>
    </g>
    <g id="Group_182" data-name="Group 182" transform="translate(-601.32 -365.404)">
      <circle id="Ellipse_3" data-name="Ellipse 3" cx="93.22" cy="93.22" r="93.22" transform="translate(924.955 1200.555)" fill="#ffce00"/>
      <g id="Group_179" data-name="Group 179" transform="translate(879.32 1194.404)">
        <path id="Path_4373" data-name="Path 4373" d="M414.912,359.763a15.283,15.283,0,0,1-8.334-2.467l-48.8-31.83a3.554,3.554,0,0,1,3.885-5.953l48.8,31.825A8.118,8.118,0,0,0,422,348.473a8.124,8.124,0,0,0-2.777-10.8l-67.67-42.6a18.99,18.99,0,0,0-10.137-2.921H309.49v8.414a14.422,14.422,0,1,1-28.844,0v-24.29a9.729,9.729,0,0,1,5.563-8.764L314,254.436a3.535,3.535,0,0,1,1.513-.335H391.4a3.553,3.553,0,1,1,0,7.106h-75.1l-27.071,12.739a2.587,2.587,0,0,0-1.483,2.332v24.29a7.316,7.316,0,1,0,14.632,0V288.6a3.553,3.553,0,0,1,3.55-3.556h35.481a26.108,26.108,0,0,1,13.922,4.015l67.67,42.6a15.219,15.219,0,0,1-8.095,28.11Z" transform="translate(-197.719 -215.079)" fill="#002037"/>
        <path id="Path_4374" data-name="Path 4374" d="M337.766,317.7a15.805,15.805,0,0,1-8.859-2.717l-34.442-23.151a3.553,3.553,0,1,1,3.965-5.9l34.442,23.146a8.835,8.835,0,1,0,9.758-14.732l-31.306-20.409a3.556,3.556,0,0,1,3.885-5.958l31.3,20.41a15.989,15.989,0,0,1,4.7,21.972,15.825,15.825,0,0,1-10.177,7A16.218,16.218,0,0,1,337.766,317.7Z" transform="translate(-148.812 -161.946)" fill="#002037"/>
        <path id="Path_4375" data-name="Path 4375" d="M324.188,312.1a15.71,15.71,0,0,1-8.514-2.5l-23.665-15.241a3.554,3.554,0,0,1,3.845-5.978l23.665,15.241a8.724,8.724,0,0,0,11.66-2.092,8.7,8.7,0,0,0-2.1-12.434l-15.436-10.372a3.553,3.553,0,0,1,3.965-5.9L333.042,283.2a15.807,15.807,0,0,1,3.82,22.6A15.836,15.836,0,0,1,324.188,312.1Z" transform="translate(-158.855 -142.702)" fill="#002037"/>
        <path id="Path_4376" data-name="Path 4376" d="M301.175,308.161a15.265,15.265,0,0,1-8.02-2.267l-2.567-1.578a3.553,3.553,0,0,1,3.725-6.052l2.567,1.578a8.276,8.276,0,0,0,11.051-2.247,8.254,8.254,0,0,0-2.257-11.72l-5.8-3.735a3.555,3.555,0,0,1,3.85-5.977l5.8,3.735a15.351,15.351,0,0,1-8.35,28.264Z" transform="translate(-164.77 -129.225)" fill="#002037"/>
        <path id="Path_4377" data-name="Path 4377" d="M298.384,306.651a14.239,14.239,0,0,1-10.6-23.74l1.184-1.329A14.26,14.26,0,1,1,310.1,300.733l-1.2,1.313A14.222,14.222,0,0,1,298.384,306.651Zm1.2-22.706a7.135,7.135,0,0,0-5.323,2.377l-1.188,1.329a7.145,7.145,0,0,0,.849,10.337,7.164,7.164,0,0,0,9.733-.739l1.2-1.318a7.135,7.135,0,0,0-.7-10.327A7.2,7.2,0,0,0,299.587,283.944Z" transform="translate(-183.737 -124.279)" fill="#002037"/>
        <path id="Path_4378" data-name="Path 4378" d="M294.429,317.243a14.293,14.293,0,0,1-10.707-23.75l14.946-16.934a14.235,14.235,0,0,1,19.785-1.578l-2.067,2.9,2.257-2.747a14.289,14.289,0,0,1,1.533,20.609l-15.136,16.774A14.268,14.268,0,0,1,294.429,317.243Zm14.946-38.417A7.162,7.162,0,0,0,304,281.264L289.051,298.2a7.178,7.178,0,0,0,10.712,9.558L314.9,290.981a7.179,7.179,0,0,0-.764-10.347A7.353,7.353,0,0,0,309.375,278.827Z" transform="translate(-199.722 -144.759)" fill="#002037"/>
        <path id="Path_4379" data-name="Path 4379" d="M291.659,305.931a14.53,14.53,0,0,1-11.276-23.68l5.084-6.262A14.7,14.7,0,1,1,307.9,294.969l-5.338,6.052A14.513,14.513,0,0,1,291.659,305.931Zm5.243-28.26a7.609,7.609,0,0,0-5.918,2.791l-5.079,6.267a7.42,7.42,0,0,0,11.326,9.583l5.338-6.048a7.57,7.57,0,0,0-5.668-12.594Z" transform="translate(-211.734 -149.281)" fill="#002037"/>
        <path id="Path_4380" data-name="Path 4380" d="M288.006,298.441A13.655,13.655,0,0,1,277.529,276l2.292-2.722a13.6,13.6,0,0,1,21.014,17.263l-2.217,2.777A13.551,13.551,0,0,1,288.006,298.441Zm2.212-22.886a6.475,6.475,0,0,0-4.964,2.312l-2.292,2.716a6.536,6.536,0,1,0,10.107,8.29l2.217-2.772a6.495,6.495,0,0,0-5.069-10.547Z" transform="translate(-222.967 -157.782)" fill="#002037"/>
        <path id="Path_4381" data-name="Path 4381" d="M294.854,333.775a3.537,3.537,0,0,1-2.557-1.089l-20.065-20.834a3.551,3.551,0,0,1-.339-4.515L308,256.267a3.547,3.547,0,0,1,2.9-1.5H346.03a3.556,3.556,0,0,1,0,7.111H312.737l-33.343,47.166,18.022,18.717a3.553,3.553,0,0,1-2.562,6.017Z" transform="translate(-235.283 -212.431)" fill="#002037"/>
        <path id="Path_4382" data-name="Path 4382" d="M353.894,353.8a12.329,12.329,0,0,1-10.247-5.458c-9.064-13.388-28.679-42.986-39.565-59.441a12.427,12.427,0,0,1,2.822-16.694L339,247.749a3.554,3.554,0,1,1,4.31,5.653l-32.095,24.459a5.305,5.305,0,0,0-1.2,7.121c10.876,16.434,30.477,46.012,39.525,59.375a5.277,5.277,0,0,0,7.191,1.513l26.127-16.424a3.555,3.555,0,1,1,3.785,6.017l-26.132,16.424A12.431,12.431,0,0,1,353.894,353.8Z" transform="translate(-112.301 -243.369)" fill="#002037"/>
        <path id="Path_4383" data-name="Path 4383" d="M296.42,350.447a12.376,12.376,0,0,1-6.122-1.618l-24.454-13.823a3.554,3.554,0,0,1,3.5-6.187L293.8,342.642a5.264,5.264,0,0,0,6.931-1.568l36.709-52.4a5.269,5.269,0,0,0-.939-7.086l-35.206-29a3.551,3.551,0,1,1,4.514-5.483l35.236,29.024a12.327,12.327,0,0,1,2.212,16.624l-36.7,52.4A12.334,12.334,0,0,1,296.42,350.447Z" transform="translate(-264.04 -246.287)" fill="#002037"/>
        <path id="Path_4384" data-name="Path 4384" d="M309.942,288.563a3.551,3.551,0,0,1-2.532-6.043l15.95-16.24a3.554,3.554,0,0,1,5.069,4.984L312.479,287.5A3.558,3.558,0,0,1,309.942,288.563Z" transform="translate(-94.906 -170.691)" fill="#002037"/>
        <path id="Path_4385" data-name="Path 4385" d="M271,291.177a3.556,3.556,0,0,1-2.926-5.563l18.946-27.646a3.554,3.554,0,0,1,5.863,4.02l-18.946,27.64A3.557,3.557,0,0,1,271,291.177Z" transform="translate(-250.436 -205.784)" fill="#002037"/>
        <path id="Path_4386" data-name="Path 4386" d="M331.064,292.809a3.554,3.554,0,0,1-3.016-1.673l-17.922-28.7a3.552,3.552,0,1,1,6.027-3.76l17.923,28.7a3.552,3.552,0,0,1-3.011,5.438Z" transform="translate(-82.151 -203.515)" fill="#002037"/>
      </g>
    </g>
    <g id="Group_181" data-name="Group 181" transform="translate(-1068.323 -3.497)">
      <circle id="Ellipse_4" data-name="Ellipse 4" cx="91.441" cy="91.441" r="91.441" transform="translate(1390.489 1222.478)" fill="#ffce00"/>
      <g id="Group_180" data-name="Group 180" transform="translate(1381.853 1176.738)">
        <path id="Path_4387" data-name="Path 4387" d="M460.213,357.942H440.525a3.057,3.057,0,0,1-3.059-3.055V260.065a3.059,3.059,0,0,1,6.119,0v91.763h13.569V275.736a3.059,3.059,0,1,1,6.118,0v79.152A3.057,3.057,0,0,1,460.213,357.942Z" transform="translate(-410.177 -123.423)" fill="#002037"/>
        <path id="Path_4388" data-name="Path 4388" d="M444.925,324.011a11.309,11.309,0,0,1-11.292-11.3V267.379a21.434,21.434,0,0,1,21.407-21.407h4.151a3.059,3.059,0,0,1,0,6.119H455.04a15.308,15.308,0,0,0-15.292,15.288v45.336a5.178,5.178,0,0,0,10.355,0V280.772a3.059,3.059,0,0,1,6.119,0v31.942A11.31,11.31,0,0,1,444.925,324.011Z" transform="translate(-422.814 -159.8)" fill="#002037"/>
        <path id="Path_4389" data-name="Path 4389" d="M450.251,252.091h-2.612a3.059,3.059,0,0,1,0-6.119h2.612a3.059,3.059,0,0,1,0,6.119Z" transform="translate(-386.727 -159.8)" fill="#002037"/>
        <path id="Path_4390" data-name="Path 4390" d="M464.8,345.919H445.107a3.057,3.057,0,0,1-3.059-3.055V263.712a3.059,3.059,0,0,1,6.118,0V339.8h13.569V292.17a3.059,3.059,0,1,1,6.118,0v50.694A3.057,3.057,0,0,1,464.8,345.919Z" transform="translate(-395.071 -111.399)" fill="#002037"/>
        <path id="Path_4391" data-name="Path 4391" d="M457.592,274.621a19.329,19.329,0,1,1,19.331-19.331A19.352,19.352,0,0,1,457.592,274.621Zm0-32.544a13.215,13.215,0,1,0,13.213,13.213A13.228,13.228,0,0,0,457.592,242.077Z" transform="translate(-407.556 -192.797)" fill="#002037"/>
        <path id="Path_4392" data-name="Path 4392" d="M472.412,367.38H452.728a3.058,3.058,0,0,1-3.059-3.059V261.145a3.059,3.059,0,1,1,6.118,0v100.12h13.57V276.816a3.057,3.057,0,1,1,6.114,0v87.5A3.055,3.055,0,0,1,472.412,367.38Z" transform="translate(-369.946 -119.862)" fill="#002037"/>
        <path id="Path_4393" data-name="Path 4393" d="M457.131,325.09a11.31,11.31,0,0,1-11.3-11.3V268.459a21.434,21.434,0,0,1,21.407-21.407h4.151a3.059,3.059,0,1,1,0,6.119h-4.151a15.3,15.3,0,0,0-15.288,15.288v45.336a5.178,5.178,0,1,0,10.355,0V281.852a3.059,3.059,0,0,1,6.118,0v31.942A11.313,11.313,0,0,1,457.131,325.09Z" transform="translate(-382.586 -156.239)" fill="#002037"/>
        <path id="Path_4394" data-name="Path 4394" d="M474.751,325.09a11.309,11.309,0,0,1-11.292-11.3V281.852a3.057,3.057,0,0,1,6.114,0v31.942a5.178,5.178,0,1,0,10.355,0V268.459a15.3,15.3,0,0,0-15.288-15.288h-4.151a3.059,3.059,0,1,1,0-6.119h4.151a21.434,21.434,0,0,1,21.407,21.407v45.336A11.31,11.31,0,0,1,474.751,325.09Z" transform="translate(-344.359 -156.239)" fill="#002037"/>
        <path id="Path_4395" data-name="Path 4395" d="M476.994,367.38H457.306a3.054,3.054,0,0,1-3.055-3.059v-87.5a3.057,3.057,0,1,1,6.114,0v84.449h13.574V261.145a3.057,3.057,0,1,1,6.114,0V364.32A3.058,3.058,0,0,1,476.994,367.38Z" transform="translate(-354.84 -119.862)" fill="#002037"/>
        <path id="Path_4396" data-name="Path 4396" d="M469.791,275.7a19.329,19.329,0,1,1,19.331-19.327A19.35,19.35,0,0,1,469.791,275.7Zm0-32.544a13.215,13.215,0,1,0,13.217,13.217A13.232,13.232,0,0,0,469.791,243.157Z" transform="translate(-367.325 -189.237)" fill="#002037"/>
        <path id="Path_4397" data-name="Path 4397" d="M489.2,357.942H469.509a3.053,3.053,0,0,1-3.055-3.055V275.736a3.057,3.057,0,1,1,6.114,0v76.092h13.574V260.065a3.057,3.057,0,1,1,6.114,0v94.822A3.057,3.057,0,0,1,489.2,357.942Z" transform="translate(-314.609 -123.423)" fill="#002037"/>
        <path id="Path_4398" data-name="Path 4398" d="M486.954,324.011a11.309,11.309,0,0,1-11.292-11.3V280.772a3.057,3.057,0,0,1,6.114,0v31.942a5.178,5.178,0,0,0,10.355,0V267.379a15.3,15.3,0,0,0-15.288-15.288h-4.151a3.059,3.059,0,0,1,0-6.119h4.151a21.434,21.434,0,0,1,21.407,21.407v45.336A11.31,11.31,0,0,1,486.954,324.011Z" transform="translate(-304.129 -159.8)" fill="#002037"/>
        <path id="Path_4399" data-name="Path 4399" d="M469.6,252.091h-3.412a3.059,3.059,0,0,1,0-6.119H469.6a3.059,3.059,0,1,1,0,6.119Z" transform="translate(-325.574 -159.8)" fill="#002037"/>
        <path id="Path_4400" data-name="Path 4400" d="M484.615,345.919H464.927a3.053,3.053,0,0,1-3.055-3.055V292.17a3.057,3.057,0,1,1,6.114,0V339.8H481.56V263.712a3.057,3.057,0,1,1,6.114,0v79.152A3.057,3.057,0,0,1,484.615,345.919Z" transform="translate(-329.715 -111.399)" fill="#002037"/>
        <path id="Path_4401" data-name="Path 4401" d="M482,274.621a19.329,19.329,0,1,1,19.331-19.331A19.355,19.355,0,0,1,482,274.621Zm0-32.544a13.215,13.215,0,1,0,13.217,13.213A13.228,13.228,0,0,0,482,242.077Z" transform="translate(-327.097 -192.797)" fill="#002037"/>
        <path id="Path_4402" data-name="Path 4402" d="M613.875,288.213H436.688a3.057,3.057,0,0,1,0-6.114H613.875a3.057,3.057,0,1,1,0,6.114Z" transform="translate(-422.814 -40.696)" fill="#002037"/>
        <path id="Path_4403" data-name="Path 4403" d="M531.6,285.188H464.927a3.057,3.057,0,0,1,0-6.114H531.6a3.057,3.057,0,1,1,0,6.114Z" transform="translate(-329.715 -50.669)" fill="#002037"/>
        <path id="Path_4404" data-name="Path 4404" d="M500.839,285.188H434.17a3.057,3.057,0,0,1,0-6.114h66.669a3.057,3.057,0,1,1,0,6.114Z" transform="translate(-431.115 -50.669)" fill="#002037"/>
        <path id="Path_4405" data-name="Path 4405" d="M457.306,265.8a3.057,3.057,0,0,1-3.055-3.059V228.976a3.057,3.057,0,1,1,6.114,0v33.764A3.058,3.058,0,0,1,457.306,265.8Z" transform="translate(-354.84 -225.917)" fill="#002037"/>
        <path id="Path_4406" data-name="Path 4406" d="M475.15,241.854a3.05,3.05,0,0,1-2.131-.864l-7.966-7.747-7.958,7.747a3.06,3.06,0,1,1-4.267-4.387l10.093-9.823a3.067,3.067,0,0,1,4.267,0l10.093,9.823a3.057,3.057,0,0,1-2.131,5.251Z" transform="translate(-362.586 -225.917)" fill="#002037"/>
        <path id="Path_4407" data-name="Path 4407" d="M476.742,278.329a3.061,3.061,0,0,1-3.059-3.059V233.148a3.059,3.059,0,0,1,6.118,0V275.27A3.061,3.061,0,0,1,476.742,278.329Z" transform="translate(-290.776 -212.163)" fill="#002037"/>
        <path id="Path_4408" data-name="Path 4408" d="M474.394,246.025a3.059,3.059,0,0,1-2.135-5.251l10.1-9.818a3.054,3.054,0,0,1,4.263,0l10.1,9.818a3.06,3.06,0,1,1-4.267,4.387l-7.962-7.747-7.962,7.747A3.031,3.031,0,0,1,474.394,246.025Z" transform="translate(-298.521 -212.162)" fill="#002037"/>
        <path id="Path_4409" data-name="Path 4409" d="M437.874,278.329a3.057,3.057,0,0,1-3.055-3.059V233.148a3.057,3.057,0,1,1,6.114,0V275.27A3.061,3.061,0,0,1,437.874,278.329Z" transform="translate(-418.904 -212.163)" fill="#002037"/>
        <path id="Path_4410" data-name="Path 4410" d="M455.717,246.025a3.05,3.05,0,0,1-2.136-.864l-7.962-7.747-7.962,7.747a3.058,3.058,0,1,1-4.262-4.387l10.093-9.818a3.059,3.059,0,0,1,4.267,0l10.093,9.818a3.057,3.057,0,0,1-2.131,5.251Z" transform="translate(-426.649 -212.162)" fill="#002037"/>
      </g>
    </g>
    <line id="Line_1" data-name="Line 1" x2="674" transform="translate(692 1727)" fill="none" stroke="#606060" stroke-width="1"/>
    <text id="Lorem_ipsum_dolor_sit_amet_consetetur_sadipscing_elitr_sed_diam_nonumy_eirmod_tempor_invidunt_ut_labore_et_dolore_magna_aliquyam_erat_sed_diam_voluptua._At_vero_eos_et_accusam_et_justo_duo_dolores_et_ea_rebum._Stet_clita_kasd_gubergren_no_sea_takimata_" data-name="Lorem ipsum dolor sit amet, consetetur sadipscing elitr, sed diam nonumy eirmod tempor invidunt ut labore et dolore magna aliquyam erat, sed diam voluptua. At vero eos et accusam et justo duo dolores et ea rebum. Stet clita kasd gubergren, no sea takimata " transform="translate(692 511)" fill="#606060" font-size="20" font-family="Roboto-Regular, Roboto"><tspan x="0" y="19">Lorem ipsum dolor sit amet, consetetur sadipscing elitr, sed diam nonumy eirmod tempor invidunt ut labore </tspan><tspan x="0" y="49">et dolore magna aliquyam erat, sed diam voluptua. At vero eos et accusam et justo duo dolores et ea </tspan><tspan x="0" y="79">rebum. Stet clita kasd gubergren, no sea takimata sanctus est Lorem ipsum dolor sit amet. Lorem ipsum </tspan><tspan x="0" y="109">dolor sit amet, consetetur sadipscing elitr, sed diam nonumy eirmod tempor invidunt ut labore et dolore </tspan><tspan x="0" y="139">magna aliquyam erat, sed diam voluptua. </tspan></text>
    <text id="Lorem_ipsum_dolor_sit_amet_consetetur_sadipscing_elitr_sed_diam_nonumy_eirmod_tempor_invidunt_ut_labore_et_dolore_magna_aliquyam_erat_sed_diam_voluptua._At_vero_eos_et_accusam_et_justo_duo_dolores_et_ea_rebum._Stet_clita_kasd_gubergren_no_sea_takimata_2" data-name="Lorem ipsum dolor sit amet, consetetur sadipscing elitr, sed diam nonumy eirmod tempor invidunt ut labore et dolore magna aliquyam erat, sed diam voluptua. At vero eos et accusam et justo duo dolores et ea rebum. Stet clita kasd gubergren, no sea takimata " transform="translate(692 879)" fill="#606060" font-size="20" font-family="Roboto-Regular, Roboto"><tspan x="0" y="19">Lorem ipsum dolor sit amet, consetetur sadipscing elitr, sed diam nonumy eirmod tempor invidunt ut labore </tspan><tspan x="0" y="49">et dolore magna aliquyam erat, sed diam voluptua. At vero eos et accusam et justo duo dolores et ea </tspan><tspan x="0" y="79">rebum. Stet clita kasd gubergren, no sea takimata sanctus est Lorem ipsum dolor sit amet. Lorem ipsum </tspan><tspan x="0" y="109">dolor sit amet, consetetur sadipscing elitr, sed diam nonumy eirmod tempor invidunt ut labore et dolore </tspan><tspan x="0" y="139">magna aliquyam erat, sed diam voluptua. </tspan></text>
    <text id="Lorem_ipsum_dolor_sit_amet_consetetur_sadipscing_elitr_sed_diam_nonumy_eirmod_tempor_invidunt_ut_labore_et_dolore_magna_aliquyam_erat_sed_diam_voluptua._At_vero_eos_et_accusam_et_justo_duo_dolores_et_ea_rebum._Stet_clita_kasd_gubergren_no_sea_takimata_3" data-name="Lorem ipsum dolor sit amet, consetetur sadipscing elitr, sed diam nonumy eirmod tempor invidunt ut labore et dolore magna aliquyam erat, sed diam voluptua. At vero eos et accusam et justo duo dolores et ea rebum. Stet clita kasd gubergren, no sea takimata " transform="translate(692 1297)" fill="#606060" font-size="20" font-family="Roboto-Regular, Roboto"><tspan x="0" y="19">Lorem ipsum dolor sit amet, consetetur sadipscing elitr, sed diam nonumy eirmod tempor invidunt ut labore </tspan><tspan x="0" y="49">et dolore magna aliquyam erat, sed diam voluptua. At vero eos et accusam et justo duo dolores et ea </tspan><tspan x="0" y="79">rebum. Stet clita kasd gubergren, no sea takimata sanctus est Lorem ipsum dolor sit amet. Lorem ipsum </tspan><tspan x="0" y="109">dolor sit amet, consetetur sadipscing elitr, sed diam nonumy eirmod tempor invidunt ut labore et dolore </tspan><tspan x="0" y="139">magna aliquyam erat, sed diam voluptua. </tspan></text>
  </g>
</svg>
